<?xml version="1.0" encoding="utf-8"?>
<!-- Generator: Adobe Illustrator 16.0.0, SVG Export Plug-In . SVG Version: 6.00 Build 0)  -->
<!DOCTYPE svg PUBLIC "-//W3C//DTD SVG 1.1//EN" "http://www.w3.org/Graphics/SVG/1.1/DTD/svg11.dtd">
<svg version="1.1" id="Layer_1" xmlns="http://www.w3.org/2000/svg" xmlns:xlink="http://www.w3.org/1999/xlink" x="0px" y="0px"
	 width="320px" height="175.948px" viewBox="5.5 3.024 320 175.948" enable-background="new 5.5 3.024 320 175.948"
	 xml:space="preserve">
<polygon fill="#3C2A0E" points="21.916,89.593 5.5,61.16 21.916,32.726 54.748,32.726 71.164,61.16 54.748,89.593 "/>
<polygon fill="#3C2A0E" points="224.915,59.89 208.498,31.457 224.915,3.024 257.747,3.024 274.163,31.457 257.747,59.89 "/>
<polygon fill="#3C2A0E" points="224.915,178.972 208.498,150.54 224.915,122.105 257.747,122.105 274.163,150.54 257.747,178.972 
	"/>
<polygon fill="#3C2A0E" points="22.304,148.904 5.889,120.47 22.304,92.037 55.137,92.037 71.553,120.47 55.137,148.904 "/>
<polygon fill="#3C2A0E" points="276.252,89.882 259.834,61.449 276.252,33.015 309.084,33.015 325.5,61.449 309.084,89.882 "/>
<polygon fill="#3C2A0E" points="276.252,148.904 259.834,120.47 276.252,92.037 309.084,92.037 325.5,120.47 309.084,148.904 "/>
<polygon fill="#3C2A0E" points="73.087,119.48 56.671,91.046 73.087,62.614 257.747,62.614 274.163,91.046 257.747,119.48 "/>
</svg>
