<?xml version="1.0" encoding="utf-8"?>
<!-- Generator: Adobe Illustrator 16.0.0, SVG Export Plug-In . SVG Version: 6.00 Build 0)  -->
<!DOCTYPE svg PUBLIC "-//W3C//DTD SVG 1.1//EN" "http://www.w3.org/Graphics/SVG/1.1/DTD/svg11.dtd">
<svg version="1.1" id="Layer_1" xmlns="http://www.w3.org/2000/svg" xmlns:xlink="http://www.w3.org/1999/xlink" x="0px" y="0px"
	 width="331px" height="181.997px" viewBox="0 0 331 181.997" enable-background="new 0 0 331 181.997" xml:space="preserve">
<polygon fill="#3C2A0E" points="16.98,89.545 0,60.134 16.98,30.723 50.941,30.723 67.921,60.134 50.941,89.545 "/>
<polygon fill="#3C2A0E" points="226.957,58.821 209.977,29.41 226.957,0 260.918,0 277.898,29.41 260.918,58.821 "/>
<polygon fill="#3C2A0E" points="226.957,181.997 209.977,152.586 226.957,123.175 260.918,123.175 277.898,152.586 260.918,181.997 
	"/>
<polygon fill="#3C2A0E" points="17.382,150.894 0.402,121.483 17.382,92.072 51.343,92.072 68.323,121.483 51.343,150.894 "/>
<polygon fill="#3C2A0E" points="280.059,89.844 263.077,60.433 280.059,31.022 314.019,31.022 331,60.433 314.019,89.844 "/>
<polygon fill="#3C2A0E" points="280.059,150.894 263.077,121.483 280.059,92.072 314.019,92.072 331,121.483 314.019,150.894 "/>
<polygon fill="#3C2A0E" points="69.91,120.46 52.93,91.048 69.91,61.638 260.918,61.638 277.898,91.048 260.918,120.46 "/>
</svg>
