<?xml version="1.0" encoding="utf-8"?>
<!-- Generator: Adobe Illustrator 16.0.0, SVG Export Plug-In . SVG Version: 6.00 Build 0)  -->
<!DOCTYPE svg PUBLIC "-//W3C//DTD SVG 1.1//EN" "http://www.w3.org/Graphics/SVG/1.1/DTD/svg11.dtd">
<svg version="1.1" xmlns="http://www.w3.org/2000/svg" xmlns:xlink="http://www.w3.org/1999/xlink" x="0px" y="0px" width="383px"
	 height="383px" viewBox="0 0 383 383" enable-background="new 0 0 383 383" xml:space="preserve">
<g id="bg">
	<rect opacity="0.5" fill="#FBB03B" width="384" height="384"/>
</g>
<g id="bees">
	<g opacity="0.5">
		<g>
			<path fill="#FFFFFF" d="M76.776,63.107c0,0-3.399-8.579,2.889-8.579s4.491,6.693,4.491,6.693S79.123,61.582,76.776,63.107z"/>
			<path d="M76.709,63.317l-0.063-0.158c-0.004-0.012-0.481-1.224-0.747-2.716c-0.36-2.023-0.187-3.575,0.519-4.612
				c0.65-0.957,1.742-1.442,3.247-1.442c1.795,0,3.12,0.54,3.936,1.604c0.64,0.834,0.961,2.01,0.93,3.402
				c-0.022,1.044-0.231,1.831-0.24,1.864l-0.026,0.096l-0.099,0.007c-0.05,0.004-5.025,0.375-7.313,1.863L76.709,63.317z
				 M79.665,54.668c-1.407,0-2.422,0.444-3.017,1.319c-1.423,2.094-0.104,6.072,0.199,6.912c0.993-0.601,2.497-1.085,4.474-1.443
				c1.291-0.233,2.392-0.336,2.723-0.364c0.055-0.239,0.191-0.902,0.208-1.71c0.02-0.924-0.116-2.232-0.875-3.22
				C82.618,55.17,81.369,54.668,79.665,54.668z"/>
		</g>
		<g>
			<ellipse fill="#F4E398" cx="81.042" cy="70.114" rx="13.714" ry="9.095"/>
			<path d="M81.042,79.38c-7.656,0-13.885-4.157-13.885-9.267s6.229-9.267,13.885-9.267c7.657,0,13.886,4.157,13.886,9.267
				S88.699,79.38,81.042,79.38z M81.042,61.191c-7.467,0-13.542,4.002-13.542,8.923c0,4.92,6.075,8.923,13.542,8.923
				s13.542-4.003,13.542-8.923C94.584,65.193,88.509,61.191,81.042,61.191z"/>
		</g>
		<g>
			<path d="M73.844,62.372c2.867,7.917,0,15.484,0,15.484s0,0,2.867,0.889c2.738-8.262,0-17.263,0-17.263
				S76.711,61.482,73.844,62.372z"/>
		</g>
		<g>
			<path d="M80.126,61.019c0,0,1.935,10.232,0,18.168c3.011-0.084,3.011-0.084,3.011-0.084s1.753-8.778,0-18.084
				C80.126,61.019,80.126,61.019,80.126,61.019z"/>
		</g>
		<g>
			<path d="M86.513,61.772c0,0,1.742,8.981,0,16.684c2.888-1.132,2.888-1.132,2.888-1.132s1.438-7.291,0-14.419
				C86.513,61.772,86.513,61.772,86.513,61.772z"/>
		</g>
		<g>
			<polygon points="94.756,68.645 96.961,69.758 94.756,70.87 			"/>
		</g>
		<g>
			<circle cx="71.757" cy="67.072" r="0.895"/>
		</g>
		<g>
			<circle cx="71.757" cy="59.509" r="0.895"/>
		</g>
		<g>
			<path fill="#FFFFFF" d="M89.401,62.904c0,0,3.399-8.579-2.888-8.579c-6.288,0-4.492,6.694-4.492,6.694
				S87.056,61.379,89.401,62.904z"/>
			<path d="M89.468,63.114l-0.143-0.093c-2.29-1.489-7.264-1.86-7.314-1.863l-0.099-0.007l-0.026-0.096
				c-0.009-0.033-0.217-0.82-0.24-1.864c-0.031-1.392,0.292-2.567,0.931-3.401c0.816-1.064,2.14-1.604,3.936-1.604
				c1.504,0,2.597,0.485,3.247,1.441c0.704,1.037,0.879,2.589,0.518,4.612c-0.266,1.493-0.742,2.704-0.747,2.716L89.468,63.114z
				 M82.133,60.888c0.729,0.06,4.961,0.456,7.197,1.808c0.304-0.84,1.622-4.819,0.199-6.912c-0.595-0.875-1.61-1.319-3.016-1.319
				c-1.705,0-2.954,0.502-3.714,1.493c-0.758,0.987-0.894,2.296-0.874,3.22C81.942,59.986,82.078,60.649,82.133,60.888z"/>
		</g>
		<g>
			<path d="M74.964,62.015c-0.228-0.949-0.832-1.635-1.797-2.039c-0.731-0.306-1.407-0.327-1.414-0.327l0.007-0.278
				c0.029,0,2.88,0.098,3.474,2.579L74.964,62.015z"/>
		</g>
	</g>
	<g opacity="0.5">
		<g>
			<path fill="#FFFFFF" d="M307.741,172.354c0,0-3.662-8.47-8.107-4.023c-4.447,4.446,1.557,7.909,1.557,7.909
				S305.005,172.934,307.741,172.354z"/>
			<path d="M307.771,172.49c-2.67,0.565-6.451,3.821-6.488,3.854l-0.075,0.065l-0.086-0.049c-0.03-0.017-0.733-0.426-1.487-1.148
				c-1.007-0.962-1.611-2.021-1.748-3.063c-0.176-1.329,0.379-2.647,1.648-3.917c1.064-1.064,2.18-1.493,3.316-1.276
				c1.23,0.234,2.451,1.208,3.627,2.894c0.867,1.244,1.387,2.437,1.393,2.449l0.066,0.157L307.771,172.49z M298.161,172.11
				c0.162,1.234,0.992,2.256,1.659,2.895c0.583,0.56,1.149,0.933,1.356,1.062c0.254-0.214,1.105-0.92,2.184-1.668
				c1.65-1.146,3.057-1.866,4.184-2.143c-0.379-0.808-2.26-4.554-4.746-5.028c-1.04-0.198-2.071,0.206-3.066,1.201
				C298.526,169.633,297.999,170.872,298.161,172.11z"/>
		</g>
		<g>
			
				<ellipse transform="matrix(-0.7071 0.7071 -0.7071 -0.7071 656.1639 88.8564)" fill="#F4E398" cx="309.679" cy="180.324" rx="13.713" ry="9.095"/>
			<path d="M299.861,190.143c-3.613-3.613-2.147-10.957,3.267-16.371c5.413-5.414,12.758-6.879,16.37-3.266
				c3.612,3.613,2.147,10.957-3.266,16.371C310.818,192.291,303.474,193.755,299.861,190.143z M300.104,189.9
				c3.479,3.479,10.605,2.013,15.885-3.267s6.745-12.406,3.266-15.885c-3.479-3.479-10.604-2.014-15.885,3.266
				C298.091,179.294,296.625,186.42,300.104,189.9z"/>
		</g>
		<g>
			<path d="M309.296,169.76c3.57,7.626,10.948,10.949,10.948,10.949s0,0-1.398,2.656c-7.778-3.906-12.206-12.207-12.206-12.207
				S306.64,171.158,309.296,169.76z"/>
		</g>
		<g>
			<path d="M303.896,173.246c0,0,5.866,8.603,12.847,12.847c-2.188,2.07-2.188,2.07-2.188,2.07s-7.447-4.967-12.788-12.788
				C303.896,173.246,303.896,173.246,303.896,173.246z"/>
		</g>
		<g>
			<path d="M299.913,178.294c0,0,5.118,7.583,11.797,11.797c-2.844,1.242-2.844,1.242-2.844,1.242s-6.172-4.139-10.195-10.196
				C299.913,178.294,299.913,178.294,299.913,178.294z"/>
		</g>
		<g>
			<polygon points="298.944,188.982 298.172,191.329 300.517,190.556 			"/>
		</g>
		<g>
			<circle cx="314.095" cy="171.608" r="0.895"/>
		</g>
		<g>
			<circle cx="308.747" cy="166.26" r="0.895"/>
		</g>
		<g>
			<path fill="#FFFFFF" d="M298.671,181.137c0,0-8.471-3.663-4.023-8.109c4.445-4.446,7.908,1.557,7.908,1.557
				S299.251,178.4,298.671,181.137z"/>
			<path d="M298.615,181.265c-0.012-0.005-1.204-0.525-2.448-1.393c-1.686-1.175-2.66-2.396-2.896-3.627
				c-0.216-1.137,0.214-2.252,1.276-3.315c1.271-1.27,2.588-1.825,3.918-1.649c1.041,0.138,2.101,0.741,3.062,1.747
				c0.723,0.754,1.131,1.458,1.148,1.488l0.05,0.086l-0.064,0.075c-0.034,0.038-3.289,3.818-3.854,6.489l-0.035,0.167
				L298.615,181.265z M301.322,173.216c-0.64-0.667-1.661-1.497-2.895-1.659c-1.238-0.163-2.477,0.365-3.683,1.571
				c-0.994,0.994-1.398,2.026-1.199,3.065c0.475,2.486,4.219,4.368,5.027,4.747c0.625-2.538,3.338-5.81,3.812-6.368
				C302.255,174.364,301.882,173.799,301.322,173.216z"/>
		</g>
		<g>
			<path d="M308.251,170.299c-0.51-0.832-0.568-1.745-0.172-2.712c0.302-0.733,0.765-1.226,0.77-1.23l-0.203-0.192
				c-0.02,0.021-1.967,2.106-0.633,4.28L308.251,170.299z"/>
		</g>
	</g>
	<g opacity="0.5">
		<g>
			<path fill="#FFFFFF" d="M180.924,295.673c0,0-7.893-3.127-7.893,2.658c0,5.785,9.137,5.765,9.137,5.765
				S184.718,299.462,180.924,295.673z"/>
			<path d="M182.167,304.224c-0.096,0-2.376-0.009-4.652-0.733c-3.017-0.962-4.611-2.746-4.611-5.16c0-2.375,1.329-3.63,3.844-3.63
				c2.048,0,4.203,0.845,4.224,0.853l0.025,0.01l0.019,0.019c1.995,1.993,2.233,4.219,2.083,5.735
				c-0.165,1.64-0.79,2.792-0.816,2.839l-0.037,0.066H182.167z M176.747,294.958c-2.381,0-3.587,1.135-3.587,3.373
				c0,2.324,1.492,3.977,4.433,4.916c2.037,0.648,4.076,0.714,4.499,0.72c0.134-0.268,0.617-1.312,0.751-2.683
				c0.209-2.113-0.46-3.963-1.99-5.5C180.611,295.691,178.628,294.958,176.747,294.958z"/>
		</g>
		<g>
			<path fill="#FFFFFF" d="M195.473,295.673c0,0,7.893-3.127,7.893,2.658c0,5.785-9.137,5.765-9.137,5.765
				S191.679,299.462,195.473,295.673z"/>
			<path d="M194.23,304.224h-0.077l-0.037-0.066c-0.027-0.048-0.652-1.2-0.816-2.839c-0.151-1.516,0.086-3.743,2.082-5.735
				l0.019-0.019l0.024-0.01c0.022-0.008,2.178-0.853,4.225-0.853c2.514,0,3.844,1.255,3.844,3.63c0,2.414-1.595,4.197-4.611,5.16
				C196.606,304.215,194.326,304.224,194.23,304.224z M195.544,295.783c-1.529,1.537-2.199,3.387-1.99,5.5
				c0.136,1.372,0.618,2.416,0.751,2.683c0.423-0.006,2.462-0.072,4.499-0.72c2.941-0.938,4.432-2.592,4.432-4.916
				c0-2.238-1.207-3.373-3.587-3.373C197.767,294.958,195.786,295.691,195.544,295.783z"/>
		</g>
		<g>
			<ellipse fill="#F4E398" cx="188.217" cy="302.22" rx="8.367" ry="12.616"/>
			<path d="M188.217,314.996c-4.701,0-8.526-5.731-8.526-12.775s3.825-12.775,8.526-12.775c4.701,0,8.525,5.731,8.525,12.775
				S192.918,314.996,188.217,314.996z M188.217,289.762c-4.526,0-8.208,5.588-8.208,12.458s3.682,12.458,8.208,12.458
				s8.209-5.588,8.209-12.458S192.744,289.762,188.217,289.762z"/>
		</g>
		<g>
			<path d="M195.34,295.598c-7.284,2.637-14.245,0-14.245,0s0,0-0.818,2.637c7.601,2.519,15.882,0,15.882,0
				S196.158,298.235,195.34,295.598z"/>
		</g>
		<g>
			<path d="M196.584,301.378c0,0-9.413,1.78-16.715,0c0.079,2.77,0.079,2.77,0.079,2.77s8.075,1.613,16.637,0
				C196.584,301.378,196.584,301.378,196.584,301.378z"/>
		</g>
		<g>
			<path d="M195.891,307.253c0,0-8.262,1.603-15.348,0c1.041,2.657,1.041,2.657,1.041,2.657s6.708,1.323,13.267,0
				C195.891,307.253,195.891,307.253,195.891,307.253z"/>
		</g>
		<g>
			<polygon points="189.569,314.836 188.545,316.866 187.521,314.836 			"/>
		</g>
		<g>
			<circle cx="190.874" cy="292.501" r="0.823"/>
		</g>
		<g>
			<circle cx="185.56" cy="292.501" r="0.823"/>
		</g>
		<g>
			<circle cx="183.409" cy="287.741" r="0.823"/>
		</g>
		<g>
			<path d="M186.358,290.045c-0.209-0.874-0.765-1.504-1.653-1.875c-0.673-0.282-1.294-0.301-1.3-0.301l0.006-0.256
				c0.027,0,2.65,0.09,3.197,2.373L186.358,290.045z"/>
		</g>
		<g>
			<circle cx="193.125" cy="287.753" r="0.824"/>
		</g>
		<g>
			<path d="M190.176,290.057l-0.25-0.06c0.547-2.282,3.17-2.372,3.197-2.373l0.007,0.256c-0.007,0-0.628,0.02-1.3,0.301
				C190.941,288.554,190.384,289.185,190.176,290.057z"/>
		</g>
	</g>
</g>
</svg>
