<?xml version="1.0" encoding="utf-8"?>
<!-- Generator: Adobe Illustrator 16.0.0, SVG Export Plug-In . SVG Version: 6.00 Build 0)  -->
<!DOCTYPE svg PUBLIC "-//W3C//DTD SVG 1.1//EN" "http://www.w3.org/Graphics/SVG/1.1/DTD/svg11.dtd">
<svg version="1.1" id="Layer_1" xmlns="http://www.w3.org/2000/svg" xmlns:xlink="http://www.w3.org/1999/xlink" x="0px" y="0px"
	 width="320px" height="51px" viewBox="91 14.5 320 51" enable-background="new 91 14.5 320 51" xml:space="preserve">
<polygon fill="#FBB03B" points="100.924,48.522 91,31.544 100.924,14.566 120.772,14.566 130.696,31.544 120.772,48.522 "/>
<polygon fill="#FBB03B" points="132.048,65.5 122.124,48.522 132.048,31.544 151.896,31.544 161.819,48.522 151.896,65.5 "/>
<polygon fill="#FBB03B" points="163.171,48.457 153.248,31.478 163.171,14.5 183.019,14.5 192.943,31.478 183.019,48.457 "/>
<polygon fill="#FBB03B" points="194.295,65.434 184.372,48.457 194.295,31.478 214.144,31.478 224.068,48.457 214.144,65.434 "/>
<polygon fill="#FBB03B" points="225.514,48.522 215.59,31.544 225.514,14.566 245.362,14.566 255.286,31.544 245.362,48.522 "/>
<polygon fill="#FBB03B" points="256.637,65.5 246.714,48.522 256.637,31.544 276.485,31.544 286.409,48.522 276.485,65.5 "/>
<polygon fill="#FBB03B" points="287.761,48.457 277.838,31.478 287.761,14.5 307.609,14.5 317.534,31.478 307.609,48.457 "/>
<polygon fill="#FBB03B" points="318.886,65.434 308.961,48.457 318.886,31.478 338.733,31.478 348.658,48.457 338.733,65.434 "/>
<polygon fill="#FBB03B" points="350.104,48.457 340.18,31.478 350.104,14.5 369.952,14.5 379.876,31.478 369.952,48.457 "/>
<polygon fill="#FBB03B" points="381.228,65.434 371.303,48.457 381.228,31.478 401.075,31.478 411,48.457 401.075,65.434 "/>
<g>
	<polyline fill="none" stroke="#000000" stroke-width="1.4386" stroke-miterlimit="10" points="231.51,44.979 227.564,38.229 
		231.51,31.478 239.403,31.478 243.349,38.229 239.403,44.979 	"/>
	<polyline fill="none" stroke="#000000" stroke-width="1.4386" stroke-miterlimit="10" points="243.311,24.884 239.365,31.635 
		231.473,31.635 227.527,24.884 231.473,18.134 	"/>
	<path fill="none" stroke="#000000" stroke-width="1.4386" stroke-miterlimit="10" d="M239.365,18.134"/>
	<path fill="none" stroke="#000000" stroke-width="1.4386" stroke-miterlimit="10" d="M227.64,38.229"/>
	<path fill="none" stroke="#000000" stroke-width="1.4386" stroke-miterlimit="10" d="M227.603,24.884"/>
</g>
<g>
	<polygon fill="none" stroke="#000000" stroke-width="1.4386" stroke-miterlimit="10" points="167.177,38.307 163.231,31.556 
		167.177,24.806 175.068,24.806 179.014,31.556 175.068,38.307 	"/>
	
		<line fill="none" stroke="#000000" stroke-width="1.4386" stroke-miterlimit="10" x1="182.96" y1="38.307" x2="179.014" y2="31.556"/>
</g>
<g>
	<polyline fill="none" stroke="#000000" stroke-width="1.4386" stroke-miterlimit="10" points="210.156,61.879 202.265,61.879 
		198.32,55.128 202.265,48.378 210.156,48.378 	"/>
	<polyline fill="none" stroke="#000000" stroke-width="1.4386" stroke-miterlimit="10" points="210.12,48.535 202.227,48.535 
		198.281,41.784 202.227,35.033 	"/>
	<path fill="none" stroke="#000000" stroke-width="1.4386" stroke-miterlimit="10" d="M204.385,61.879"/>
	<path fill="none" stroke="#000000" stroke-width="1.4386" stroke-miterlimit="10" d="M204.385,48.378"/>
</g>
<g>
	<polygon fill="none" stroke="#000000" stroke-width="1.4386" stroke-miterlimit="10" points="106.921,44.9 102.975,38.151 
		106.921,31.399 114.812,31.399 118.758,38.151 114.812,44.9 	"/>
	<polyline fill="none" stroke="#000000" stroke-width="1.4386" stroke-miterlimit="10" points="114.775,31.556 106.883,31.556 
		102.938,24.807 106.883,18.056 	"/>
</g>
<g>
	<polyline fill="none" stroke="#000000" stroke-width="1.4386" stroke-miterlimit="10" points="149.459,49.494 145.513,42.743 
		137.621,42.743 133.675,49.494 137.621,56.244 145.513,56.244 	"/>
	<path fill="none" stroke="#000000" stroke-width="1.4386" stroke-miterlimit="10" d="M133.675,49.494"/>
	<polygon points="134.136,50.215 133.675,49.438 134.136,48.66 149.808,48.66 150.268,49.438 149.808,50.215 	"/>
</g>
<g>
	<polyline fill="none" stroke="#000000" stroke-width="1.4386" stroke-miterlimit="10" points="273.992,49.558 270.045,42.807 
		262.154,42.807 258.209,49.558 262.154,56.308 270.045,56.308 	"/>
	<path fill="none" stroke="#000000" stroke-width="1.4386" stroke-miterlimit="10" d="M258.209,49.558"/>
	<polygon points="258.668,50.278 258.209,49.502 258.668,48.725 274.341,48.725 274.801,49.502 274.341,50.278 	"/>
</g>
<g>
	<polyline fill="none" stroke="#000000" stroke-width="1.4386" stroke-miterlimit="10" points="305.172,31.399 301.227,24.649 
		293.336,24.649 289.389,31.399 293.336,38.151 301.227,38.151 	"/>
	<path fill="none" stroke="#000000" stroke-width="1.4386" stroke-miterlimit="10" d="M289.389,31.399"/>
	<polygon points="289.85,32.121 289.389,31.343 289.85,30.567 305.522,30.567 305.982,31.343 305.522,32.121 	"/>
</g>
<g>
	<polyline fill="none" stroke="#000000" stroke-width="1.4386" stroke-miterlimit="10" points="367.516,31.344 363.569,24.594 
		355.677,24.594 351.732,31.344 355.677,38.094 363.569,38.094 	"/>
	<path fill="none" stroke="#000000" stroke-width="1.4386" stroke-miterlimit="10" d="M351.732,31.344"/>
	<polygon points="352.192,32.065 351.732,31.287 352.192,30.511 367.864,30.511 368.324,31.287 367.864,32.065 	"/>
</g>
<g>
	<polyline fill="none" stroke="#000000" stroke-width="1.4386" stroke-miterlimit="10" points="389.179,56.308 385.233,49.558 
		389.179,42.807 397.07,42.807 	"/>
	<path fill="none" stroke="#000000" stroke-width="1.4386" stroke-miterlimit="10" d="M397.07,56.308"/>
</g>
<path fill="none" stroke="#000000" stroke-width="5" stroke-miterlimit="10" d="M549.382,220.923"/>
<g>
	<polygon fill="none" stroke="#000000" stroke-width="1.4386" stroke-miterlimit="10" points="324.959,48.708 321.013,41.956 
		324.959,35.206 332.85,35.206 336.796,41.956 332.85,48.708 	"/>
	<polyline fill="none" stroke="#000000" stroke-width="1.4386" stroke-miterlimit="10" points="324.959,62.243 321.013,55.492 
		324.959,48.74 332.85,48.74 	"/>
	<path fill="none" stroke="#000000" stroke-width="1.7274" stroke-miterlimit="10" d="M325.024,62.243"/>
	<path fill="none" stroke="#000000" stroke-width="1.4386" stroke-miterlimit="10" d="M336.796,55.492"/>
</g>
</svg>
