<?xml version="1.0" encoding="utf-8"?>
<!-- Generator: Adobe Illustrator 16.0.0, SVG Export Plug-In . SVG Version: 6.00 Build 0)  -->
<!DOCTYPE svg PUBLIC "-//W3C//DTD SVG 1.1//EN" "http://www.w3.org/Graphics/SVG/1.1/DTD/svg11.dtd">
<svg version="1.1" id="Layer_1" xmlns="http://www.w3.org/2000/svg" xmlns:xlink="http://www.w3.org/1999/xlink" x="0px" y="0px"
	 width="502px" height="80px" viewBox="0 0 502 80" enable-background="new 0 0 502 80" xml:space="preserve">
<polygon fill="#FBB03B" points="15.568,53.368 0,26.736 15.568,0.104 46.705,0.104 62.273,26.736 46.705,53.368 "/>
<polygon fill="#FBB03B" points="64.394,80 48.826,53.368 64.394,26.736 95.53,26.736 111.098,53.368 95.53,80 "/>
<polygon fill="#FBB03B" points="113.219,53.265 97.651,26.632 113.219,0 144.355,0 159.924,26.632 144.355,53.265 "/>
<polygon fill="#FBB03B" points="162.044,79.897 146.477,53.265 162.044,26.632 193.181,26.632 208.75,53.265 193.181,79.897 "/>
<polygon fill="#FBB03B" points="211.019,53.368 195.451,26.736 211.019,0.104 242.155,0.104 257.724,26.736 242.155,53.368 "/>
<polygon fill="#FBB03B" points="259.843,80 244.276,53.368 259.843,26.736 290.981,26.736 306.549,53.368 290.981,80 "/>
<polygon fill="#FBB03B" points="308.669,53.265 293.102,26.632 308.669,0 339.806,0 355.375,26.632 339.806,53.265 "/>
<polygon fill="#FBB03B" points="357.495,79.897 341.927,53.265 357.495,26.632 388.632,26.632 404.201,53.265 388.632,79.897 "/>
<polygon fill="#FBB03B" points="406.469,53.265 390.901,26.632 406.469,0 437.606,0 453.174,26.632 437.606,53.265 "/>
<polygon fill="#FBB03B" points="455.294,79.897 439.726,53.265 455.294,26.632 486.431,26.632 502,53.265 486.431,79.897 "/>
<g>
	<polyline fill="none" stroke="#000000" stroke-width="2.2567" stroke-miterlimit="10" points="220.426,47.811 214.236,37.222 
		220.426,26.632 232.807,26.632 238.997,37.222 232.807,47.811 	"/>
	<polyline fill="none" stroke="#000000" stroke-width="2.2567" stroke-miterlimit="10" points="238.937,16.289 232.748,26.878 
		220.367,26.878 214.177,16.289 220.367,5.7 	"/>
	<path fill="none" stroke="#000000" stroke-width="2.2567" stroke-miterlimit="10" d="M232.748,5.7"/>
	<path fill="none" stroke="#000000" stroke-width="2.2567" stroke-miterlimit="10" d="M214.354,37.222"/>
	<path fill="none" stroke="#000000" stroke-width="2.2567" stroke-miterlimit="10" d="M214.295,16.289"/>
</g>
<g>
	<polygon fill="none" stroke="#000000" stroke-width="2.2567" stroke-miterlimit="10" points="119.502,37.344 113.312,26.755 
		119.502,16.166 131.882,16.166 138.072,26.755 131.882,37.344 	"/>
	
		<line fill="none" stroke="#000000" stroke-width="2.2567" stroke-miterlimit="10" x1="144.262" y1="37.344" x2="138.072" y2="26.755"/>
</g>
<g>
	<polyline fill="none" stroke="#000000" stroke-width="2.2567" stroke-miterlimit="10" points="186.927,74.32 174.547,74.32 
		168.358,63.731 174.547,53.142 186.927,53.142 	"/>
	<polyline fill="none" stroke="#000000" stroke-width="2.2567" stroke-miterlimit="10" points="186.869,53.388 174.488,53.388 
		168.298,42.799 174.488,32.209 	"/>
	<path fill="none" stroke="#000000" stroke-width="2.2567" stroke-miterlimit="10" d="M177.873,74.32"/>
	<path fill="none" stroke="#000000" stroke-width="2.2567" stroke-miterlimit="10" d="M177.873,53.142"/>
</g>
<g>
	<polygon fill="none" stroke="#000000" stroke-width="2.2567" stroke-miterlimit="10" points="24.976,47.688 18.786,37.099 
		24.976,26.509 37.355,26.509 43.546,37.099 37.355,47.688 	"/>
	<polyline fill="none" stroke="#000000" stroke-width="2.2567" stroke-miterlimit="10" points="37.297,26.755 24.917,26.755 
		18.727,16.167 24.917,5.577 	"/>
</g>
<g>
	<polyline fill="none" stroke="#000000" stroke-width="2.2567" stroke-miterlimit="10" points="91.708,54.892 85.517,44.303 
		73.137,44.303 66.947,54.892 73.137,65.481 85.517,65.481 	"/>
	<path fill="none" stroke="#000000" stroke-width="2.2567" stroke-miterlimit="10" d="M66.947,54.892"/>
	<polygon points="67.669,56.023 66.947,54.804 67.669,53.585 92.255,53.585 92.977,54.804 92.255,56.023 	"/>
</g>
<g>
	<polyline fill="none" stroke="#000000" stroke-width="2.2567" stroke-miterlimit="10" points="287.068,54.992 280.877,44.402 
		268.498,44.402 262.308,54.992 268.498,65.581 280.877,65.581 	"/>
	<path fill="none" stroke="#000000" stroke-width="2.2567" stroke-miterlimit="10" d="M262.308,54.992"/>
	<polygon points="263.03,56.123 262.308,54.904 263.03,53.685 287.616,53.685 288.337,54.904 287.616,56.123 	"/>
</g>
<g>
	<polyline fill="none" stroke="#000000" stroke-width="2.2567" stroke-miterlimit="10" points="335.983,26.509 329.793,15.92 
		317.414,15.92 311.223,26.509 317.414,37.099 329.793,37.099 	"/>
	<path fill="none" stroke="#000000" stroke-width="2.2567" stroke-miterlimit="10" d="M311.223,26.509"/>
	<polygon points="311.946,27.641 311.223,26.421 311.946,25.203 336.532,25.203 337.253,26.421 336.532,27.641 	"/>
</g>
<g>
	<polyline fill="none" stroke="#000000" stroke-width="2.2567" stroke-miterlimit="10" points="433.783,26.422 427.593,15.833 
		415.212,15.833 409.023,26.422 415.212,37.011 427.593,37.011 	"/>
	<path fill="none" stroke="#000000" stroke-width="2.2567" stroke-miterlimit="10" d="M409.023,26.422"/>
	<polygon points="409.745,27.553 409.023,26.333 409.745,25.115 434.331,25.115 435.052,26.333 434.331,27.553 	"/>
</g>
<g>
	<polyline fill="none" stroke="#000000" stroke-width="2.2567" stroke-miterlimit="10" points="467.768,65.581 461.578,54.992 
		467.768,44.402 480.148,44.402 	"/>
	<path fill="none" stroke="#000000" stroke-width="2.2567" stroke-miterlimit="10" d="M480.148,65.581"/>
</g>
<path fill="none" stroke="#000000" stroke-width="5" stroke-miterlimit="10" d="M549.382,220.923"/>
<g>
	<polygon fill="none" stroke="#000000" stroke-width="2.2567" stroke-miterlimit="10" points="367.023,53.659 360.833,43.069 
		367.023,32.48 379.403,32.48 385.593,43.069 379.403,53.659 	"/>
	<polyline fill="none" stroke="#000000" stroke-width="2.2567" stroke-miterlimit="10" points="367.023,74.89 360.833,64.301 
		367.023,53.711 379.403,53.711 	"/>
	<path fill="none" stroke="#000000" stroke-width="2.7097" stroke-miterlimit="10" d="M367.126,74.89"/>
	<path fill="none" stroke="#000000" stroke-width="2.2567" stroke-miterlimit="10" d="M385.593,64.301"/>
</g>
</svg>
