<?xml version="1.0" encoding="utf-8"?>
<!-- Generator: Adobe Illustrator 16.0.0, SVG Export Plug-In . SVG Version: 6.00 Build 0)  -->
<!DOCTYPE svg PUBLIC "-//W3C//DTD SVG 1.1//EN" "http://www.w3.org/Graphics/SVG/1.1/DTD/svg11.dtd">
<svg version="1.1" id="lines" xmlns="http://www.w3.org/2000/svg" xmlns:xlink="http://www.w3.org/1999/xlink" x="0px" y="0px"
	 width="180.136px" height="400.136px" viewBox="0 0 180.136 400.136" enable-background="new 0 0 180.136 400.136"
	 xml:space="preserve">
<g>
	<g id="XMLID_3_">
		<g>
			<path d="M178.003,134.394c1.094,0.838,2.802,2.985,1.719,5.331c-4.163,11.017-8.485,13.812-8.67,13.926
				c-0.926,0.548-9.044,5.302-11.112,5.12c-1.871-0.168-6.454-2.53-7.407-3.029c-0.828,0.312-4.23,1.418-7.478-0.078
				c-2.626-1.21-4.958-4.182-6.082-5.787l-0.868,20.478l-0.405-0.014l0.014-0.403l0.907-21.332l0.407,0.02l0.005-0.125
				c0.459,0.724,3.264,4.997,6.364,6.426c3.315,1.529,6.965,0.012,7-0.005l0.179-0.076l0.174,0.093
				c0.052,0.026,5.379,2.854,7.264,3.025c1.368,0.131,7.1-2.926,10.618-5.005c0.033-0.022,4.285-2.81,8.336-13.533l0.011-0.027
				c1.107-2.375-1.398-4.303-1.504-4.385l-0.073-0.07l-3.137-3.869l-0.021-0.093c-1.406-6.146-6.904-12.044-6.959-12.102
				l-0.057-0.075l-0.706-1.212c0.114-0.627,0.182-1.028,0.192-1.093l0.093-0.035l1.103,1.893c0.505,0.542,5.661,6.206,7.105,12.351
				L178.003,134.394z"/>
			<path fill="#FFFFFF" d="M177.474,135.012c0.105,0.082,2.611,2.01,1.504,4.385l-0.011,0.027
				c-4.051,10.724-8.303,13.511-8.336,13.533c-3.519,2.079-9.25,5.136-10.618,5.005c-1.885-0.171-7.212-2.999-7.264-3.025
				l-0.174-0.093l-0.179,0.076c-0.035,0.017-3.685,1.534-7,0.005c-3.101-1.429-5.905-5.702-6.364-6.426l1.562-35.89h4.211
				c0.267,0.252,0.576,0.447,0.853,0.591c-0.557,0.404-1.257,1.068-1.379,1.906c-0.021,0.144-0.024,0.285-0.011,0.423
				c-0.348-0.078-0.769-0.103-1.271-0.032l-0.076,0.011l-0.068,0.038c-0.744,0.42-1.165,0.952-1.249,1.578
				c-0.125,0.93,0.565,1.703,0.692,1.833c0.071,0.09,0.392,0.469,1.008,1.044c-0.282,0.577-0.535,1.885,0.847,4.203
				c1.613,2.703,6.123,3.788,7.383,4.043c0.003,0.029,0.005,0.062,0.011,0.098c0.079,0.704,0.388,2.145,1.574,3.654l0.044,0.055
				l0.057,0.038c1.179,0.745,2.433,0.995,3.582,0.995c2.204,0,4.018-0.917,4.129-0.974c0.071-0.035,1.79-0.93,3.186-4.696
				c1.053-2.836,2.006-7.665,2.405-9.826l0.706,1.212l0.057,0.075c0.055,0.058,5.553,5.955,6.959,12.102l0.021,0.093l3.137,3.869
				L177.474,135.012z"/>
			<path d="M165.834,110.581c1.856,3.625,1.347,5.279,0.972,5.882l-0.093,0.035l-0.801-0.136c0,0.005-0.011,0.057-0.024,0.146
				l-0.095-0.163l0.252-0.223c0.003-0.002,1.13-1.203-0.999-5.292l-0.064-0.128l0.026-0.139c0.636-3.175-1.077-4.501-1.263-4.634
				l-4.396-2.389c-0.098-0.084-1.013-0.808-1.8-0.021l-0.369,0.371l-0.104-0.171c0.19-0.062,0.299-0.095,0.305-0.098l-0.239-0.78
				l0.228-0.215c0.953-0.596,1.988-0.133,2.477,0.266l4.339,2.352C164.284,105.31,166.521,106.848,165.834,110.581z"/>
			<path d="M165.913,116.362l0.801,0.136c-0.011,0.064-0.078,0.466-0.192,1.093l-0.633-1.082
				C165.902,116.419,165.913,116.367,165.913,116.362z"/>
			<path d="M165.888,116.509l0.633,1.082c-0.399,2.161-1.353,6.99-2.405,9.826c-1.396,3.767-3.114,4.661-3.186,4.696
				c-0.111,0.057-1.925,0.974-4.129,0.974c-1.149,0-2.403-0.25-3.582-0.995l-0.057-0.038l-0.044-0.055
				c-1.187-1.51-1.495-2.95-1.574-3.654l0.334-0.033c0.041,0.006,0.215,0.021,0.488,0.038c0.087,0.618,0.375,1.828,1.35,3.094
				c3.038,1.868,6.807-0.035,6.845-0.057c0.017-0.008,1.523-0.83,2.791-4.252C164.574,123.835,165.704,117.544,165.888,116.509z"/>
			<path fill="#FFFFFF" d="M165.046,110.831c2.129,4.089,1.002,5.29,0.999,5.292l-0.252,0.223l0.095,0.163
				c-0.185,1.035-1.314,7.326-2.536,10.626c-1.268,3.422-2.774,4.244-2.791,4.252c-0.038,0.021-3.807,1.925-6.845,0.057
				c-0.975-1.266-1.263-2.476-1.35-3.094c0.264,0.017,0.625,0.032,1.051,0.032c2.072,0,5.713-0.35,7.641-2.605l-0.619-0.528
				c-2.362,2.763-7.969,2.302-8.438,2.259c-0.019-0.003-0.03-0.003-0.032-0.003c-0.402-0.073-5.525-1.047-7.116-3.718
				c-1.019-1.705-1.014-2.711-0.889-3.202c0.608,0.516,1.398,1.122,2.39,1.776l0.07,0.038c3.799,1.551,6.889,2.015,9.227,2.015
				c3.361,0,5.169-0.96,5.294-1.031l-0.394-0.71c-0.046,0.024-4.9,2.601-13.782-1.012c-2.68-1.778-3.836-3.21-3.847-3.224
				l-0.033-0.035c-0.005-0.006-0.559-0.575-0.478-1.172c0.049-0.344,0.31-0.658,0.776-0.938c0.787-0.096,1.266,0.11,1.531,0.309
				c0.106,0.136,0.229,0.266,0.367,0.396c1.153,1.079,5.712,1.345,9.926,1.345c3.617,0,6.979-0.195,7.709-0.241l-0.052-0.812
				c-10.921,0.679-16.106-0.133-16.994-0.859c-0.06-0.089-0.177-0.241-0.364-0.398c-0.189-0.271-0.263-0.537-0.225-0.806
				c0.108-0.767,1.118-1.456,1.574-1.699c0.744-0.079,5.987-0.665,9.378-1.82c3.443-1.174,6.274-0.933,6.302-0.93l0.076-0.808
				c-0.122-0.014-3.024-0.266-6.644,0.968c-3.256,1.111-8.472,1.703-9.193,1.781c-0.055-0.019-0.12-0.043-0.193-0.073
				c-0.32-0.133-0.792-0.377-1.113-0.719c-0.26-0.279-0.377-0.569-0.363-0.892c0.027-0.564,0.48-1.25,1.312-1.985
				c0.822-0.724,1.936-1.467,3.317-2.204l-0.189-0.355l0.192,0.355c3.022-1.619,6.503-2.793,7.537-3.124l0.104,0.171l0.369-0.371
				c0.787-0.786,1.702-0.062,1.8,0.021l4.396,2.389c0.186,0.133,1.898,1.459,1.263,4.634l-0.026,0.139L165.046,110.831z"/>
			<path d="M162.668,117.289l0.052,0.812c-0.73,0.046-4.092,0.241-7.709,0.241c-4.214,0-8.772-0.266-9.926-1.345
				c-0.139-0.131-0.261-0.261-0.367-0.396c0.195,0.142,0.28,0.282,0.285,0.296l0.72-0.385c-0.003-0.009-0.019-0.038-0.049-0.082
				C146.562,117.156,151.748,117.968,162.668,117.289z"/>
			<path d="M162.416,109.969l-0.076,0.808c-0.027-0.003-2.858-0.244-6.302,0.93c-3.391,1.155-8.634,1.741-9.378,1.82
				c0.021-0.014,0.044-0.022,0.062-0.033l-0.366-0.727l0.029-0.122c0.073,0.03,0.139,0.055,0.193,0.073
				c0.722-0.078,5.938-0.67,9.193-1.781C159.391,109.703,162.293,109.955,162.416,109.969z"/>
			<path d="M160.439,125.248l0.619,0.528c-1.928,2.256-5.568,2.605-7.641,2.605c-0.426,0-0.787-0.016-1.051-0.032
				c-0.035-0.269-0.035-0.426-0.035-0.431l0.009-0.353l-0.34-0.06C152.47,127.55,158.077,128.011,160.439,125.248z"/>
			<path d="M160.55,122.672l0.394,0.71c-0.125,0.071-1.933,1.031-5.294,1.031c-2.338,0-5.428-0.464-9.227-2.015l-0.07-0.038
				c-0.991-0.654-1.781-1.261-2.39-1.776c0.065-0.258,0.163-0.374,0.166-0.377l-0.587-0.564c-0.035,0.036-0.138,0.149-0.238,0.358
				c-0.616-0.575-0.937-0.954-1.008-1.044c-0.127-0.13-0.817-0.903-0.692-1.833c0.084-0.626,0.505-1.158,1.249-1.578l0.068-0.038
				l0.076-0.011c0.502-0.07,0.923-0.046,1.271,0.032c0.032,0.369,0.185,0.728,0.45,1.071c-0.266-0.198-0.744-0.404-1.531-0.309
				c-0.467,0.279-0.728,0.594-0.776,0.938c-0.081,0.597,0.473,1.166,0.478,1.172l0.033,0.035c0.011,0.014,1.167,1.445,3.847,3.224
				C155.65,125.272,160.504,122.696,160.55,122.672z"/>
			<path d="M157.143,102.843l0.239,0.78c-0.006,0.003-0.114,0.035-0.305,0.098l-0.165-0.279c-0.087-0.144-0.174-0.29-0.27-0.438
				C156.956,102.899,157.134,102.846,157.143,102.843z"/>
			<path d="M157.371,102.628l-0.228,0.215c-0.009,0.003-0.188,0.057-0.5,0.16c-3.529-5.651-11.618-13.512-11.699-13.591l-0.06-0.073
				c-2.259-3.533-9.924-12.389-22.932-20.916c0.024-0.401,0.054-0.646,0.057-0.656l0.128-0.192
				c13.244,8.631,21.074,17.654,23.406,21.288C146.13,89.432,153.917,97.075,157.371,102.628z"/>
			<path d="M156.913,103.441l0.165,0.279c-1.034,0.331-4.515,1.505-7.537,3.124l-0.192-0.355v-0.003l-0.003-0.002v-0.404h-0.098
				c2.896-1.54,6.169-2.674,7.396-3.077C156.739,103.151,156.826,103.298,156.913,103.441z"/>
			<path fill="#FFFFFF" d="M156.643,103.003c-1.227,0.403-4.499,1.537-7.396,3.077H35.704c-2.009-4.081-7.007-7.771-8.376-8.731
				c2.232-3.259,3.777-7.901,3.842-8.102l0.014-0.044c2.216-10.493,18.512-19.596,22.424-21.643
				c-0.608,2.21-1.816,7.88,0.301,11.998c2.606,5.068,11.075,9.721,11.441,9.922c0.062,0.032,6.248,3.248,7.673,7.773
				c0.209,0.662,0.673,1.174,1.379,1.519c0.785,0.385,1.849,0.542,3.071,0.542c5.371,0,13.741-3.047,14.385-3.283
				c0.375-0.092,6.099-1.424,14.354-0.394c0.622,0.076,1.217,0.114,1.79,0.114c7.615-0.003,11.074-6.375,11.112-6.445
				c0.035-0.065,3.44-6.665,3.983-14.924l0.008-0.128l-0.064-0.108c-1.151-1.914-1.16-4.522-1.089-5.724
				c13.008,8.527,20.673,17.383,22.932,20.916l0.06,0.073C145.025,89.491,153.114,97.352,156.643,103.003z"/>
			<path d="M152.367,128.35c-0.273-0.017-0.447-0.032-0.488-0.038l0.09-0.808c0.002,0,0.014,0,0.032,0.003l0.34,0.06l-0.009,0.353
				C152.332,127.924,152.332,128.081,152.367,128.35z"/>
			<path d="M151.968,127.504l-0.09,0.808l-0.334,0.033c-0.006-0.036-0.008-0.068-0.011-0.098c-1.26-0.255-5.77-1.34-7.383-4.043
				c-1.382-2.318-1.129-3.626-0.847-4.203c0.189,0.176,0.41,0.371,0.659,0.583c-0.125,0.491-0.13,1.497,0.889,3.202
				C146.443,126.457,151.566,127.431,151.968,127.504z"/>
			<path d="M149.348,106.489l0.189,0.355c-1.382,0.737-2.495,1.48-3.317,2.204c-0.831,0.735-1.284,1.421-1.312,1.985
				c-0.014,0.322,0.104,0.612,0.363,0.892c0.321,0.342,0.793,0.586,1.113,0.719l-0.029,0.122c-0.03,0.017-0.334,0.168-0.698,0.434
				c-0.276-0.144-0.586-0.339-0.853-0.591h0.169v-0.406v-0.407h-0.294c-0.372-0.699-0.261-1.697,1.271-3.051
				c0.743-0.658,1.667-1.279,2.663-1.852h0.733V106.489z"/>
			<polygon points="149.348,106.486 149.348,106.489 149.345,106.486 			"/>
			<path d="M149.348,106.489v0.404h-0.733c0.239-0.139,0.483-0.273,0.73-0.407L149.348,106.489z"/>
			<path d="M149.345,106.484l-0.19-0.355c0.03-0.017,0.062-0.032,0.093-0.049h0.098V106.484z"/>
			<path d="M149.155,106.129l0.19,0.355l-0.193-0.355c-0.223,0.119-0.437,0.238-0.646,0.357H35.894l-0.079-0.17
				c-0.035-0.079-0.073-0.157-0.111-0.236h113.544C149.217,106.097,149.185,106.112,149.155,106.129z"/>
			<path d="M149.345,106.484v0.002h-0.839c0.209-0.119,0.423-0.238,0.646-0.357L149.345,106.484z"/>
			<path d="M148.506,106.486h0.839c-0.247,0.134-0.491,0.269-0.73,0.407h-0.798C148.037,106.758,148.267,106.622,148.506,106.486z"
				/>
			<path d="M147.817,106.894h0.798c-0.996,0.572-1.92,1.193-2.663,1.852c-1.532,1.354-1.644,2.352-1.271,3.051h-0.447
				c-0.106-0.255-0.149-0.521-0.136-0.8c0.038-0.8,0.569-1.659,1.582-2.555C146.26,107.93,146.975,107.411,147.817,106.894z"/>
			<path d="M35.894,106.486h112.612c-0.239,0.136-0.47,0.271-0.689,0.407H36.081L35.894,106.486z"/>
			<path fill="#FBB03B" d="M36.081,106.894h111.736c-0.842,0.518-1.557,1.036-2.138,1.548c-1.013,0.896-1.544,1.755-1.582,2.555
				c-0.014,0.279,0.029,0.545,0.136,0.8h-4.421l-1.542,35.453l-0.057,1.337l-0.891,20.933l-5.58-0.171h-0.04l-0.527-0.016
				l0.006,0.013l-92.933-0.49l-0.043-5.494v-0.116v-10.119v-0.223l0.046-41.106h-6.483c0.804-0.266,1.385-0.732,1.727-1.396
				c0.616-1.193,0.274-2.695,0.008-3.506h1.944H36.081z M137.624,112.219l0.017-0.423H40.694v55.106l94.605,1.006L137.624,112.219z"
				/>
			<path d="M146.356,112.767l0.366,0.727c-0.019,0.011-0.041,0.02-0.062,0.033c-0.041,0.002-0.067,0.005-0.081,0.008l-0.079,0.008
				l-0.076-0.021c-0.024-0.008-0.358-0.108-0.766-0.32C146.022,112.935,146.326,112.783,146.356,112.767z"/>
			<path d="M146.579,113.534c0.014-0.003,0.04-0.006,0.081-0.008c-0.456,0.243-1.466,0.933-1.574,1.699
				c-0.038,0.269,0.035,0.534,0.225,0.806c-0.23-0.195-0.569-0.398-1.042-0.502c-0.014-0.138-0.011-0.279,0.011-0.423
				c0.122-0.838,0.822-1.502,1.379-1.906c0.407,0.212,0.741,0.312,0.766,0.32l0.076,0.021L146.579,113.534z"/>
			<path d="M145.723,116.512l-0.72,0.385c-0.005-0.014-0.09-0.154-0.285-0.296c-0.266-0.344-0.418-0.702-0.45-1.071
				c0.473,0.104,0.812,0.307,1.042,0.502c0.087,0.122,0.196,0.247,0.332,0.371c0.011,0.009,0.021,0.02,0.032,0.027
				C145.705,116.474,145.72,116.503,145.723,116.512z"/>
			<path d="M145.674,116.43c-0.011-0.008-0.021-0.019-0.032-0.027c-0.136-0.124-0.245-0.249-0.332-0.371
				C145.498,116.188,145.615,116.341,145.674,116.43z"/>
			<path d="M144.974,112.203v0.406h-0.169c-0.046-0.043-0.09-0.087-0.13-0.13c-0.084-0.09-0.157-0.182-0.223-0.276H144.974z"/>
			<path d="M144.974,111.796v0.407c-0.114-0.122-0.215-0.258-0.294-0.407H144.974z"/>
			<path d="M144.974,112.203h-0.521c-0.093-0.131-0.166-0.267-0.22-0.407h0.447C144.759,111.945,144.86,112.081,144.974,112.203z"/>
			<path d="M144.805,112.609h-4.211l-1.562,35.89c-0.04-0.065-0.062-0.104-0.064-0.105l-0.315-0.519l1.551-35.672h4.249
				c0.065,0.095,0.139,0.187,0.223,0.276C144.715,112.522,144.759,112.566,144.805,112.609z"/>
			<path d="M144.453,112.203h-4.249l-1.551,35.672l-0.383-0.626l1.542-35.453h4.421C144.287,111.937,144.36,112.072,144.453,112.203
				z"/>
			<path d="M143.542,119.643l0.587,0.564c-0.003,0.003-0.101,0.119-0.166,0.377c-0.249-0.212-0.47-0.407-0.659-0.583
				C143.405,119.792,143.507,119.679,143.542,119.643z"/>
			<path d="M139.033,148.499l-0.005,0.125l-0.407-0.02l0.032-0.729l0.315,0.519C138.97,148.396,138.993,148.434,139.033,148.499z"/>
			<polygon points="138.27,147.249 138.653,147.875 138.621,148.604 138.213,148.586 			"/>
			<path d="M138.621,148.604l-0.907,21.332c0,0,0,0-5.973-0.182l0.002-0.407l5.58,0.171l0.891-20.933L138.621,148.604z"/>
			<path d="M137.713,169.937l-0.014,0.403l-5.416-0.162c1.357,5.355-0.424,16.508-0.503,16.995l-0.027,0.093
				c-0.146,0.35-3.526,8.403-6.31,10.101c0.003-0.076,0.006-0.155,0.008-0.23l-0.814-0.022l-0.084-0.228
				c0.111-0.038,0.215-0.081,0.31-0.127c2.104-1.036,5.112-7.354,6.123-9.762c0.127-0.819,1.83-11.928,0.45-16.839l0.302,0.003
				l0.003-0.406C137.713,169.937,137.713,169.937,137.713,169.937z"/>
			<path d="M137.64,111.796l-0.017,0.423l-2.324,55.689l-94.605-1.006v-55.106H137.64z M134.909,167.496l2.308-55.293H41.102v54.298
				L134.909,167.496z"/>
			<path d="M137.216,112.203l-2.308,55.293l-93.807-0.995v-54.298H137.216z M134.518,167.084l2.275-54.475H41.509v53.49
				L134.518,167.084z"/>
			<polygon fill="#F4E398" points="136.793,112.609 134.518,167.084 41.509,166.1 41.509,112.609 			"/>
			<polygon points="131.743,169.348 131.741,169.755 131.311,169.752 131.181,169.345 131.703,169.348 			"/>
			<path d="M131.741,169.755l-0.003,0.406l-0.302-0.003c-0.027-0.095-0.054-0.189-0.084-0.279l-0.041-0.127L131.741,169.755z"/>
			<polygon points="131.703,169.348 131.181,169.345 131.175,169.332 			"/>
			<path fill="#FFFFFF" d="M131.436,170.158c1.38,4.911-0.323,16.02-0.45,16.839c-1.011,2.408-4.019,8.726-6.123,9.762
				c-0.095,0.046-0.198,0.089-0.31,0.127c-2.938,1.055-11.67-0.151-11.762-0.165l-0.125-0.017l-0.111,0.055
				c-0.052,0.027-5.419,2.603-11.235,2.779c-5.861,0.173-15.392-1.427-15.487-1.442l-0.079-0.014l-0.076,0.016
				c-0.098,0.022-9.948,2.147-15.245,1.443c-5.284-0.705-9.052-2.753-9.069-2.761c-0.032-0.019-3.258-2.074-6.264-5.079
				l-0.326-0.325l-0.282,0.363c-0.261,0.334-0.562,0.516-0.926,0.556c-0.798,0.093-1.631-0.525-1.74-0.612
				c-0.171-0.165-1.347-1.244-3.6-1.89l-0.188-0.055l-0.16,0.114c-0.869,0.618-3.123,0.214-4.062-0.03
				c-0.269-0.307-1.184-1.369-2.405-2.874c-1.751-2.161-4.13-5.236-6.131-8.321c-0.812-3.092,1.604-9.38,1.629-9.444l-0.375-0.144
				h-0.003l-0.008-0.011l-0.226-0.328c-0.089,0.062-0.508,0.328-0.779,0.182c0.204-0.984,1.132-2.796,1.882-4.141l0.038,4.921
				L131.436,170.158z"/>
			<path d="M131.436,170.158l-93.997-0.496l-0.038-4.921c0.141-0.255,0.28-0.494,0.402-0.708l0.041,5.226l93.468,0.493l0.041,0.127
				C131.382,169.969,131.409,170.063,131.436,170.158z"/>
			<path d="M131.181,169.345l0.13,0.407l-93.468-0.493l-0.041-5.226c0.13-0.225,0.247-0.42,0.342-0.575l0.06-0.098l0.043,5.494
				L131.181,169.345z"/>
			<path d="M125.452,197.136c-0.002,0.075-0.005,0.154-0.008,0.23c-0.073,0.046-0.146,0.087-0.22,0.122
				c-0.177,0.086-0.38,0.165-0.605,0.23c0.008-0.204,0.014-0.404,0.019-0.605L125.452,197.136z"/>
			<path d="M125.224,197.488c0.073-0.035,0.146-0.076,0.22-0.122c-0.328,11.038-2.777,21.969-3.017,23.015
				c0.177,1.061,1.743,11.601-2.989,24.182c1.368,20.228-3.497,31.096-4.182,32.511c0.451,1.405,3.497,10.982,3.497,14.339
				c0,3.373-3,7.109-3.548,7.763c-0.125,0.938-0.994,6.584-3.726,8.181c1.998,9.353-1.458,22.826-1.691,23.721
				c-0.108,0.881-1.768,13.739-7.891,15.952c-0.296,3.346-1.813,5.388-2.354,6.017c0.476,1.177,2.289,6.134,0.014,7.939
				l-0.494-0.024l0.024-0.54c-0.008,0-0.052-0.003-0.131-0.008c1.83-1.27,0.443-5.67-0.263-7.286l-0.108-0.255l0.195-0.195
				c0.019-0.019,2.068-2.126,2.324-5.976l0.019-0.279l0.269-0.082c5.922-1.8,7.573-15.249,7.589-15.385l0.011-0.057
				c0.038-0.144,3.75-14.385,1.627-23.669l-0.076-0.323l0.304-0.138c2.742-1.245,3.557-7.747,3.565-7.812l0.016-0.121l0.082-0.096
				c0.032-0.04,3.429-3.996,3.429-7.326c0-3.422-3.475-14.138-3.511-14.246l-0.051-0.163l0.078-0.151
				c0.058-0.108,5.629-10.887,4.162-32.321l-0.005-0.087l0.032-0.084c4.92-13.016,2.987-23.808,2.968-23.913l-0.017-0.087
				l0.02-0.081c0.027-0.114,2.617-11.223,3.003-22.56C124.844,197.653,125.047,197.574,125.224,197.488z"/>
			<path d="M125.216,25.885c0.043,0.075,1.075,1.881-0.033,3.302l-0.09,0.117l-4.993,1.052l-0.798,21.354
				c0.627,0.772,3.758,4.821,2.971,7.966l-0.02,0.073l-2.313,3.336c0.532,0.683,1.947,2.654,2.063,4.403
				c0.044,0.029,0.09,0.057,0.134,0.087l-0.128,0.192l-0.81-0.111c0,0.003,0,0.011-0.002,0.019
				c-0.027-1.854-2.056-4.284-2.077-4.309l-0.198-0.238l2.576-3.718c0.682-3.012-2.883-7.253-2.918-7.296l-0.104-0.12l0.831-22.305
				l5.315-1.117c0.557-0.867,0.047-1.974-0.084-2.224c-0.494-0.434-4.525-3.863-8.707-4.602l-0.337-0.06v-0.341
				c0-1.668-0.676-2.541-0.953-2.828c-1.238,0.146-5.359,0.485-5.821-1.402c-3.057-9.678-8.254-14.815-8.308-14.867
				c-0.062-0.06-0.962-0.928-2.387-1.253l0.168-0.78c1.7,0.39,2.772,1.437,2.791,1.456c0.215,0.208,5.4,5.333,8.518,15.214
				l0.008,0.03c0.226,0.968,3.128,1.035,5.115,0.772l0.172-0.021l0.133,0.105c0.054,0.041,1.257,1.003,1.371,3.234
				c4.548,0.941,8.658,4.624,8.835,4.783l0.046,0.041L125.216,25.885z"/>
			<path fill="#FFFFFF" d="M124.54,26.348c0.131,0.25,0.641,1.356,0.084,2.224l-5.315,1.117l-0.831,22.305l0.104,0.12
				c0.035,0.043,3.6,4.284,2.918,7.296l-2.576,3.718l0.198,0.238c0.021,0.024,2.05,2.454,2.077,4.309c0,0.003,0,0.009,0,0.011
				c-0.052,0.399-0.473,4.07,1.077,6.769c-0.556,8.023-3.85,14.414-3.882,14.477c-0.035,0.067-3.767,6.938-12.077,5.9
				c-8.667-1.082-14.437,0.355-14.678,0.418l-0.041,0.011c-0.105,0.04-8.862,3.256-14.124,3.256c-1.089,0-2.031-0.138-2.712-0.472
				c-0.505-0.246-0.82-0.586-0.961-1.033c-1.526-4.851-7.809-8.115-8.067-8.248c-0.087-0.046-8.607-4.727-11.102-9.577
				c-2.324-4.522-0.271-11.361-0.005-12.204c0.236-0.253,0.828-0.952,0.728-1.567c-0.046-0.277-0.22-0.505-0.516-0.651
				c-1.618-0.694-1.654-2.271-1.654-2.356l-1.64-37.277l-1.863-0.713c-0.421-0.958-0.021-1.413-0.011-1.427l0.024-0.024
				c0.027-0.032,2.737-3.115,10.689-3.245l0.073-0.009c6.902-1.358,11.119-4.414,11.295-4.544l0.155-0.114l0.011-0.192
				c0-0.024,0.16-2.535,1.963-5.331c2.384-3.698,6.568-6.223,12.077-7.305c0.554-0.079,0.972-0.011,1.249,0.198
				c0.282,0.214,0.323,0.518,0.326,0.525l0.038,0.394l0.396-0.027c0.157-0.014,3.912-0.295,6.81-1.941
				c1.24-0.569,2.352-0.58,3.25-0.377c1.425,0.325,2.324,1.193,2.387,1.253c0.054,0.052,5.251,5.189,8.308,14.867
				c0.462,1.888,4.583,1.548,5.821,1.402c0.277,0.287,0.953,1.16,0.953,2.828v0.341l0.337,0.06
				C120.014,22.484,124.045,25.914,124.54,26.348z M113.188,64.711c0.011-0.206,1.216-20.806,0.814-38.246l-0.008-0.342
				l-0.337-0.052c-6.28-0.987-14.824-1.485-25.397-1.485c-15.427,0-29.939,1.084-30.083,1.095l-0.348,0.027l-0.027,0.345
				c-0.011,0.127-1.081,13.037-0.41,36.972L57.4,63.33l0.296,0.076c8.572,2.242,18.764,3.381,30.301,3.381
				c13.826,0,24.738-1.684,24.846-1.7l0.325-0.051L113.188,64.711z"/>
			<path d="M124.553,196.886l0.084,0.228c-0.005,0.201-0.011,0.401-0.019,0.605c-3.16,0.943-10.72-0.027-11.819-0.174
				c-0.833,0.388-5.867,2.636-11.455,2.807c-5.663,0.168-14.637-1.285-15.568-1.44c-0.855,0.182-7.591,1.589-12.818,1.589
				c-0.942,0-1.833-0.046-2.634-0.151c-5.444-0.727-9.215-2.782-9.375-2.869c-0.052-0.032-3.142-1.998-6.123-4.907
				c-0.337,0.306-0.73,0.482-1.173,0.534c-1.194,0.133-2.311-0.765-2.356-0.803l-0.033-0.03c-0.008-0.008-1.035-1.02-3.09-1.648
				c-1.455,0.811-4.355,0.044-4.692-0.049l-0.117-0.032l-0.081-0.093c-0.019-0.021-0.85-0.968-2.08-2.465l0.111-0.959l0.095-0.079
				c1.222,1.505,2.137,2.567,2.405,2.874c0.939,0.244,3.193,0.648,4.062,0.03l0.16-0.114l0.188,0.055
				c2.253,0.646,3.429,1.725,3.6,1.89c0.109,0.087,0.942,0.705,1.74,0.612c0.364-0.04,0.666-0.222,0.926-0.556l0.282-0.363
				l0.326,0.325c3.006,3.005,6.231,5.061,6.264,5.079c0.017,0.008,3.785,2.056,9.069,2.761c5.297,0.704,15.147-1.421,15.245-1.443
				l0.076-0.016l0.079,0.014c0.095,0.016,9.625,1.615,15.487,1.442c5.816-0.177,11.184-2.752,11.235-2.779l0.111-0.055l0.125,0.017
				C112.883,196.734,121.616,197.94,124.553,196.886z"/>
			<path d="M123.042,74.146l0.064,0.108l-0.008,0.128c-0.543,8.259-3.948,14.858-3.983,14.924c-0.038,0.07-3.497,6.442-11.112,6.445
				c-0.573,0-1.168-0.038-1.79-0.114c-8.256-1.03-13.979,0.302-14.354,0.394c-0.644,0.236-9.014,3.283-14.385,3.283
				c-1.222,0-2.286-0.157-3.071-0.542c-0.706-0.345-1.17-0.856-1.379-1.519c-1.425-4.525-7.61-7.741-7.673-7.773
				c-0.366-0.201-8.835-4.854-11.441-9.922c-2.118-4.118-0.91-9.788-0.301-11.998c0.516-0.271,0.817-0.421,0.842-0.432l0.06-0.029
				l0.049-0.049c0.016-0.017,0.041-0.041,0.068-0.07c-0.266,0.843-2.319,7.682,0.005,12.204c2.495,4.851,11.015,9.531,11.102,9.577
				c0.258,0.133,6.541,3.397,8.067,8.248c0.141,0.447,0.456,0.787,0.961,1.033c0.682,0.334,1.624,0.472,2.712,0.472
				c5.262,0,14.019-3.216,14.124-3.256l0.041-0.011c0.241-0.062,6.011-1.5,14.678-0.418c8.311,1.038,12.042-5.833,12.077-5.9
				c0.032-0.062,3.326-6.453,3.882-14.477c-1.55-2.698-1.129-6.369-1.077-6.769c0,0.009,0,0.02,0,0.027v0.223l0.185,0.119
				c0.189,0.125,0.383,0.247,0.57,0.369C121.881,69.624,121.89,72.232,123.042,74.146z"/>
			<path fill="#FFFFFF" d="M124.619,197.719c-0.386,11.337-2.976,22.445-3.003,22.56l-0.02,0.081l0.017,0.087
				c0.02,0.105,1.952,10.897-2.968,23.913l-0.032,0.084l0.005,0.087c1.467,21.435-4.104,32.213-4.162,32.321l-0.078,0.151
				l0.051,0.163c0.036,0.108,3.511,10.824,3.511,14.246c0,3.33-3.396,7.286-3.429,7.326l-0.082,0.096l-0.016,0.121
				c-0.009,0.065-0.823,6.567-3.565,7.812l-0.304,0.138l0.076,0.323c2.123,9.284-1.589,23.525-1.627,23.669l-0.011,0.057
				c-0.016,0.136-1.667,13.585-7.589,15.385l-0.269,0.082l-0.019,0.279c-0.256,3.85-2.306,5.957-2.324,5.976l-0.195,0.195
				l0.108,0.255c0.706,1.616,2.093,6.017,0.263,7.286c-1.577-0.09-16.855-1.071-22.527-5.713c0.12-0.906,0.334-4.06-2.346-5.578
				c-2.126-2.676-0.03-5.553,0.06-5.675l0.155-0.203l-0.12-0.229c-0.033-0.064-3.356-6.624,1.322-12.855l0.082-0.108v-0.135
				c0-9.461,3.527-13.518,3.56-13.558l0.204-0.226l-0.158-0.258c-0.035-0.06-3.51-5.867,0.022-13.446
				c3.679-7.893,1.352-19.812,1.251-20.314l-0.011-0.062l-2.826-5.103c0.068-1.104,0.613-9.724,1.621-17.891l0.017-0.128
				l-0.06-0.111c-0.136-0.255-0.255-0.504-0.372-0.742c-0.654-1.359-1.265-2.376-3.027-2.793c-1.045-0.253-2.498-0.293-4.607-0.068
				l-0.285,0.03l-0.068,0.279c-2.264,9.316-9.516,21.185-9.59,21.304l-0.043,0.071l-0.011,0.084
				c-0.011,0.073-1.146,7.564-6.97,14.436l-0.125,0.149l0.038,0.192c1.597,7.98-0.258,24.385-0.277,24.55l-0.019,0.171l0.109,0.133
				c0.043,0.052,4.379,5.435,3.603,8.531c-0.195,0.775-0.7,1.328-1.545,1.684l-0.336,0.141l0.103,0.348
				c1.29,4.379,0.038,7.001,0.027,7.025l-0.068,0.133l0.035,0.144c0.367,1.537,1.089,5.892,0.052,7.555l-0.087,0.135l0.033,0.157
				c0.467,2.341-1.828,3.301-1.925,3.341l-0.122,0.049l-1.409,2.251c-0.003,0.002-0.003,0.002-0.005,0.005
				c-0.424,0.483-7.57,8.273-19.812,4.762c-0.35-0.401-1.89-2.402-1.338-6.087l0.043-0.285l-0.255-0.136
				c-7.393-3.872-5.68-12.215-5.601-12.567l0.027-0.133l-0.057-0.122c-0.033-0.073-3.293-7.248-4.309-14.526
				c-2.943-23.5,1.708-41.691,1.754-41.873l0.017-0.061l-0.003-0.06c-0.002-0.032-0.076-3.27,3.084-9.978
				c3.255-6.909,3.948-21.37,3.975-21.982v-0.02v-0.019c-0.006-0.111-0.511-11.212,2.164-23.894
				c2.672-12.68,8.059-23.718,8.113-23.826l0.03-0.065l1.064-9.255c1.23,1.497,2.061,2.443,2.08,2.465l0.081,0.093l0.117,0.032
				c0.337,0.093,3.237,0.859,4.692,0.049c2.055,0.629,3.082,1.641,3.09,1.648l0.033,0.03c0.046,0.038,1.162,0.936,2.356,0.803
				c0.443-0.052,0.836-0.229,1.173-0.534c2.981,2.909,6.071,4.875,6.123,4.907c0.16,0.087,3.931,2.143,9.375,2.869
				c0.801,0.105,1.691,0.151,2.634,0.151c5.227,0,11.963-1.407,12.818-1.589c0.932,0.155,9.905,1.608,15.568,1.44
				c5.588-0.171,10.622-2.419,11.455-2.807C113.899,197.691,121.458,198.662,124.619,197.719z"/>
			<path d="M121.2,67.655l0.81,0.111c-0.003,0.011-0.032,0.255-0.057,0.656c-0.188-0.122-0.381-0.244-0.57-0.369l-0.185-0.119
				v-0.223c0-0.008,0-0.019,0-0.027c0-0.002,0-0.008,0-0.011C121.2,67.666,121.2,67.658,121.2,67.655z"/>
			<path d="M114.002,26.465c0.401,17.44-0.804,38.04-0.814,38.246l-0.02,0.325l-0.325,0.051c-0.108,0.017-11.021,1.7-24.846,1.7
				c-11.537,0-21.729-1.139-30.301-3.381L57.4,63.33l-0.008-0.306c-0.67-23.935,0.399-36.845,0.41-36.972l0.027-0.345l0.348-0.027
				c0.144-0.011,14.656-1.095,30.083-1.095c10.573,0,19.117,0.498,25.397,1.485l0.337,0.052L114.002,26.465z M112.781,64.687
				c0,0,1.222-20.586,0.814-38.214c-19.685-3.088-55.389-0.385-55.389-0.385s-1.086,12.735-0.407,36.925
				C82.371,69.444,112.781,64.687,112.781,64.687z"/>
			<path d="M113.595,26.473c0.407,17.628-0.814,38.214-0.814,38.214s-30.41,4.758-54.981-1.674
				c-0.679-24.189,0.407-36.925,0.407-36.925S93.911,23.385,113.595,26.473z M112.392,64.334c0.152-2.701,1.157-21.389,0.804-37.512
				c-6.206-0.943-14.594-1.423-24.936-1.423c-14.07,0-27.376,0.905-29.673,1.068c-0.163,2.188-0.983,14.69-0.388,36.229
				c8.441,2.174,18.465,3.277,29.798,3.277C100.427,65.974,110.487,64.607,112.392,64.334z"/>
			<path fill="#D6D6D6" d="M113.196,26.822c0.354,16.123-0.651,34.811-0.804,37.512c-1.905,0.273-11.965,1.64-24.395,1.64
				c-11.333,0-21.357-1.104-29.798-3.277c-0.595-21.538,0.225-34.041,0.388-36.229c2.297-0.163,15.604-1.068,29.673-1.068
				C98.602,25.399,106.99,25.879,113.196,26.822z M101.016,62.889l0.185-0.201c-3.223-2.934-5.887-5.824-8.089-8.593
				c1.461-0.477,2.938-1.009,4.421-1.605l-0.101-0.249c-1.51,0.604-3.011,1.146-4.496,1.63c-1.591-2.021-2.938-3.979-4.076-5.838
				c1.849-0.569,3.725-1.226,5.612-1.985l-0.1-0.252c-1.903,0.765-3.796,1.427-5.659,1.996c-1.173-1.941-2.121-3.777-2.883-5.473
				c2.807-0.737,5.712-1.673,8.642-2.847l-0.1-0.252c-2.936,1.177-5.843,2.112-8.653,2.85c-1.032-2.315-1.716-4.365-2.175-6.058
				c3.5-0.813,7.195-1.92,10.928-3.419l-0.1-0.25c-3.723,1.494-7.407,2.596-10.896,3.406c-0.798-3.037-0.845-4.856-0.847-4.908
				l-0.271,0.006c0,0.026,0.035,1.882,0.836,4.967c-2.976,0.679-5.805,1.145-8.395,1.462c-0.926-3.384-0.901-5.412-0.901-5.464
				l-0.271-0.008c0,0.027-0.041,2.085,0.879,5.504c-3.467,0.415-6.492,0.559-8.837,0.586c-1.105-3.756-1.078-6.025-1.078-6.082
				l-0.271-0.008c0,0.027-0.046,2.323,1.045,6.093c-3.033,0.024-4.849-0.144-4.903-0.149l-0.027,0.271
				c0.052,0.003,1.648,0.151,4.344,0.151c0.214,0,0.437,0,0.665-0.003c0.264,0.887,0.589,1.853,0.994,2.886
				c0.429,1.096,0.964,2.321,1.635,3.652c-4.629,0.195-7.542-0.073-7.61-0.081l-0.027,0.271c0.052,0.006,1.648,0.152,4.344,0.152
				c0.999,0,2.15-0.022,3.429-0.076c0.942,1.841,2.14,3.88,3.657,6.062c-6.782,0.594-11.319,0.174-11.403,0.166l-0.027,0.271
				c0.052,0.006,1.648,0.152,4.344,0.152c1.919,0,4.396-0.076,7.266-0.331c1.338,1.903,2.919,3.916,4.79,6.001
				c-7.825,0.862-13.22,0.36-13.312,0.353l-0.027,0.271c0.051,0.006,1.648,0.152,4.344,0.152c2.343,0,5.514-0.111,9.218-0.529
				c1.572,1.738,3.348,3.531,5.346,5.351l0.185-0.201c-1.933-1.76-3.657-3.495-5.197-5.187c2.411-0.279,5.042-0.689,7.812-1.28
				c1.846,2.147,3.999,4.385,6.508,6.668l0.185-0.201c-2.449-2.229-4.564-4.417-6.391-6.532c2.365-0.515,4.825-1.16,7.336-1.971
				C95.045,56.969,97.736,59.903,101.016,62.889z"/>
			<path d="M110.052,387.541c0.307,0.591,2.329,4.742-0.09,7.451c-3.145,3.3-6.663,5.003-10.467,5.073
				c-0.084,0.003-0.166,0.003-0.25,0.003c-6.456,0-11.428-4.637-11.843-5.036c-0.375-0.281-3.91-3.118-3.407-10.026l0.06,0.187
				l0.087,0.073c0.049,0.044,0.269,0.23,0.63,0.518c-0.098,3.081,0.687,5.195,1.393,6.457c0.825,1.48,1.729,2.145,1.74,2.149
				l0.046,0.041c0.049,0.049,5.034,4.824,11.303,4.824c0.076,0,0.155,0,0.234-0.003c3.575-0.068,6.898-1.687,9.874-4.811
				c1.63-1.822,0.788-4.599,0.259-5.881c0.293-0.418,0.404-0.711,0.421-0.754l0.029-0.082l-0.008-0.089
				C110.063,387.63,110.06,387.598,110.052,387.541z"/>
			<path d="M110.063,387.636l0.008,0.089l-0.029,0.082c-0.017,0.043-0.128,0.336-0.421,0.754c-0.174-0.423-0.315-0.684-0.32-0.694
				l0.717-0.391c0.005,0.011,0.016,0.032,0.035,0.065C110.06,387.598,110.063,387.63,110.063,387.636z"/>
			<path d="M110.052,387.541c-0.02-0.033-0.03-0.055-0.035-0.065l-0.717,0.391l-0.169-0.055c0.052-0.087,0.087-0.157,0.111-0.206
				c-0.116-1.011-1.232-9.411-7.203-15.374l-0.168-0.165l0.062-0.229c0.519-1.895-0.264-3.685-1.442-6.391
				c-0.534-1.22-1.135-2.598-1.719-4.228c0.174,0.009,0.271,0.014,0.277,0.014l0.014-0.273l0.494,0.024
				c0.567,1.586,1.156,2.939,1.681,4.138c1.162,2.665,2.012,4.617,1.539,6.697C108.828,377.993,109.943,386.554,110.052,387.541z"/>
			<path d="M109.621,388.561c0.529,1.282,1.371,4.059-0.259,5.881c-2.976,3.124-6.299,4.742-9.874,4.811
				c-0.079,0.003-0.158,0.003-0.234,0.003c-6.269,0-11.254-4.775-11.303-4.824l-0.046-0.041c-0.011-0.005-0.915-0.669-1.74-2.149
				c-0.706-1.262-1.491-3.376-1.393-6.457c2.031,1.611,8.593,6.37,15.205,6.37c0.155,0,0.31-0.003,0.464-0.009
				C106.411,391.938,108.773,389.748,109.621,388.561z"/>
			<path d="M109.3,387.866c0.005,0.011,0.146,0.271,0.32,0.694c-0.848,1.188-3.21,3.378-9.181,3.584
				c-0.154,0.006-0.309,0.009-0.464,0.009c-6.611,0-13.174-4.759-15.205-6.37c0.008-0.257,0.021-0.521,0.043-0.791l0.108-0.133
				c1.39,1.13,8.327,6.48,15.061,6.48c0.145,0,0.285-0.003,0.43-0.009c6.201-0.214,8.207-2.676,8.718-3.52L109.3,387.866z"/>
			<path fill="#4D4D4D" d="M109.243,387.605c-0.024,0.049-0.06,0.119-0.111,0.206c-0.511,0.844-2.517,3.306-8.718,3.52
				c-0.145,0.006-0.285,0.009-0.43,0.009c-6.733,0-13.67-5.351-15.061-6.48c-0.068-0.058-0.122-0.101-0.163-0.136l-1.898-5.955
				l-0.079-0.073c-0.079-0.073-0.155-0.144-0.231-0.217c-7.214-6.824-8.189-11.765-8.311-12.648
				c-0.002-0.022-0.005-0.038-0.008-0.055l2.441-5.412l-0.23-4.632c2.658,1.918,7.111,3.409,13.258,4.444
				c4.268,0.722,8.04,0.981,9.071,1.044c0.584,1.63,1.185,3.008,1.719,4.228c1.179,2.706,1.961,4.496,1.442,6.391l-0.062,0.229
				l0.168,0.165C108.01,378.194,109.126,386.595,109.243,387.605z"/>
			<path d="M101.201,62.688l-0.185,0.201c-3.28-2.985-5.971-5.92-8.178-8.704c0.089-0.027,0.182-0.057,0.273-0.09
				C95.314,56.863,97.978,59.754,101.201,62.688z"/>
			<path d="M99.088,360.42l-0.024,0.54l-0.014,0.273c-0.006,0-0.104-0.005-0.277-0.014c-0.029-0.084-0.06-0.171-0.089-0.257
				l-0.109-0.315l0.285-0.17c0.033-0.02,0.065-0.041,0.098-0.065C99.037,360.417,99.081,360.42,99.088,360.42z"/>
			<path d="M98.958,360.412c-0.032,0.024-0.064,0.046-0.098,0.065l-0.285,0.17l0.109,0.315c0.029,0.086,0.06,0.173,0.089,0.257
				c-1.031-0.062-4.803-0.322-9.071-1.044c-6.147-1.035-10.6-2.526-13.258-4.444l-0.043-0.843c0.008-0.041,0.019-0.105,0.03-0.189
				C82.103,359.341,97.38,360.322,98.958,360.412z"/>
			<path d="M98.195,0.215l-0.168,0.78c-0.898-0.203-2.01-0.192-3.25,0.377c-2.897,1.646-6.652,1.928-6.81,1.941l-0.396,0.027
				l-0.038-0.394c-0.003-0.008-0.043-0.312-0.326-0.525c-0.277-0.209-0.695-0.277-1.249-0.198
				c-5.509,1.082-9.693,3.606-12.077,7.305c-1.803,2.796-1.963,5.307-1.963,5.331l-0.011,0.192l-0.155,0.114
				c-0.176,0.13-4.393,3.186-11.295,4.544l-0.073,0.009c-7.953,0.13-10.662,3.213-10.689,3.245l-0.024,0.024
				c-0.011,0.014-0.41,0.469,0.011,1.427l1.863,0.713l1.64,37.277c0,0.085,0.036,1.662,1.654,2.356
				c0.296,0.146,0.47,0.374,0.516,0.651c0.101,0.615-0.491,1.314-0.728,1.567c0.019-0.055,0.027-0.082,0.03-0.087l-0.766-0.258
				l0.054-0.165c0.033-0.017,0.06-0.03,0.084-0.041c0.277-0.293,0.548-0.716,0.521-0.887c-0.002-0.011-0.021-0.027-0.054-0.043
				c-2.102-0.898-2.126-2.985-2.126-3.075l-1.618-36.728l-1.662-0.64l-0.071-0.142c-0.747-1.488-0.07-2.343,0.057-2.483
				c0.19-0.22,3.033-3.384,11.26-3.527c5.989-1.186,9.986-3.748,10.787-4.293c0.071-0.681,0.423-2.95,2.047-5.485
				c3.163-4.938,8.626-6.914,12.652-7.703c0.809-0.116,1.439,0.008,1.895,0.366c0.277,0.214,0.432,0.469,0.519,0.681
				c0.967-0.108,3.891-0.526,6.152-1.814l0.03-0.017C95.849-0.019,97.141-0.029,98.195,0.215z"/>
			<path d="M97.432,52.24l0.101,0.249c-1.482,0.597-2.96,1.129-4.421,1.605c-0.06-0.076-0.116-0.151-0.176-0.225
				C94.421,53.387,95.922,52.845,97.432,52.24z"/>
			<path d="M94.373,32.343l0.1,0.25c-3.732,1.499-7.428,2.605-10.928,3.419c-0.024-0.09-0.046-0.176-0.068-0.263
				C86.965,34.938,90.65,33.837,94.373,32.343z"/>
			<path d="M94.373,39.22l0.1,0.252c-2.93,1.174-5.834,2.109-8.642,2.847c-0.038-0.084-0.076-0.165-0.111-0.249
				C88.529,41.332,91.437,40.396,94.373,39.22z"/>
			<path d="M94.373,45.795l0.1,0.252c-1.887,0.76-3.763,1.416-5.612,1.985c-0.049-0.082-0.098-0.16-0.146-0.241
				C90.577,47.222,92.469,46.56,94.373,45.795z"/>
			<path d="M93.112,54.095c-0.092,0.033-0.185,0.062-0.273,0.09c-0.06-0.076-0.12-0.149-0.177-0.226
				c0.09-0.029,0.182-0.06,0.274-0.089C92.996,53.943,93.052,54.019,93.112,54.095z"/>
			<path d="M92.936,53.87c-0.093,0.029-0.185,0.06-0.274,0.089c-1.61-2.044-2.954-4.005-4.078-5.843
				c0.092-0.027,0.185-0.055,0.277-0.084C89.998,49.892,91.345,51.85,92.936,53.87z"/>
			<path d="M92.662,53.959c0.057,0.076,0.117,0.149,0.177,0.226c-2.512,0.811-4.972,1.456-7.336,1.971
				c-0.068-0.078-0.136-0.154-0.204-0.232C87.668,55.413,90.139,54.768,92.662,53.959z"/>
			<path d="M91.893,62.688l-0.185,0.201c-2.509-2.283-4.662-4.521-6.508-6.668c0.1-0.021,0.201-0.043,0.301-0.065
				C87.329,58.271,89.444,60.459,91.893,62.688z"/>
			<path fill="#D6D6D6" d="M88.583,48.116c1.124,1.838,2.468,3.799,4.078,5.843c-2.522,0.809-4.993,1.454-7.363,1.964
				c-1.743-2.037-3.218-4.005-4.469-5.879C83.308,49.559,85.915,48.93,88.583,48.116z"/>
			<path d="M88.86,48.032c-0.092,0.029-0.185,0.057-0.277,0.084c-0.052-0.081-0.101-0.16-0.146-0.239
				c0.092-0.029,0.185-0.057,0.277-0.086C88.763,47.872,88.812,47.95,88.86,48.032z"/>
			<path d="M88.714,47.791c-0.092,0.029-0.185,0.057-0.277,0.086c-1.208-1.992-2.156-3.836-2.9-5.482
				c0.098-0.021,0.195-0.049,0.293-0.076C86.593,44.014,87.541,45.85,88.714,47.791z"/>
			<path d="M88.437,47.877c0.046,0.079,0.095,0.158,0.146,0.239c-2.669,0.813-5.275,1.442-7.754,1.928
				c-0.054-0.081-0.108-0.163-0.163-0.244C83.15,49.314,85.76,48.688,88.437,47.877z"/>
			<path d="M85.719,42.069c0.035,0.084,0.073,0.165,0.111,0.249c-0.098,0.027-0.196,0.055-0.293,0.076
				c-0.038-0.084-0.076-0.168-0.111-0.249C85.523,42.121,85.621,42.097,85.719,42.069z"/>
			<path fill="#D6D6D6" d="M85.537,42.395c0.744,1.646,1.691,3.49,2.9,5.482c-2.677,0.812-5.287,1.438-7.771,1.923
				c-1.341-2.033-2.417-3.956-3.28-5.732C79.947,43.678,82.689,43.138,85.537,42.395z"/>
			<path d="M85.719,42.069c-0.098,0.027-0.196,0.052-0.293,0.076c-0.244-0.548-0.464-1.074-0.663-1.573
				c-0.67-1.678-1.154-3.191-1.501-4.498c0.092-0.021,0.188-0.043,0.283-0.062C84.003,37.704,84.688,39.754,85.719,42.069z"/>
			<path d="M85.502,56.155c-0.101,0.022-0.201,0.044-0.301,0.065c-0.068-0.078-0.136-0.157-0.204-0.236
				c0.101-0.019,0.201-0.04,0.302-0.062C85.366,56.001,85.434,56.077,85.502,56.155z"/>
			<path d="M85.426,42.146c0.035,0.081,0.073,0.165,0.111,0.249c-2.848,0.743-5.59,1.283-8.151,1.673
				c-0.041-0.086-0.082-0.171-0.122-0.255C79.825,43.425,82.572,42.886,85.426,42.146z"/>
			<path d="M85.298,55.923c-0.101,0.021-0.201,0.043-0.302,0.062c-1.751-2.052-3.225-4.026-4.461-5.884
				c0.098-0.019,0.196-0.038,0.293-0.057C82.081,51.918,83.555,53.886,85.298,55.923z"/>
			<path d="M84.997,55.984c0.068,0.079,0.136,0.158,0.204,0.236c-2.77,0.591-5.4,1.001-7.812,1.28
				c-0.076-0.082-0.152-0.166-0.226-0.247C79.578,56.979,82.216,56.573,84.997,55.984z"/>
			<path fill="#D6D6D6" d="M84.763,40.572c0.198,0.499,0.418,1.025,0.663,1.573c-2.854,0.74-5.601,1.279-8.162,1.667
				c-1.14-2.389-1.895-4.506-2.392-6.274c2.59-0.317,5.419-0.783,8.39-1.464C83.609,37.381,84.093,38.895,84.763,40.572z"/>
			<path d="M84.923,384.859l-0.108,0.133L84,384.927c-0.003,0.027-0.005,0.052-0.005,0.079l-1.771-5.557l0.345-0.054l-0.125-0.803
				l0.108-0.114c0.076,0.073,0.152,0.144,0.231,0.217l0.079,0.073l1.898,5.955C84.801,384.759,84.855,384.802,84.923,384.859z"/>
			<path d="M84,384.927l0.814,0.065c-0.022,0.271-0.035,0.534-0.043,0.791c-0.361-0.287-0.581-0.474-0.63-0.518l-0.087-0.073
				l-0.06-0.187C83.995,384.979,83.998,384.954,84,384.927z"/>
			<path d="M83.544,36.012c-0.095,0.02-0.19,0.041-0.283,0.062c-0.024-0.087-0.046-0.177-0.068-0.261
				c0.092-0.021,0.188-0.043,0.283-0.064C83.498,35.836,83.52,35.922,83.544,36.012z"/>
			<path d="M83.477,35.749c-0.095,0.021-0.19,0.043-0.283,0.064c-0.801-3.085-0.836-4.94-0.836-4.967l0.271-0.006
				C82.632,30.893,82.678,32.712,83.477,35.749z"/>
			<path d="M83.194,35.813c0.022,0.084,0.043,0.174,0.068,0.261c-2.97,0.681-5.799,1.146-8.39,1.464
				c-0.027-0.089-0.052-0.176-0.073-0.263C77.389,36.958,80.218,36.492,83.194,35.813z"/>
			<path d="M82.586,62.688l-0.185,0.201c-1.999-1.819-3.774-3.612-5.346-5.351c0.111-0.011,0.223-0.024,0.334-0.037
				C78.929,59.192,80.653,60.928,82.586,62.688z"/>
			<path d="M82.445,378.593l0.125,0.803l-0.345,0.054l-0.073-0.23c-0.179-0.168-0.353-0.333-0.524-0.501L82.445,378.593z"/>
			<path d="M82.553,378.479l-0.108,0.114l-0.817,0.125c-5.284-5.093-7.171-9.111-7.844-11.262c0.198-0.935,0.416-1.604,0.421-1.621
				l0.038-0.005C74.364,366.714,75.339,371.654,82.553,378.479z"/>
			<path d="M82.151,379.219l0.073,0.23l-3.418,0.526l-5.308-6.694c-1.727-2.178-0.315-6.915-0.089-7.62l0.003,0.068
				c0.002,0.073,0.043,0.678,0.372,1.727c-0.345,1.63-0.632,4.073,0.356,5.32l5.009,6.32l2.479-0.379
				C81.798,378.886,81.972,379.051,82.151,379.219z"/>
			<path d="M81.627,378.718l-2.479,0.379l-5.009-6.32c-0.988-1.247-0.701-3.69-0.356-5.32
				C74.457,369.606,76.344,373.625,81.627,378.718z"/>
			<path fill="#D6D6D6" d="M80.536,50.101c1.236,1.857,2.71,3.832,4.461,5.884c-2.78,0.589-5.419,0.995-7.833,1.27
				c-1.865-2.069-3.451-4.075-4.806-5.992C74.837,51.031,77.595,50.668,80.536,50.101z"/>
			<path d="M80.829,50.044c-0.098,0.019-0.195,0.038-0.293,0.057c-0.054-0.081-0.108-0.162-0.163-0.244
				c0.098-0.019,0.195-0.037,0.293-0.057C80.721,49.881,80.775,49.963,80.829,50.044z"/>
			<path d="M80.666,49.8c-0.098,0.02-0.195,0.038-0.293,0.057c-1.369-2.076-2.444-4.007-3.288-5.742
				c0.101-0.014,0.201-0.03,0.301-0.047C78.25,45.844,79.325,47.767,80.666,49.8z"/>
			<path d="M80.462,282.114c0.101,0.502,2.427,12.422-1.251,20.314c-3.532,7.579-0.057,13.387-0.022,13.446l0.158,0.258
				l-0.204,0.226c-0.033,0.04-3.56,4.097-3.56,13.558v0.135l-0.082,0.108c-4.678,6.231-1.355,12.791-1.322,12.855l0.12,0.229
				l-0.155,0.203c-0.09,0.122-2.186,2.999-0.06,5.675c2.68,1.519,2.465,4.672,2.346,5.578c-0.06-0.047-0.117-0.096-0.174-0.145
				l-0.532,0.613l-0.127,0.006l-0.017-0.345l0.011-0.052c0.03-0.144,0.711-3.522-1.969-4.98l-0.07-0.038l-0.049-0.062
				c-2.249-2.744-0.657-5.727-0.152-6.529c-0.554-1.239-2.957-7.449,1.417-13.387c0.03-8.553,2.813-12.741,3.581-13.736
				c-0.668-1.248-3.212-6.807,0.122-13.957c3.438-7.375,1.379-18.817,1.203-19.753l-2.875-5.198l0.005-0.119
				c0.005-0.092,0.551-9.243,1.616-17.932c-0.114-0.225-0.22-0.441-0.323-0.653c-0.554-1.146-0.972-2.012-2.474-2.372l0.179-0.775
				c1.762,0.417,2.373,1.434,3.027,2.793c0.117,0.238,0.236,0.487,0.372,0.742l0.06,0.111l-0.017,0.128
				c-1.007,8.167-1.553,16.787-1.621,17.891l2.826,5.103L80.462,282.114z"/>
			<path d="M80.373,49.856c0.054,0.082,0.108,0.163,0.163,0.244c-2.94,0.567-5.699,0.931-8.178,1.161
				c-0.06-0.087-0.12-0.171-0.179-0.255C74.655,50.781,77.422,50.421,80.373,49.856z"/>
			<path d="M77.386,44.067c-0.101,0.017-0.201,0.033-0.301,0.047c-0.041-0.087-0.082-0.171-0.122-0.255
				c0.101-0.017,0.201-0.03,0.301-0.047C77.305,43.896,77.346,43.981,77.386,44.067z"/>
			<path d="M77.164,57.254c0.073,0.081,0.149,0.165,0.226,0.247c-0.111,0.013-0.223,0.026-0.334,0.037
				c-0.076-0.081-0.149-0.165-0.223-0.246C76.941,57.278,77.052,57.268,77.164,57.254z"/>
			<path d="M77.264,43.812c-0.101,0.017-0.201,0.03-0.301,0.047c-0.48-1.009-0.882-1.947-1.219-2.807
				c-0.494-1.267-0.874-2.433-1.165-3.477c0.098-0.014,0.195-0.024,0.293-0.038C75.369,39.307,76.124,41.424,77.264,43.812z"/>
			<path fill="#D6D6D6" d="M77.085,44.114c0.844,1.735,1.919,3.666,3.288,5.742c-2.951,0.564-5.718,0.925-8.194,1.15
				c-1.491-2.143-2.69-4.174-3.654-6.053C70.979,44.841,73.884,44.594,77.085,44.114z"/>
			<path d="M77.164,57.254c-0.111,0.014-0.223,0.024-0.331,0.038c-1.871-2.085-3.451-4.098-4.79-6.001
				c0.106-0.011,0.209-0.019,0.315-0.029C73.713,53.179,75.298,55.185,77.164,57.254z"/>
			<path d="M76.963,43.859c0.041,0.084,0.082,0.168,0.122,0.255c-3.201,0.479-6.106,0.727-8.561,0.84
				c-0.043-0.089-0.09-0.176-0.133-0.263C70.843,44.577,73.753,44.336,76.963,43.859z"/>
			<path d="M76.833,57.292c0.073,0.081,0.146,0.165,0.223,0.246c-3.704,0.418-6.875,0.529-9.218,0.529
				c-2.696,0-4.293-0.146-4.344-0.152l0.027-0.271C63.612,57.652,69.007,58.154,76.833,57.292z"/>
			<path d="M76.444,355.731l0.23,4.632l-2.441,5.412c0.003,0.017,0.006,0.032,0.008,0.055l-0.038,0.005l-0.771-0.255
				c-0.005,0.014-0.014,0.041-0.024,0.081l-0.003-0.032l2.444-5.423l-0.252-5.032l0.127-0.006
				C75.947,355.36,76.186,355.55,76.444,355.731z"/>
			<path d="M76.401,354.889l0.043,0.843c-0.258-0.182-0.497-0.371-0.72-0.563l0.532-0.613c0.057,0.049,0.114,0.098,0.174,0.145
				C76.42,354.783,76.409,354.848,76.401,354.889z"/>
			<path fill="#D6D6D6" d="M75.744,41.053c0.337,0.859,0.739,1.798,1.219,2.807c-3.209,0.477-6.12,0.718-8.572,0.832
				c-1.244-2.465-2.08-4.669-2.645-6.529c2.352-0.027,5.373-0.174,8.833-0.586C74.87,38.62,75.25,39.786,75.744,41.053z"/>
			<path d="M75.803,255.284l-0.179,0.775c-0.888-0.215-2.158-0.252-4.059-0.065c-2.275,9.021-8.976,20.204-9.576,21.19
				c-0.141,0.859-1.477,7.996-7.01,14.612c1.491,7.812-0.079,22.596-0.285,24.439c0.708,0.899,4.464,5.873,3.655,9.104
				c-0.231,0.922-0.798,1.622-1.692,2.086c1.086,3.985,0.201,6.529-0.06,7.139c0.201,0.896,1.2,5.705,0,7.899
				c0.361,2.221-1.282,3.576-2.321,4.045l-1.129,1.807c0.027,0.035,0.06,0.075,0.089,0.119l-0.282,0.182l-0.625-0.526
				c-0.003,0.003-0.005,0.008-0.014,0.017l1.409-2.251l0.122-0.049c0.098-0.04,2.392-1,1.925-3.341l-0.033-0.157l0.087-0.135
				c1.037-1.663,0.315-6.018-0.052-7.555l-0.035-0.144l0.068-0.133c0.011-0.024,1.263-2.646-0.027-7.025l-0.103-0.348l0.336-0.141
				c0.845-0.355,1.35-0.908,1.545-1.684c0.777-3.097-3.559-8.479-3.603-8.531l-0.109-0.133l0.019-0.171
				c0.019-0.165,1.874-16.569,0.277-24.55l-0.038-0.192l0.125-0.149c5.824-6.871,6.959-14.362,6.97-14.436l0.011-0.084l0.043-0.071
				c0.074-0.119,7.326-11.987,9.59-21.304l0.068-0.279l0.285-0.03C73.306,254.991,74.758,255.031,75.803,255.284z"/>
			<path d="M74.872,37.538c-0.098,0.014-0.195,0.024-0.293,0.038c-0.024-0.089-0.049-0.179-0.074-0.269
				c0.098-0.008,0.196-0.021,0.293-0.032C74.82,37.362,74.845,37.449,74.872,37.538z"/>
			<path d="M74.505,37.308c0.025,0.09,0.049,0.18,0.074,0.269c-3.459,0.412-6.481,0.559-8.833,0.586
				c-0.027-0.09-0.054-0.179-0.079-0.269C68.014,37.866,71.039,37.723,74.505,37.308z"/>
			<path d="M74.799,37.275c-0.098,0.011-0.195,0.024-0.293,0.032c-0.92-3.419-0.879-5.477-0.879-5.504l0.271,0.008
				C73.897,31.863,73.873,33.892,74.799,37.275z"/>
			<path d="M73.433,365.58l0.771,0.255c-0.005,0.017-0.223,0.687-0.421,1.621c-0.328-1.049-0.369-1.653-0.372-1.727l-0.003-0.068
				C73.419,365.621,73.428,365.594,73.433,365.58z"/>
			<path d="M72.358,51.262c-0.106,0.011-0.209,0.019-0.315,0.029c-0.06-0.087-0.12-0.171-0.179-0.258
				c0.103-0.008,0.209-0.016,0.315-0.026C72.238,51.091,72.298,51.175,72.358,51.262z"/>
			<path d="M71.864,51.033c0.06,0.087,0.12,0.171,0.179,0.258c-2.87,0.255-5.346,0.331-7.266,0.331
				c-2.696,0-4.292-0.146-4.344-0.152l0.027-0.271C60.544,51.207,65.082,51.627,71.864,51.033z"/>
			<path d="M72.179,51.007c-0.106,0.011-0.212,0.019-0.315,0.026c-1.518-2.183-2.715-4.222-3.657-6.062
				c0.103-0.006,0.209-0.008,0.318-0.017C69.488,46.833,70.688,48.864,72.179,51.007z"/>
			<path d="M68.391,44.691c0.043,0.087,0.09,0.174,0.133,0.263c-0.109,0.009-0.215,0.011-0.318,0.017
				c-0.046-0.09-0.092-0.179-0.136-0.266C68.177,44.699,68.283,44.697,68.391,44.691z"/>
			<path d="M68.391,44.691c-0.108,0.006-0.214,0.008-0.32,0.014c-0.671-1.331-1.206-2.557-1.635-3.652
				c-0.404-1.033-0.73-1.999-0.994-2.886c0.101,0,0.201-0.002,0.304-0.005C66.312,40.022,67.147,42.227,68.391,44.691z"/>
			<path d="M68.071,44.705c0.043,0.087,0.089,0.176,0.136,0.266c-1.279,0.054-2.43,0.076-3.429,0.076
				c-2.696,0-4.292-0.146-4.344-0.152l0.027-0.271C60.528,44.632,63.441,44.9,68.071,44.705z"/>
			<path d="M65.668,37.894c0.024,0.09,0.051,0.179,0.079,0.269c-0.103,0.003-0.204,0.005-0.304,0.005
				c-0.027-0.092-0.054-0.182-0.079-0.271C65.464,37.896,65.565,37.896,65.668,37.894z"/>
			<path d="M65.364,37.896c0.024,0.089,0.052,0.179,0.079,0.271c-0.228,0.003-0.451,0.003-0.665,0.003
				c-2.696,0-4.292-0.148-4.344-0.151l0.027-0.271C60.515,37.753,62.331,37.921,65.364,37.896z"/>
			<path d="M65.668,37.894c-0.103,0.003-0.204,0.003-0.304,0.003c-1.091-3.77-1.045-6.065-1.045-6.093l0.271,0.008
				C64.59,31.868,64.563,34.138,65.668,37.894z"/>
			<path d="M53.89,66.636l0.766,0.258c-0.002,0.005-0.011,0.032-0.03,0.087c-0.027,0.029-0.052,0.054-0.068,0.07L54.509,67.1
				l-0.06,0.029c-0.024,0.011-0.326,0.16-0.842,0.432c0.144-0.534,0.255-0.865,0.277-0.928L53.89,66.636z"/>
			<path d="M53.235,348.436c0.605,0.813,1.825,2.975,1.162,6.502c-0.657,3.506-1.135,5.244-1.306,5.808
				c0.478,0.651,1.841,2.899-0.068,5.145c-0.711,4.132-2.177,6.241-2.652,6.835c0.211,0.89,0.912,4.401-0.041,8.49l0.003-0.027
				l-0.814-0.049l-0.057-0.046c0.03-0.035,0.06-0.073,0.087-0.108c1.018-4.42-0.005-8.216-0.017-8.254l-0.06-0.22l0.155-0.165
				c0.019-0.02,1.833-2.028,2.612-6.706l0.019-0.113l0.079-0.09c1.898-2.134,0.079-4.252,0-4.341l-0.154-0.174l0.073-0.223
				c0.005-0.016,0.545-1.665,1.344-5.914c0.595-3.172-0.456-5.092-0.978-5.815c0.212-0.215,0.323-0.342,0.332-0.353L53.235,348.436z
				"/>
			<path d="M53.944,66.471l-0.054,0.165l-0.005-0.003c-0.021,0.062-0.133,0.394-0.277,0.928
				c-3.913,2.047-20.208,11.149-22.424,21.643l-0.014,0.044c-0.065,0.2-1.61,4.843-3.842,8.102c-0.19-0.133-0.31-0.214-0.342-0.235
				L26.76,96.73c2.042-3.059,3.516-7.383,3.63-7.717C32.913,77.162,51.902,67.479,53.944,66.471z"/>
			<path fill="#4D4D4D" d="M52.622,348.97c0.521,0.724,1.572,2.644,0.978,5.815c-0.798,4.249-1.338,5.898-1.344,5.914l-0.073,0.223
				l0.154,0.174c0.079,0.089,1.898,2.207,0,4.341l-0.079,0.09l-0.019,0.113c-0.779,4.678-2.593,6.687-2.612,6.706l-0.155,0.165
				l0.06,0.22c0.011,0.038,1.035,3.834,0.017,8.254c-0.027,0.035-0.057,0.073-0.087,0.108c-3.791,4.805-7.722,7.104-11.688,6.836
				c-6.253-0.423-10.76-7.156-11.542-8.4c-0.024-0.041-0.046-0.076-0.062-0.104c0.016-1.084,0.255-9.764,3.692-13.44l0.087-0.095
				l0.019-0.128c0.788-5.765,3.679-9.249,3.709-9.281l0.152-0.182l-0.898-2.462c2.063,0.534,3.983,0.756,5.753,0.756
				C46.48,354.593,51.354,350.252,52.622,348.97z"/>
			<path d="M52.329,348.091l0.625,0.526c-0.008,0.011-0.12,0.138-0.332,0.353c-0.146-0.201-0.25-0.31-0.269-0.328l-0.228-0.23
				l0.185-0.299c0.002-0.003,0.002-0.003,0.005-0.005C52.323,348.099,52.326,348.094,52.329,348.091z"/>
			<path d="M52.353,348.642c0.019,0.019,0.122,0.127,0.269,0.328c-1.268,1.282-6.142,5.623-13.939,5.623
				c-1.77,0-3.689-0.222-5.753-0.756l-0.269-0.74l-0.033-0.084l-0.062-0.065c-0.008-0.008-0.03-0.032-0.068-0.073
				c12.243,3.512,19.389-4.278,19.812-4.762l-0.185,0.299L52.353,348.642z"/>
			<path d="M50.333,381.188l-0.003,0.027c-0.002,0.014-0.005,0.027-0.008,0.041l-0.019,0.086l-0.057,0.071
				c-0.266,0.341-0.535,0.675-0.804,0.992l0.076-1.267L50.333,381.188z"/>
			<path d="M50.322,381.256c0.002-0.014,0.005-0.027,0.008-0.041l-0.545,9.019l-0.049,0.081c-0.141,0.244-3.521,5.928-9.758,6.738
				c-0.486,0.062-0.975,0.095-1.466,0.095c-4.17,0-8.547-2.264-13.038-6.749l-0.108-0.108l-0.011-0.154
				c-0.261-4.192-0.017-10.215,0-10.6v0.108l0.054,0.095c0.024,0.038,0.269,0.459,0.717,1.099c-0.062,2.018-0.146,6.022,0.033,9.095
				c4.789,4.745,9.402,6.871,13.708,6.314c5.455-0.705,8.688-5.577,9.117-6.261l0.459-7.581c0.269-0.317,0.538-0.651,0.804-0.992
				l0.057-0.071L50.322,381.256z"/>
			<path d="M49.519,381.139l-0.076,1.267c-3.771,4.479-7.708,6.61-11.727,6.334c-3.027-0.206-6.12-1.83-8.938-4.702
				c-1.184-1.206-2.083-2.383-2.653-3.199c0.021-0.781,0.043-1.267,0.043-1.282l0.062-0.027c0.782,1.244,5.289,7.978,11.542,8.4
				c3.967,0.269,7.898-2.031,11.688-6.836L49.519,381.139z"/>
			<path d="M49.442,382.405l-0.459,7.581c-0.429,0.684-3.663,5.556-9.117,6.261c-4.306,0.557-8.919-1.569-13.708-6.314
				c-0.179-3.072-0.095-7.077-0.033-9.095c0.57,0.816,1.469,1.993,2.653,3.199c2.818,2.872,5.911,4.496,8.938,4.702
				C41.734,389.016,45.671,386.885,49.442,382.405z"/>
			<path d="M41.411,186.948l-0.095,0.079l-0.809-0.093l-0.019,0.166c-1.743-2.164-4.01-5.122-5.927-8.086l-0.032-0.052l-0.017-0.06
				c-0.744-2.657,0.673-7.275,1.333-9.173c0.326-0.035,0.649-0.18,0.915-0.358l-0.229-0.333h0.003l0.375,0.144
				c-0.024,0.064-2.441,6.353-1.629,9.444C37.281,181.712,39.66,184.787,41.411,186.948z"/>
			<path d="M41.316,187.027l-0.111,0.959c-0.225-0.276-0.464-0.574-0.717-0.886l0.019-0.166L41.316,187.027z"/>
			<path d="M41.205,187.986l-1.064,9.255l-0.03,0.065c-0.054,0.108-5.441,11.146-8.113,23.826
				c-2.674,12.682-2.169,23.782-2.164,23.894v0.019v0.02c-0.027,0.612-0.72,15.073-3.975,21.982
				c-3.161,6.708-3.087,9.945-3.084,9.978l0.003,0.06l-0.017,0.061c-0.046,0.182-4.697,18.373-1.754,41.873
				c1.016,7.278,4.276,14.453,4.309,14.526l0.057,0.122l-0.027,0.133c-0.079,0.353-1.792,8.695,5.601,12.567l0.255,0.136
				l-0.043,0.285c-0.551,3.685,0.988,5.686,1.338,6.087c-0.035-0.008-0.07-0.019-0.105-0.03l-0.228,0.781l-0.158,0.057l-0.084-0.23
				c-0.372-0.412-2.102-2.57-1.607-6.499c-7.135-3.939-5.995-12.039-5.792-13.191c-0.435-0.974-3.364-7.753-4.325-14.634
				c-2.881-23.021,1.477-40.996,1.762-42.132c-0.005-0.505,0.103-3.807,3.16-10.296c3.136-6.656,3.869-21.061,3.899-21.654
				c-0.024-0.548-0.458-11.557,2.181-24.081c2.587-12.277,7.7-23.025,8.148-23.953l1.14-9.91
				C40.74,187.412,40.979,187.71,41.205,187.986z"/>
			<path d="M38.25,111.796l-0.046,41.106l-0.407-0.26l0.046-40.439h-6.038c-0.008-0.033-0.014-0.065-0.022-0.098
				c-0.024-0.096-0.054-0.19-0.089-0.285c0.024-0.008,0.049-0.017,0.073-0.024H38.25z"/>
			<path d="M38.205,163.244v0.116l-0.06,0.098c-0.095,0.155-0.211,0.351-0.342,0.575l-0.005-0.786L38.205,163.244z"/>
			<rect x="37.797" y="153.126" width="0.407" height="10.119"/>
			<polygon points="38.205,152.902 38.205,153.125 37.797,153.125 37.797,152.643 			"/>
			<path d="M37.843,112.203l-0.046,40.439l-0.407-0.264l0.046-39.77h-5.593c0-0.133-0.011-0.269-0.038-0.406H37.843z"/>
			<path d="M37.797,163.247l0.005,0.786c-0.122,0.214-0.261,0.453-0.402,0.708l-0.011-1.491L37.797,163.247z"/>
			<polygon points="37.797,152.643 37.797,153.125 37.39,153.125 37.39,152.379 			"/>
			<path d="M37.797,153.125v10.122l-0.407,0.003l-0.052-0.03c0.019-0.032,0.035-0.062,0.052-0.087v-9.785l-0.101-0.065l0.101-0.157
				H37.797z"/>
			<path fill="#FFFFFF" d="M37.436,112.609l-0.046,39.77l-1.979-1.269l-0.084-0.014c-0.128-0.019-12.9-2.033-27.83-7.52
				c-3.435-6.597-6.147-16.385-6.543-17.847c0.657-0.928,3.885-5.705,5.362-12.012c0.967-1.221,1.797-2.544,2.474-3.761
				c-0.654,3.947,0.252,5.981,0.396,6.269c0.119,0.334,1.156,2.939,4.578,4.2c1.205,0.442,2.666,0.588,4.078,0.588
				c2.62,0,5.063-0.504,5.359-0.569c0.722-0.081,1.969-0.623,1.985-2.112c0.877-0.385,1.472-1.247,1.757-1.737
				c0.041-0.071,0.073-0.136,0.1-0.188c0.907-0.266,4.787-1.532,4.8-3.799H37.436z"/>
			<path d="M37.39,163.25l0.011,1.491c-0.75,1.345-1.678,3.156-1.882,4.141c0.271,0.146,0.69-0.12,0.779-0.182l0.226,0.328
				l-0.283-0.279l-0.06,0.06l-0.033,0.081c-0.021,0.054-0.138,0.36-0.304,0.841c-0.052,0.008-0.106,0.011-0.16,0.011
				c-0.34,0-0.668-0.128-0.926-0.458l-0.1-0.131l0.019-0.165c0.171-1.513,2.158-4.924,2.661-5.768L37.39,163.25z"/>
			<path d="M37.39,152.379v0.746l-0.101,0.157l-2.175-1.396c-1.154-0.188-13.625-2.283-28.047-7.598l-0.146-0.055l-0.073-0.138
				c-3.779-7.191-6.701-18.232-6.731-18.344l-0.049-0.189l0.117-0.157c0.038-0.049,3.769-5.082,5.36-11.961l0.021-0.089l0.057-0.073
				c2.449-3.057,3.997-6.82,4.372-7.771c-0.622,1.689-0.997,3.167-1.206,4.447c-0.676,1.217-1.507,2.54-2.474,3.761
				c-1.477,6.307-4.705,11.084-5.362,12.012c0.396,1.462,3.109,11.25,6.543,17.847c14.93,5.486,27.702,7.501,27.83,7.52l0.084,0.014
				L37.39,152.379z"/>
			<path d="M36.532,169.039l0.229,0.333c-0.266,0.179-0.589,0.323-0.915,0.358c0.166-0.48,0.282-0.787,0.304-0.841l0.033-0.081
				l0.06-0.06l0.283,0.279L36.532,169.039z"/>
			<polygon points="35.894,106.486 36.081,106.894 35.446,106.894 35.446,106.486 			"/>
			<path d="M35.815,106.316l0.079,0.17h-0.448v-0.406h0.258C35.742,106.159,35.78,106.237,35.815,106.316z"/>
			<path d="M35.704,106.08h-0.258v0.406c0,0,0,0-2.093,0c-0.041-0.097-0.068-0.157-0.073-0.17l-0.369,0.17l-0.37,0.171
				c0.003,0.003,0.041,0.09,0.095,0.236h-0.049l-0.073-0.314c-0.671-2.845-4.542-7.216-5.715-8.49l0.291-0.401
				c0.079-0.11,0.16-0.222,0.239-0.339C28.696,98.309,33.695,101.999,35.704,106.08z M33.222,106.08h1.564
				c-1.181-2.183-3.261-4.266-5.037-5.8C31.159,102.059,32.688,104.271,33.222,106.08z"/>
			<path d="M35.446,106.486v0.407h-1.944c-0.057-0.168-0.111-0.31-0.149-0.407C35.446,106.486,35.446,106.486,35.446,106.486z"/>
			<path fill="#FFFFFF" d="M34.786,106.08h-1.564c-0.535-1.809-2.063-4.021-3.473-5.8C31.525,101.814,33.605,103.897,34.786,106.08z
				"/>
			<path d="M32.929,353.837l0.898,2.462l-0.152,0.182c-0.03,0.032-2.921,3.517-3.709,9.281l-0.019,0.128l-0.087,0.095
				c-3.438,3.677-3.676,12.356-3.692,13.44c0.016,0.027,0.038,0.062,0.062,0.104l-0.062,0.027l-0.814-0.038
				c0.002-0.616,0.089-9.856,3.823-13.991c0.747-5.242,3.101-8.577,3.725-9.385l-0.896-2.46l0.158-0.057
				C32.421,353.701,32.676,353.769,32.929,353.837z"/>
			<path d="M33.502,106.894c0.266,0.811,0.608,2.312-0.008,3.506c-0.342,0.664-0.923,1.131-1.727,1.396h-0.38v0.407
				c-0.051-0.212-0.144-0.432-0.285-0.656c3.087-0.586,2.352-3.558,1.969-4.653H33.502z"/>
			<path d="M33.502,106.894H33.07c-0.09-0.255-0.16-0.407-0.16-0.407c0.157,0,0.304,0,0.442,0
				C33.391,106.584,33.445,106.726,33.502,106.894z"/>
			<path d="M33.353,106.486c-0.139,0-0.285,0-0.442,0l0.369-0.17C33.285,106.329,33.312,106.39,33.353,106.486z"/>
			<path d="M33.07,106.894c0.383,1.096,1.119,4.067-1.969,4.653l0.155-0.375l-0.117-0.049c0.793-0.173,1.341-0.542,1.629-1.098
				c0.548-1.062,0.084-2.56-0.133-3.132H33.07z"/>
			<path d="M33.07,106.894h-0.435c-0.054-0.146-0.092-0.233-0.095-0.236l0.37-0.171C32.91,106.486,32.98,106.639,33.07,106.894z"/>
			<path d="M32.66,353.097l0.269,0.74c-0.253-0.068-0.508-0.136-0.766-0.212l0.228-0.781c0.035,0.012,0.07,0.022,0.105,0.03
				c0.038,0.041,0.06,0.065,0.068,0.073l0.062,0.065L32.66,353.097z"/>
			<path fill="#FFFFFF" d="M10.687,105.077c-0.035-0.076-0.304-0.903,1.771-4.911c2.449-4.729,7.263-5.816,7.803-5.925
				c0.491,0.055,4.401,0.567,6.15,3.42l0.32,0.523l0.068-0.096c1.173,1.274,5.044,5.646,5.715,8.49l0.073,0.314h0.049
				c0.217,0.572,0.682,2.069,0.133,3.132c-0.288,0.556-0.836,0.925-1.629,1.098l-4.206-1.751c-5.792-3.159-8.675-7.579-8.705-7.625
				l-0.685,0.439c0.12,0.187,3.02,4.645,9.017,7.909l4.257,1.776c0.079,0.144,0.136,0.284,0.171,0.426
				c0.407,1.684-2.867,2.969-4.26,3.354c-0.605-0.086-4.847-0.791-8.583-3.874c-3.872-3.194-3.836-4.974-3.836-4.981L13.5,106.72
				c-0.021,0.215-0.079,2.213,4.127,5.684c3.391,2.796,7.086,3.712,8.496,3.975c-0.307,0.48-0.825,1.096-1.458,1.283
				c-0.002,0-0.008,0.003-0.011,0.003l-0.014,0.002c-0.261,0.055-2.709,0.505-6.38-1.144c-1.849-0.833-2.837-1.587-3.361-2.132
				s-0.589-0.884-0.589-0.884l-0.812,0.06c0.013,0.182,0.252,1.822,4.425,3.696c2.417,1.087,4.331,1.32,5.534,1.32
				c0.366,0,0.668-0.021,0.896-0.049c-0.144,0.951-1.135,1.09-1.257,1.106l-0.046,0.005c-0.057,0.014-5.715,1.226-9.003,0.017
				c-3.198-1.177-4.092-3.701-4.1-3.726l-0.027-0.062c-0.017-0.03-1.678-3.281,0.879-10.189c0.003-0.014,0.006-0.024,0.011-0.035
				l0.002-0.006l0.003-0.006l0.014-0.037c0.002-0.017,0.011-0.033,0.016-0.047l-0.377-0.151l0.068-0.401
				C10.635,105.018,10.676,105.063,10.687,105.077z"/>
			<path d="M31.805,112.203c0.027,0.138,0.038,0.273,0.038,0.406h-0.456v-0.406H31.805z"/>
			<path d="M31.387,112.609h0.456c-0.013,2.267-3.893,3.533-4.8,3.799c-0.027,0.052-0.06,0.116-0.1,0.188l-0.234-0.125l0.095-0.809
				c-0.003,0-0.027-0.002-0.073-0.011c1.393-0.385,4.667-1.67,4.26-3.354c-0.035-0.142-0.092-0.282-0.171-0.426l0.125,0.052
				l0.157-0.377c0.141,0.225,0.234,0.444,0.285,0.656V112.609z"/>
			<path d="M31.783,112.105c0.008,0.032,0.014,0.064,0.022,0.098h-0.418v-0.407h0.38c-0.024,0.008-0.049,0.017-0.073,0.024
				C31.729,111.915,31.759,112.01,31.783,112.105z"/>
			<path d="M31.256,111.172l-0.155,0.375l-0.157,0.377l-0.125-0.052c-0.019-0.035-0.041-0.073-0.062-0.108l-0.317-0.505l0.586-0.111
				c0.038-0.008,0.076-0.016,0.114-0.024L31.256,111.172z"/>
			<path d="M31.14,111.123c-0.038,0.009-0.076,0.017-0.114,0.024l-0.586,0.111l0.317,0.505c0.022,0.035,0.043,0.073,0.062,0.108
				l-4.257-1.776c-5.998-3.265-8.897-7.723-9.017-7.909l0.685-0.439c0.03,0.046,2.913,4.466,8.705,7.625L31.14,111.123z"/>
			<path d="M27.328,97.349c-0.079,0.117-0.16,0.229-0.239,0.339l-0.291,0.401c-0.185-0.2-0.301-0.325-0.332-0.354l0.31-0.307
				l0.209-0.314C27.018,97.135,27.138,97.216,27.328,97.349z"/>
			<path d="M26.76,96.73l0.226,0.383l-0.209,0.314l-0.31,0.307c0.03,0.029,0.147,0.154,0.332,0.354l-0.068,0.096l-0.32-0.523
				c-1.749-2.853-5.659-3.365-6.15-3.42c-0.541,0.108-5.354,1.196-7.803,5.925c-2.074,4.008-1.806,4.835-1.771,4.911
				c-0.011-0.014-0.051-0.06-0.152-0.076l-0.068,0.401l-0.377-0.152c-0.011,0.027-0.019,0.049-0.027,0.073
				c-0.003,0.006-0.006,0.014-0.008,0.02c-0.011,0.027-0.019,0.052-0.027,0.073c-0.011,0.029-0.021,0.06-0.032,0.089
				c-0.014-0.019-0.024-0.038-0.036-0.06c-0.38-0.762,0.198-2.611,1.776-5.653c2.775-5.36,8.21-6.323,8.438-6.361l0.052-0.008
				l0.049,0.003C20.456,93.441,24.564,93.805,26.76,96.73z"/>
			<path d="M26.708,116.471l0.234,0.125c-0.285,0.49-0.88,1.353-1.757,1.737c-0.016,1.489-1.263,2.031-1.985,2.112
				c-0.296,0.065-2.739,0.569-5.359,0.569c-1.412,0-2.873-0.146-4.078-0.588c-3.421-1.261-4.458-3.866-4.578-4.2
				c-0.144-0.287-1.051-2.321-0.396-6.269c1.124-2.031,1.816-3.772,1.998-4.249l0.011-0.024c-2.558,6.908-0.896,10.159-0.879,10.189
				l0.027,0.062c0.008,0.024,0.902,2.549,4.1,3.726c3.288,1.209,8.946-0.003,9.003-0.017l0.046-0.005
				c0.122-0.017,1.113-0.155,1.257-1.106c0.312-0.035,0.489-0.079,0.516-0.084l-0.204-0.789c0.633-0.188,1.151-0.803,1.458-1.283
				C26.464,116.44,26.671,116.465,26.708,116.471z"/>
			<path d="M26.804,115.662l-0.095,0.809c-0.038-0.006-0.244-0.03-0.586-0.093c0.123-0.192,0.212-0.363,0.264-0.477l0.079-0.179
				l0.19-0.049c0.024-0.006,0.049-0.014,0.076-0.022C26.776,115.66,26.801,115.662,26.804,115.662z"/>
			<path d="M26.73,115.651c-0.027,0.009-0.052,0.017-0.076,0.022l-0.19,0.049l-0.079,0.179c-0.052,0.113-0.141,0.284-0.264,0.477
				c-1.409-0.263-5.104-1.179-8.496-3.975c-4.206-3.471-4.148-5.469-4.127-5.684l0.812,0.076c0,0.008-0.035,1.787,3.836,4.981
				C21.884,114.86,26.125,115.565,26.73,115.651z"/>
			<path d="M25.354,379.518l0.814,0.038c0,0.016-0.022,0.501-0.043,1.282c-0.448-0.64-0.692-1.061-0.717-1.099l-0.054-0.095v-0.108
				C25.354,379.525,25.354,379.521,25.354,379.518z"/>
			<path d="M24.664,117.661l0.204,0.789c-0.027,0.005-0.204,0.049-0.516,0.084c0.021-0.13,0.024-0.276,0.008-0.439l-0.035-0.339
				l0.315-0.09l0.014-0.002C24.656,117.664,24.662,117.661,24.664,117.661z"/>
			<path d="M24.64,117.666l-0.315,0.09l0.035,0.339c0.017,0.163,0.014,0.31-0.008,0.439c-0.228,0.027-0.53,0.049-0.896,0.049
				c-1.203,0-3.117-0.233-5.534-1.32c-4.173-1.874-4.412-3.515-4.425-3.696l0.812-0.06c0,0,0.065,0.339,0.589,0.884
				s1.512,1.299,3.361,2.132C21.93,118.171,24.379,117.721,24.64,117.666z"/>
			<path d="M10.467,105.402l0.377,0.151c-0.005,0.014-0.014,0.03-0.016,0.047l-0.014,0.037l-0.361-0.148L10.467,105.402z"/>
			<polygon points="10.814,105.638 10.812,105.644 10.453,105.489 			"/>
			<path d="M10.812,105.644l-0.002,0.006c-0.005,0.011-0.008,0.021-0.011,0.035l-0.011,0.024c-0.182,0.477-0.874,2.218-1.998,4.249
				c0.209-1.28,0.583-2.758,1.206-4.447c0,0-0.003,0,0-0.003c0.144,0.233,0.345,0.285,0.404,0.296l0.054-0.314L10.812,105.644z"/>
			<path d="M10.467,105.402l-0.014,0.087l-0.391-0.166c0.008-0.024,0.016-0.046,0.027-0.073L10.467,105.402z"/>
			<path d="M10.453,105.489l-0.054,0.314c-0.06-0.011-0.261-0.062-0.404-0.296c0,0,0,0,0-0.003c0.011-0.029,0.021-0.06,0.032-0.089
				c0.008-0.021,0.017-0.046,0.027-0.073c0.002-0.006,0.005-0.014,0.008-0.02L10.453,105.489z"/>
		</g>
		<g>
		</g>
	</g>
</g>
</svg>
