<?xml version="1.0" encoding="utf-8"?>
<!-- Generator: Adobe Illustrator 16.0.0, SVG Export Plug-In . SVG Version: 6.00 Build 0)  -->
<!DOCTYPE svg PUBLIC "-//W3C//DTD SVG 1.1//EN" "http://www.w3.org/Graphics/SVG/1.1/DTD/svg11.dtd">
<svg version="1.1" id="lines" xmlns="http://www.w3.org/2000/svg" xmlns:xlink="http://www.w3.org/1999/xlink" x="0px" y="0px"
	 width="768px" height="1550.646px" viewBox="0 0 768 1550.646" enable-background="new 0 0 768 1550.646" xml:space="preserve">
<g>
	<g id="XMLID_3_">
		<g>
			<path d="M353.76,1398.98l-9.13,1.399l-18.45-23.31c-3.64-4.601-2.58-13.61-1.31-19.62
				C327.35,1365.38,334.3,1380.2,353.76,1398.98z"/>
			<path fill="#4D4D4D" d="M455.47,1431.76c-0.09,0.181-0.22,0.44-0.41,0.76c-1.88,3.11-9.27,12.19-32.109,12.98
				c-0.53,0.02-1.05,0.03-1.58,0.03c-24.8,0-50.35-19.73-55.47-23.9c-0.25-0.21-0.45-0.37-0.6-0.5l-6.99-21.96l-0.29-0.27
				c-0.29-0.271-0.57-0.53-0.85-0.801c-26.57-25.17-30.16-43.39-30.61-46.649c-0.01-0.08-0.02-0.141-0.03-0.2l8.99-19.96
				l-0.85-17.08c9.79,7.07,26.19,12.57,48.83,16.39c15.72,2.66,29.61,3.62,33.41,3.851c2.149,6.01,4.359,11.09,6.33,15.59
				c4.34,9.979,7.22,16.58,5.31,23.57l-0.229,0.84l0.62,0.609C450.93,1397.05,455.04,1428.03,455.47,1431.76z"/>
			<path d="M708.72,497.92c4.03,3.09,10.32,11.01,6.33,19.66c-15.33,40.63-31.25,50.939-31.93,51.36
				c-3.41,2.02-33.311,19.55-40.93,18.88c-6.891-0.62-23.771-9.33-27.28-11.17c-3.05,1.149-15.58,5.229-27.54-0.29
				c-9.67-4.46-18.26-15.42-22.4-21.341l-3.2,75.521l-1.489-0.05l0.05-1.49l3.34-78.67l1.5,0.07l0.021-0.46
				c1.689,2.67,12.02,18.43,23.439,23.699c12.21,5.641,25.65,0.04,25.78-0.02l0.66-0.28l0.64,0.34
				c0.19,0.101,19.81,10.53,26.75,11.16c5.04,0.48,26.15-10.79,39.11-18.46c0.12-0.08,15.779-10.36,30.699-49.91l0.04-0.1
				c4.08-8.76-5.149-15.87-5.54-16.17l-0.27-0.26l-11.55-14.27l-0.08-0.34c-5.18-22.67-25.43-44.42-25.63-44.63l-0.21-0.28
				l-2.601-4.47c0.42-2.31,0.67-3.79,0.71-4.03l0.341-0.13l4.06,6.98c1.86,2,20.85,22.89,26.17,45.55L708.72,497.92z"/>
			<path fill="#FFFFFF" d="M706.77,500.2c0.391,0.3,9.62,7.41,5.54,16.17l-0.04,0.1c-14.92,39.55-30.579,49.83-30.699,49.91
				c-12.96,7.67-34.07,18.94-39.11,18.46c-6.94-0.63-26.56-11.06-26.75-11.16l-0.64-0.34l-0.66,0.28
				c-0.13,0.06-13.57,5.66-25.78,0.02c-11.42-5.27-21.75-21.029-23.439-23.699l5.75-132.36h15.51c0.979,0.93,2.12,1.65,3.14,2.18
				c-2.05,1.49-4.63,3.94-5.08,7.03c-0.08,0.53-0.09,1.05-0.04,1.56c-1.279-0.29-2.83-0.38-4.68-0.12l-0.28,0.04l-0.25,0.14
				c-2.74,1.55-4.29,3.51-4.6,5.82c-0.46,3.43,2.08,6.28,2.55,6.76c0.26,0.33,1.44,1.73,3.71,3.85c-1.04,2.13-1.97,6.95,3.12,15.5
				c5.94,9.97,22.55,13.97,27.19,14.91c0.01,0.11,0.02,0.23,0.039,0.36c0.29,2.6,1.431,7.91,5.801,13.48l0.16,0.2l0.21,0.14
				c4.34,2.75,8.96,3.67,13.189,3.67c8.12,0,14.8-3.38,15.21-3.59c0.26-0.13,6.59-3.43,11.73-17.32
				c3.88-10.46,7.39-28.27,8.859-36.24l2.601,4.47l0.21,0.28c0.2,0.21,20.45,21.96,25.63,44.63l0.08,0.34l11.55,14.27L706.77,500.2z
				"/>
			<path d="M663.9,410.1c6.84,13.37,4.96,19.47,3.58,21.69l-0.341,0.13l-2.949-0.5c0,0.02-0.04,0.21-0.091,0.54l-0.35-0.6l0.93-0.82
				c0.011-0.01,4.16-4.44-3.68-19.52l-0.24-0.47l0.101-0.51c2.34-11.71-3.971-16.6-4.65-17.09l-16.19-8.81
				c-0.359-0.31-3.729-2.98-6.63-0.08l-1.359,1.37l-0.38-0.63c0.699-0.23,1.1-0.35,1.119-0.36l-0.88-2.88l0.841-0.79
				c3.51-2.2,7.319-0.49,9.119,0.98l15.98,8.67C658.19,390.66,666.43,396.33,663.9,410.1z"/>
			<path d="M664.19,431.42l2.949,0.5c-0.04,0.24-0.29,1.72-0.71,4.03l-2.33-3.99C664.15,431.63,664.19,431.44,664.19,431.42z"/>
			<path d="M664.1,431.96l2.33,3.99c-1.47,7.97-4.979,25.78-8.859,36.24c-5.141,13.89-11.471,17.19-11.73,17.32
				c-0.41,0.21-7.09,3.59-15.21,3.59c-4.229,0-8.85-0.92-13.189-3.67l-0.21-0.14l-0.16-0.2c-4.37-5.57-5.511-10.88-5.801-13.48
				l1.23-0.12c0.15,0.02,0.79,0.08,1.8,0.14c0.32,2.28,1.38,6.74,4.97,11.41c11.19,6.89,25.07-0.13,25.211-0.21
				c0.06-0.03,5.609-3.06,10.279-15.68C659.26,458.98,663.42,435.78,664.1,431.96z"/>
			<path fill="#FFFFFF" d="M661,411.02c7.84,15.08,3.69,19.51,3.68,19.52l-0.93,0.82l0.35,0.6c-0.68,3.82-4.84,27.02-9.34,39.19
				c-4.67,12.62-10.22,15.65-10.279,15.68c-0.141,0.08-14.021,7.1-25.211,0.21c-3.59-4.67-4.649-9.13-4.97-11.41
				c0.97,0.06,2.3,0.12,3.87,0.12c7.63,0,21.04-1.29,28.14-9.61l-2.279-1.95c-8.7,10.19-29.351,8.49-31.08,8.33
				c-0.07-0.01-0.11-0.01-0.12-0.01c-1.48-0.27-20.35-3.86-26.21-13.71c-3.75-6.29-3.73-10-3.271-11.81
				c2.24,1.9,5.15,4.14,8.801,6.55l0.26,0.14c13.99,5.72,25.37,7.43,33.979,7.43c12.38,0,19.04-3.54,19.5-3.8l-1.449-2.62
				c-0.171,0.09-18.051,9.59-50.761-3.73c-9.87-6.56-14.13-11.84-14.17-11.89l-0.12-0.13c-0.02-0.02-2.06-2.12-1.76-4.32
				c0.18-1.27,1.14-2.43,2.86-3.46c2.899-0.35,4.66,0.41,5.64,1.14c0.39,0.5,0.84,0.98,1.351,1.46c4.25,3.98,21.039,4.96,36.56,4.96
				c13.32,0,25.7-0.72,28.39-0.89l-0.189-2.99c-40.221,2.5-59.32-0.49-62.59-3.17c-0.221-0.33-0.65-0.89-1.341-1.47
				c-0.699-1-0.97-1.98-0.829-2.97c0.399-2.83,4.119-5.37,5.8-6.27c2.739-0.29,22.05-2.45,34.54-6.71
				c12.68-4.33,23.109-3.44,23.21-3.43l0.279-2.98c-0.449-0.05-11.14-0.98-24.47,3.57c-11.99,4.1-31.2,6.28-33.859,6.57
				c-0.2-0.07-0.44-0.16-0.711-0.27c-1.18-0.49-2.92-1.39-4.1-2.65c-0.96-1.03-1.39-2.1-1.34-3.29c0.1-2.08,1.77-4.61,4.83-7.32
				c3.03-2.67,7.13-5.41,12.22-8.13l-0.7-1.31l0.71,1.31c11.13-5.97,23.95-10.3,27.761-11.52l0.38,0.63l1.359-1.37
				c2.9-2.9,6.271-0.23,6.63,0.08l16.19,8.81c0.68,0.49,6.99,5.38,4.65,17.09l-0.101,0.51L661,411.02z"/>
			<path d="M652.24,434.84l0.189,2.99c-2.689,0.17-15.069,0.89-28.39,0.89c-15.521,0-32.31-0.98-36.56-4.96
				c-0.511-0.48-0.961-0.96-1.351-1.46c0.72,0.52,1.03,1.04,1.05,1.09l2.65-1.42c-0.01-0.03-0.07-0.14-0.18-0.3
				C592.92,434.35,612.02,437.34,652.24,434.84z"/>
			<path d="M651.31,407.84l-0.279,2.98c-0.101-0.01-10.53-0.9-23.21,3.43c-12.49,4.26-31.801,6.42-34.54,6.71
				c0.08-0.05,0.16-0.08,0.229-0.12l-1.35-2.68l0.109-0.45c0.271,0.11,0.511,0.2,0.711,0.27c2.659-0.29,21.869-2.47,33.859-6.57
				C640.17,406.86,650.86,407.79,651.31,407.84z"/>
			<path d="M644.03,464.19l2.279,1.95c-7.1,8.32-20.51,9.61-28.14,9.61c-1.57,0-2.9-0.06-3.87-0.12c-0.13-0.99-0.13-1.57-0.13-1.59
				l0.03-1.3l-1.25-0.22C614.68,472.68,635.33,474.38,644.03,464.19z"/>
			<path d="M644.44,454.69l1.449,2.62c-0.46,0.26-7.12,3.8-19.5,3.8c-8.609,0-19.989-1.71-33.979-7.43l-0.26-0.14
				c-3.65-2.41-6.561-4.65-8.801-6.55c0.24-0.95,0.601-1.38,0.61-1.39l-2.16-2.08c-0.13,0.13-0.51,0.55-0.88,1.32
				c-2.27-2.12-3.45-3.52-3.71-3.85c-0.47-0.48-3.01-3.33-2.55-6.76c0.31-2.31,1.859-4.27,4.6-5.82l0.25-0.14l0.28-0.04
				c1.85-0.26,3.4-0.17,4.68,0.12c0.12,1.36,0.681,2.68,1.66,3.95c-0.979-0.73-2.74-1.49-5.64-1.14
				c-1.721,1.03-2.681,2.19-2.86,3.46c-0.3,2.2,1.74,4.3,1.76,4.32l0.12,0.13c0.04,0.05,4.3,5.33,14.17,11.89
				C626.39,464.28,644.27,454.78,644.44,454.69z"/>
			<path d="M631.89,381.56l0.88,2.88c-0.02,0.01-0.42,0.13-1.119,0.36l-0.61-1.03c-0.32-0.53-0.64-1.07-0.99-1.62
				C631.2,381.77,631.86,381.57,631.89,381.56z"/>
			<path d="M632.73,380.77l-0.841,0.79c-0.029,0.01-0.689,0.21-1.84,0.59c-13-20.84-42.79-49.83-43.09-50.12l-0.22-0.27
				c-8.32-13.03-36.55-45.69-84.46-77.14c0.09-1.48,0.2-2.38,0.21-2.42l0.47-0.71c48.78,31.83,77.62,65.11,86.21,78.51
				C591.33,332.1,620.01,360.29,632.73,380.77z"/>
			<path d="M631.04,383.77l0.61,1.03c-3.811,1.22-16.631,5.55-27.761,11.52l-0.71-1.31V395l-0.01-0.01v-1.49h-0.36
				c10.671-5.68,22.721-9.86,27.24-11.35C630.4,382.7,630.72,383.24,631.04,383.77z"/>
			<path fill="#FFFFFF" d="M630.05,382.15c-4.52,1.49-16.569,5.67-27.24,11.35H184.62c-7.4-15.05-25.81-28.66-30.85-32.2
				c8.22-12.02,13.91-29.14,14.15-29.88l0.05-0.16c8.16-38.7,68.18-72.27,82.59-79.82c-2.24,8.15-6.69,29.06,1.11,44.25
				c9.6,18.69,40.79,35.85,42.14,36.59c0.23,0.12,23.01,11.98,28.26,28.67c0.77,2.44,2.48,4.33,5.08,5.6c2.89,1.42,6.81,2,11.31,2
				c19.78,0,50.61-11.24,52.98-12.11c1.38-0.34,22.46-5.25,52.869-1.45c2.29,0.28,4.48,0.42,6.591,0.42
				c28.05-0.01,40.79-23.51,40.93-23.77c0.13-0.24,12.67-24.58,14.67-55.04l0.03-0.47l-0.24-0.4c-4.24-7.06-4.271-16.68-4.01-21.11
				c47.91,31.45,76.14,64.11,84.46,77.14l0.22,0.27C587.26,332.32,617.05,361.31,630.05,382.15z"/>
			<path d="M614.3,475.63c-1.01-0.06-1.649-0.12-1.8-0.14l0.33-2.98c0.01,0,0.05,0,0.12,0.01l1.25,0.22l-0.03,1.3
				C614.17,474.06,614.17,474.64,614.3,475.63z"/>
			<path d="M612.83,472.51l-0.33,2.98l-1.23,0.12c-0.02-0.13-0.029-0.25-0.039-0.36c-4.641-0.94-21.25-4.94-27.19-14.91
				c-5.09-8.55-4.16-13.37-3.12-15.5c0.7,0.65,1.51,1.37,2.43,2.15c-0.46,1.81-0.479,5.52,3.271,11.81
				C592.48,468.65,611.35,472.24,612.83,472.51z"/>
			<path d="M603.18,395.01l0.7,1.31c-5.09,2.72-9.189,5.46-12.22,8.13c-3.061,2.71-4.73,5.24-4.83,7.32
				c-0.05,1.19,0.38,2.26,1.34,3.29c1.18,1.26,2.92,2.16,4.1,2.65l-0.109,0.45c-0.11,0.06-1.23,0.62-2.57,1.6
				c-1.02-0.53-2.16-1.25-3.14-2.18h0.62v-1.5v-1.5h-1.08c-1.37-2.58-0.96-6.26,4.68-11.25c2.74-2.43,6.14-4.72,9.811-6.83h2.699
				V395.01z"/>
			<polygon points="603.18,395 603.18,395.01 603.17,395 			"/>
			<path d="M603.18,395.01v1.49h-2.699c0.88-0.51,1.779-1.01,2.689-1.5L603.18,395.01z"/>
			<path d="M603.17,394.99l-0.7-1.31c0.11-0.06,0.23-0.12,0.34-0.18h0.36V394.99z"/>
			<path d="M602.47,393.68l0.7,1.31l-0.71-1.31c-0.82,0.44-1.61,0.88-2.38,1.32H185.32l-0.29-0.63c-0.13-0.29-0.27-0.58-0.41-0.87
				H602.81C602.7,393.56,602.58,393.62,602.47,393.68z"/>
			<path d="M603.17,394.99V395h-3.09c0.77-0.44,1.56-0.88,2.38-1.32L603.17,394.99z"/>
			<path d="M600.08,395h3.09c-0.91,0.49-1.81,0.99-2.689,1.5h-2.94C598.35,396,599.2,395.5,600.08,395z"/>
			<path d="M597.54,396.5h2.94c-3.671,2.11-7.07,4.4-9.811,6.83c-5.64,4.99-6.05,8.67-4.68,11.25h-1.65
				c-0.39-0.94-0.55-1.92-0.5-2.95c0.141-2.95,2.101-6.12,5.83-9.42C591.81,400.32,594.44,398.41,597.54,396.5z"/>
			<path d="M185.32,395h414.76c-0.88,0.5-1.73,1-2.54,1.5H186.01L185.32,395z"/>
			<path fill="#FBB03B" d="M186.01,396.5h411.53c-3.1,1.91-5.73,3.82-7.87,5.71c-3.729,3.3-5.689,6.47-5.83,9.42
				c-0.05,1.03,0.11,2.01,0.5,2.95h-16.28l-5.68,130.75l-0.21,4.93l-3.28,77.2l-20.55-0.63h-0.149l-1.94-0.061l0.02,0.051
				L193.99,625.01l-0.16-20.26v-0.43V567v-0.82l0.17-151.6h-23.88c2.96-0.98,5.1-2.7,6.36-5.15c2.27-4.4,1.01-9.94,0.03-12.93h7.16
				H186.01z M560,416.14l0.06-1.56H203V617.81l348.44,3.71L560,416.14z"/>
			<path d="M592.16,418.16l1.35,2.68c-0.069,0.04-0.149,0.07-0.229,0.12c-0.15,0.01-0.25,0.02-0.3,0.03l-0.29,0.03l-0.28-0.08
				c-0.09-0.03-1.32-0.4-2.82-1.18C590.93,418.78,592.05,418.22,592.16,418.16z"/>
			<path d="M592.98,420.99c0.05-0.01,0.149-0.02,0.3-0.03c-1.681,0.9-5.4,3.44-5.8,6.27c-0.141,0.99,0.13,1.97,0.829,2.97
				c-0.85-0.72-2.1-1.47-3.84-1.85c-0.05-0.51-0.04-1.03,0.04-1.56c0.45-3.09,3.03-5.54,5.08-7.03c1.5,0.78,2.73,1.15,2.82,1.18
				l0.28,0.08L592.98,420.99z"/>
			<path d="M589.83,431.97l-2.65,1.42c-0.02-0.05-0.33-0.57-1.05-1.09c-0.979-1.27-1.54-2.59-1.66-3.95
				c1.74,0.38,2.99,1.13,3.84,1.85c0.32,0.45,0.721,0.91,1.221,1.37c0.04,0.03,0.08,0.07,0.12,0.1
				C589.76,431.83,589.82,431.94,589.83,431.97z"/>
			<path d="M589.65,431.67c-0.04-0.03-0.08-0.07-0.12-0.1c-0.5-0.46-0.9-0.92-1.221-1.37C589,430.78,589.43,431.34,589.65,431.67z"
				/>
			<path d="M587.07,416.08v1.5h-0.62c-0.17-0.16-0.33-0.32-0.48-0.48c-0.31-0.33-0.58-0.67-0.819-1.02H587.07z"/>
			<path d="M587.07,414.58v1.5c-0.42-0.45-0.79-0.95-1.08-1.5H587.07z"/>
			<path d="M587.07,416.08h-1.92c-0.341-0.48-0.61-0.98-0.811-1.5h1.65C586.28,415.13,586.65,415.63,587.07,416.08z"/>
			<path d="M586.45,417.58h-15.51l-5.75,132.36c-0.15-0.24-0.23-0.381-0.24-0.391l-1.16-1.91l5.71-131.56h15.65
				c0.239,0.35,0.51,0.69,0.819,1.02C586.12,417.26,586.28,417.42,586.45,417.58z"/>
			<path d="M585.15,416.08H569.5l-5.71,131.56l-1.41-2.31l5.68-130.75h16.28C584.54,415.1,584.81,415.6,585.15,416.08z"/>
			<path d="M581.8,443.52l2.16,2.08c-0.01,0.01-0.37,0.44-0.61,1.39c-0.92-0.78-1.729-1.5-2.43-2.15
				C581.29,444.07,581.67,443.65,581.8,443.52z"/>
			<path d="M565.19,549.94l-0.021,0.46l-1.5-0.07l0.12-2.69l1.16,1.91C564.96,549.56,565.04,549.7,565.19,549.94z"/>
			<polygon points="562.38,545.33 563.79,547.64 563.67,550.33 562.17,550.26 			"/>
			<path d="M563.67,550.33L560.33,629c0,0,0,0-22-0.67l0.01-1.5l20.55,0.63l3.28-77.2L563.67,550.33z"/>
			<path d="M560.33,629l-0.05,1.49l-19.95-0.601c5,19.75-1.561,60.88-1.85,62.681l-0.101,0.34c-0.54,1.29-12.99,30.99-23.24,37.25
				c0.011-0.28,0.021-0.57,0.03-0.851l-3-0.079l-0.31-0.841c0.409-0.14,0.79-0.3,1.14-0.47c7.75-3.82,18.83-27.12,22.55-36
				c0.47-3.02,6.74-43.99,1.66-62.1l1.11,0.01l0.01-1.5C560.33,629,560.33,629,560.33,629z"/>
			<path d="M560.06,414.58l-0.06,1.56l-8.56,205.379L203,617.81V414.58H560.06z M550,620l8.5-203.92h-354v200.25L550,620z"/>
			<path d="M558.5,416.08L550,620l-345.5-3.67V416.08H558.5z M548.56,618.48l8.381-200.9H206v197.27L548.56,618.48z"/>
			<polygon fill="#F4E398" points="556.94,417.58 548.56,618.48 206,614.85 206,417.58 			"/>
			<polygon points="538.34,626.83 538.33,628.33 536.75,628.32 536.27,626.82 538.19,626.83 			"/>
			<path d="M538.33,628.33l-0.01,1.5l-1.11-0.01c-0.1-0.351-0.2-0.7-0.31-1.03l-0.15-0.47L538.33,628.33z"/>
			<polygon points="538.19,626.83 536.27,626.82 536.25,626.77 			"/>
			<path fill="#FFFFFF" d="M537.21,629.82c5.08,18.109-1.19,59.08-1.66,62.1c-3.72,8.88-14.8,32.18-22.55,36
				c-0.35,0.17-0.73,0.33-1.14,0.47c-10.82,3.891-42.98-0.56-43.32-0.609l-0.46-0.061l-0.41,0.2c-0.189,0.1-19.96,9.6-41.38,10.25
				c-21.59,0.64-56.69-5.26-57.04-5.32l-0.29-0.05l-0.28,0.061c-0.36,0.08-36.64,7.92-56.15,5.319
				c-19.46-2.6-33.34-10.149-33.4-10.18c-0.12-0.07-12-7.65-23.07-18.73l-1.2-1.199l-1.04,1.34c-0.96,1.229-2.07,1.899-3.41,2.05
				c-2.94,0.34-6.01-1.94-6.41-2.26c-0.63-0.61-4.96-4.59-13.26-6.97l-0.69-0.2l-0.59,0.42c-3.2,2.28-11.5,0.79-14.96-0.11
				c-0.99-1.13-4.36-5.05-8.86-10.6c-6.45-7.971-15.21-19.311-22.58-30.69c-2.99-11.399,5.91-34.59,6-34.83l-1.38-0.529h-0.01
				l-0.03-0.04l-0.83-1.21c-0.33,0.229-1.87,1.21-2.87,0.67c0.75-3.63,4.17-10.311,6.93-15.271l0.14,18.15L537.21,629.82z"/>
			<path d="M537.21,629.82l-346.2-1.83l-0.14-18.15c0.52-0.939,1.03-1.82,1.48-2.609l0.15,19.27l344.25,1.82l0.15,0.47
				C537.01,629.12,537.11,629.47,537.21,629.82z"/>
			<path d="M536.27,626.82l0.48,1.5L192.5,626.5l-0.15-19.27c0.48-0.83,0.91-1.551,1.26-2.12l0.22-0.36l0.16,20.26L536.27,626.82z"
				/>
			<path d="M515.17,729.31c-0.01,0.28-0.02,0.57-0.03,0.851c-0.27,0.17-0.54,0.32-0.81,0.45c-0.65,0.319-1.4,0.609-2.23,0.85
				c0.03-0.75,0.051-1.49,0.07-2.229L515.17,729.31z"/>
			<path d="M514.33,730.61c0.27-0.13,0.54-0.28,0.81-0.45c-1.21,40.71-10.229,81.02-11.109,84.88
				c0.649,3.91,6.42,42.78-11.011,89.18c5.04,74.601-12.88,114.681-15.399,119.9c1.66,5.18,12.88,40.5,12.88,52.88
				c0,12.44-11.05,26.22-13.07,28.63c-0.46,3.46-3.66,24.28-13.72,30.17c7.36,34.49-5.37,84.181-6.229,87.48
				c-0.4,3.25-6.511,50.67-29.061,58.83c-1.09,12.34-6.68,19.87-8.67,22.189c1.75,4.34,8.43,22.62,0.05,29.28l-1.819-0.09l0.09-1.99
				c-0.03,0-0.19-0.01-0.48-0.03c6.74-4.68,1.63-20.91-0.97-26.87l-0.4-0.939l0.721-0.72c0.069-0.07,7.619-7.841,8.56-22.04
				l0.07-1.03l0.989-0.3c21.811-6.641,27.891-56.24,27.95-56.74l0.04-0.21c0.141-0.53,13.811-53.05,5.99-87.29l-0.28-1.19l1.12-0.51
				c10.101-4.59,13.101-28.57,13.13-28.81l0.061-0.45l0.3-0.351c0.12-0.149,12.63-14.739,12.63-27.02
				c0-12.62-12.8-52.14-12.93-52.54l-0.19-0.6l0.29-0.561c0.21-0.399,20.73-40.149,15.33-119.2l-0.02-0.319l0.119-0.311
				c18.12-48,11-87.8,10.931-88.189l-0.061-0.32l0.07-0.3c0.1-0.42,9.64-41.391,11.06-83.2
				C512.93,731.22,513.68,730.93,514.33,730.61z"/>
			<path d="M514.3,97.74c0.16,0.28,3.96,6.94-0.12,12.18l-0.33,0.43l-18.39,3.88l-2.94,78.75c2.311,2.85,13.841,17.78,10.94,29.38
				l-0.07,0.27l-8.52,12.3c1.96,2.52,7.17,9.79,7.6,16.24c0.16,0.11,0.33,0.21,0.49,0.32l-0.47,0.71l-2.98-0.41
				c0,0.01,0,0.04-0.01,0.07c-0.1-6.84-7.57-15.8-7.65-15.89l-0.729-0.88l9.49-13.71c2.51-11.11-10.62-26.75-10.75-26.91l-0.38-0.44
				l3.06-82.26l19.58-4.12c2.05-3.2,0.17-7.28-0.311-8.2c-1.819-1.6-16.67-14.25-32.069-16.97l-1.24-0.22V81
				c0-6.15-2.49-9.37-3.51-10.43c-4.561,0.54-19.74,1.79-21.44-5.17c-11.26-35.69-30.399-54.64-30.6-54.83
				c-0.23-0.22-3.54-3.42-8.79-4.62l0.62-2.88c6.26,1.44,10.21,5.3,10.279,5.37c0.79,0.77,19.891,19.67,31.37,56.11l0.03,0.11
				c0.83,3.57,11.521,3.82,18.84,2.85l0.63-0.08l0.49,0.39c0.2,0.15,4.63,3.7,5.05,11.93c16.75,3.47,31.891,17.05,32.54,17.64
				l0.17,0.15L514.3,97.74z"/>
			<path fill="#FFFFFF" d="M511.81,99.45c0.48,0.92,2.36,5,0.311,8.2l-19.58,4.12l-3.06,82.26l0.38,0.44
				c0.13,0.16,13.26,15.8,10.75,26.91l-9.49,13.71l0.729,0.88c0.08,0.09,7.551,9.05,7.65,15.89c0,0.01,0,0.03,0,0.04
				c-0.19,1.47-1.74,15.01,3.97,24.96c-2.05,29.59-14.18,53.16-14.3,53.39c-0.13,0.25-13.87,25.59-44.479,21.76
				c-31.921-3.99-53.171,1.31-54.061,1.54l-0.149,0.04c-0.391,0.15-32.641,12.01-52.021,12.01c-4.01,0-7.48-0.51-9.99-1.74
				c-1.86-0.91-3.02-2.16-3.54-3.81c-5.62-17.89-28.76-29.93-29.71-30.42c-0.32-0.17-31.7-17.43-40.89-35.32
				c-8.56-16.68-1-41.9-0.02-45.01c0.87-0.93,3.05-3.51,2.68-5.78c-0.17-1.02-0.81-1.86-1.9-2.4c-5.96-2.56-6.09-8.38-6.09-8.69
				l-6.04-137.48l-6.86-2.63c-1.55-3.53-0.08-5.21-0.04-5.26l0.09-0.09c0.1-0.12,10.08-11.49,39.37-11.97l0.27-0.03
				c25.42-5.01,40.95-16.28,41.6-16.76l0.57-0.42l0.04-0.71c0-0.09,0.59-9.35,7.23-19.66c8.78-13.64,24.19-22.95,44.48-26.94
				c2.04-0.29,3.58-0.04,4.6,0.73c1.04,0.79,1.19,1.91,1.2,1.94l0.14,1.45l1.46-0.1c0.58-0.05,14.41-1.09,25.081-7.16
				c4.569-2.1,8.659-2.14,11.97-1.39c5.25,1.2,8.56,4.4,8.79,4.62c0.2,0.19,19.34,19.14,30.6,54.83c1.7,6.96,16.88,5.71,21.44,5.17
				c1.02,1.06,3.51,4.28,3.51,10.43v1.26l1.24,0.22C495.14,85.2,509.99,97.85,511.81,99.45z M470,240.93
				c0.04-0.76,4.48-76.73,3-141.05l-0.03-1.26l-1.239-0.19c-23.131-3.64-54.601-5.48-93.541-5.48c-56.82,0-110.27,4-110.8,4.04
				l-1.28,0.1l-0.1,1.27c-0.04,0.47-3.98,48.08-1.51,136.35l0.03,1.13l1.09,0.28c31.57,8.27,69.11,12.47,111.6,12.47
				c50.919,0,91.11-6.21,91.51-6.27l1.199-0.19L470,240.93z"/>
			<path d="M511.86,728.39l0.31,0.841c-0.02,0.739-0.04,1.479-0.07,2.229c-11.64,3.48-39.479-0.1-43.529-0.64
				c-3.07,1.43-21.61,9.72-42.19,10.35c-20.86,0.62-53.91-4.74-57.34-5.31c-3.15,0.67-27.96,5.859-47.21,5.859
				c-3.47,0-6.75-0.17-9.7-0.56c-20.05-2.68-33.94-10.26-34.53-10.58c-0.19-0.12-11.57-7.37-22.55-18.1
				c-1.24,1.13-2.69,1.779-4.32,1.97c-4.4,0.49-8.51-2.82-8.68-2.96l-0.12-0.11c-0.03-0.03-3.81-3.76-11.38-6.08
				c-5.36,2.99-16.04,0.16-17.28-0.18l-0.43-0.12l-0.3-0.34c-0.07-0.08-3.13-3.57-7.66-9.09l0.41-3.54l0.35-0.29
				c4.5,5.55,7.87,9.47,8.86,10.6c3.46,0.9,11.76,2.391,14.96,0.11l0.59-0.42l0.69,0.2c8.3,2.38,12.63,6.359,13.26,6.97
				c0.4,0.319,3.47,2.6,6.41,2.26c1.34-0.15,2.45-0.82,3.41-2.05l1.04-1.34l1.2,1.199c11.07,11.08,22.95,18.66,23.07,18.73
				c0.06,0.03,13.94,7.58,33.4,10.18c19.51,2.601,55.79-5.239,56.15-5.319l0.28-0.061l0.29,0.05c0.35,0.061,35.45,5.96,57.04,5.32
				c21.42-0.65,41.19-10.15,41.38-10.25l0.41-0.2l0.46,0.061C468.88,727.83,501.04,732.28,511.86,728.39z"/>
			<path d="M506.29,275.73l0.24,0.4l-0.03,0.47c-2,30.46-14.54,54.8-14.67,55.04c-0.14,0.26-12.88,23.76-40.93,23.77
				c-2.11,0-4.301-0.14-6.591-0.42c-30.409-3.8-51.489,1.11-52.869,1.45c-2.37,0.87-33.2,12.11-52.98,12.11
				c-4.5,0-8.42-0.58-11.31-2c-2.6-1.27-4.31-3.16-5.08-5.6c-5.25-16.69-28.03-28.55-28.26-28.67c-1.35-0.74-32.54-17.9-42.14-36.59
				c-7.8-15.19-3.35-36.1-1.11-44.25c1.9-1,3.01-1.55,3.1-1.59l0.22-0.11l0.18-0.18c0.06-0.06,0.15-0.15,0.25-0.26
				c-0.98,3.11-8.54,28.33,0.02,45.01c9.19,17.89,40.57,35.15,40.89,35.32c0.95,0.49,24.09,12.53,29.71,30.42
				c0.52,1.65,1.68,2.9,3.54,3.81c2.51,1.23,5.98,1.74,9.99,1.74c19.38,0,51.63-11.86,52.021-12.01l0.149-0.04
				c0.89-0.23,22.14-5.53,54.061-1.54c30.609,3.83,44.35-21.51,44.479-21.76c0.12-0.23,12.25-23.8,14.3-53.39
				c-5.71-9.95-4.16-23.49-3.97-24.96c0,0.03,0,0.07,0,0.1v0.82l0.68,0.44c0.7,0.46,1.41,0.91,2.101,1.36
				C502.02,259.05,502.05,268.67,506.29,275.73z"/>
			<path fill="#FFFFFF" d="M512.1,731.46c-1.42,41.81-10.96,82.78-11.06,83.2l-0.07,0.3l0.061,0.32
				c0.069,0.39,7.189,40.189-10.931,88.189l-0.119,0.311L490,904.1c5.4,79.051-15.12,118.801-15.33,119.2l-0.29,0.561l0.19,0.6
				c0.13,0.4,12.93,39.92,12.93,52.54c0,12.28-12.51,26.87-12.63,27.02l-0.3,0.351l-0.061,0.45
				c-0.029,0.239-3.029,24.22-13.13,28.81l-1.12,0.51l0.28,1.19c7.82,34.24-5.85,86.76-5.99,87.29l-0.04,0.21
				c-0.06,0.5-6.14,50.1-27.95,56.74l-0.989,0.3l-0.07,1.03c-0.94,14.199-8.49,21.97-8.56,22.04l-0.721,0.72l0.4,0.939
				c2.6,5.96,7.71,22.19,0.97,26.87c-5.81-0.33-62.08-3.95-82.97-21.069c0.44-3.341,1.23-14.971-8.64-20.57
				c-7.83-9.87-0.11-20.48,0.22-20.93l0.57-0.75l-0.44-0.841c-0.12-0.239-12.36-24.43,4.87-47.409l0.3-0.4v-0.5
				c0-34.89,12.99-49.85,13.11-50l0.75-0.83l-0.58-0.95c-0.13-0.22-12.93-21.64,0.08-49.59c13.55-29.11,4.98-73.07,4.61-74.92
				l-0.04-0.229l-10.41-18.82c0.25-4.07,2.26-35.86,5.97-65.98l0.06-0.47l-0.22-0.41c-0.5-0.939-0.94-1.859-1.37-2.74
				c-2.41-5.01-4.66-8.76-11.15-10.3c-3.85-0.93-9.2-1.08-16.97-0.25l-1.05,0.11l-0.25,1.03c-8.34,34.359-35.05,78.13-35.32,78.569
				l-0.16,0.261l-0.04,0.31c-0.04,0.27-4.22,27.9-25.67,53.24l-0.46,0.55l0.14,0.71c5.88,29.43-0.95,89.93-1.02,90.54l-0.07,0.63
				l0.4,0.49c0.16,0.189,16.13,20.04,13.27,31.46c-0.72,2.859-2.58,4.899-5.69,6.21l-1.24,0.52l0.38,1.28
				c4.75,16.15,0.14,25.82,0.1,25.91l-0.25,0.49l0.13,0.529c1.35,5.67,4.01,21.73,0.19,27.86l-0.32,0.5l0.12,0.58
				c1.72,8.63-6.73,12.17-7.09,12.32l-0.45,0.18l-5.19,8.3c-0.01,0.01-0.01,0.01-0.02,0.021c-1.56,1.779-27.88,30.51-72.97,17.56
				c-1.29-1.479-6.96-8.86-4.93-22.45l0.16-1.05l-0.94-0.5c-27.23-14.28-20.92-45.05-20.63-46.35l0.1-0.49l-0.21-0.45
				c-0.12-0.27-12.13-26.729-15.87-53.57c-10.84-86.67,6.29-153.76,6.46-154.43l0.06-0.22l-0.01-0.22
				c-0.01-0.12-0.28-12.061,11.36-36.801c11.99-25.479,14.54-78.81,14.64-81.069V906v-0.07c-0.02-0.41-1.88-41.35,7.97-88.12
				c9.84-46.76,29.68-87.47,29.88-87.869l0.11-0.24l3.92-34.13c4.53,5.52,7.59,9.01,7.66,9.09l0.3,0.34l0.43,0.12
				c1.24,0.34,11.92,3.17,17.28,0.18c7.57,2.32,11.35,6.05,11.38,6.08l0.12,0.11c0.17,0.14,4.28,3.45,8.68,2.96
				c1.63-0.19,3.08-0.84,4.32-1.97c10.98,10.729,22.36,17.979,22.55,18.1c0.59,0.32,14.48,7.9,34.53,10.58
				c2.95,0.39,6.23,0.56,9.7,0.56c19.25,0,44.06-5.189,47.21-5.859c3.43,0.569,36.479,5.93,57.34,5.31
				c20.58-0.63,39.12-8.92,42.19-10.35C472.62,731.36,500.46,734.94,512.1,731.46z"/>
			<path d="M499.51,251.79l2.98,0.41c-0.01,0.04-0.12,0.94-0.21,2.42c-0.69-0.45-1.4-0.9-2.101-1.36l-0.68-0.44V252
				c0-0.03,0-0.07,0-0.1c0-0.01,0-0.03,0-0.04C499.51,251.83,499.51,251.8,499.51,251.79z"/>
			<path d="M473,99.88c1.48,64.32-2.96,140.29-3,141.05l-0.07,1.2l-1.199,0.19c-0.4,0.06-40.591,6.27-91.51,6.27
				c-42.49,0-80.03-4.2-111.6-12.47l-1.09-0.28l-0.03-1.13c-2.47-88.27,1.47-135.88,1.51-136.35l0.1-1.27l1.28-0.1
				c0.53-0.04,53.98-4.04,110.8-4.04c38.94,0,70.41,1.84,93.541,5.48l1.239,0.19L473,99.88z M468.5,240.84c0,0,4.5-75.92,3-140.93
				c-72.5-11.39-204-1.42-204-1.42s-4,46.97-1.5,136.18C356.5,258.39,468.5,240.84,468.5,240.84z"/>
			<path d="M471.5,99.91c1.5,65.01-3,140.93-3,140.93s-112,17.55-202.5-6.17c-2.5-89.21,1.5-136.18,1.5-136.18
				S399,88.52,471.5,99.91z M467.07,239.54c0.56-9.96,4.26-78.88,2.96-138.34c-22.86-3.48-53.75-5.25-91.84-5.25
				c-51.82,0-100.83,3.34-109.29,3.94c-0.6,8.07-3.62,54.18-1.43,133.61c31.09,8.02,68.01,12.09,109.75,12.09
				C423,245.59,460.05,240.55,467.07,239.54z"/>
			<path fill="#D6D6D6" d="M470.03,101.2c1.3,59.46-2.4,128.38-2.96,138.34c-7.021,1.01-44.07,6.05-89.85,6.05
				c-41.74,0-78.66-4.07-109.75-12.09c-2.19-79.43,0.83-125.54,1.43-133.61c8.46-0.6,57.47-3.94,109.29-3.94
				C416.28,95.95,447.17,97.72,470.03,101.2z M425.17,234.21l0.68-0.74c-11.869-10.82-21.68-21.48-29.79-31.69
				c5.381-1.76,10.82-3.72,16.28-5.92l-0.37-0.92c-5.56,2.23-11.09,4.23-16.56,6.01c-5.86-7.45-10.82-14.67-15.01-21.53
				c6.81-2.1,13.72-4.52,20.67-7.32l-0.37-0.93c-7.01,2.82-13.98,5.26-20.84,7.36c-4.32-7.16-7.81-13.93-10.62-20.18
				c10.34-2.72,21.04-6.17,31.83-10.5l-0.37-0.93c-10.811,4.34-21.52,7.79-31.87,10.51c-3.8-8.54-6.32-16.1-8.01-22.34
				c12.89-3,26.5-7.08,40.25-12.61l-0.37-0.92c-13.71,5.51-27.28,9.57-40.13,12.56c-2.94-11.2-3.11-17.91-3.12-18.1l-1,0.02
				c0,0.1,0.13,6.94,3.08,18.32c-10.96,2.5-21.38,4.22-30.92,5.39c-3.41-12.48-3.32-19.96-3.32-20.15l-1-0.03
				c0,0.1-0.15,7.69,3.24,20.3c-12.77,1.53-23.91,2.06-32.55,2.16c-4.07-13.85-3.97-22.22-3.97-22.43l-1-0.03
				c0,0.1-0.17,8.57,3.85,22.47c-11.17,0.09-17.86-0.53-18.06-0.55l-0.1,1c0.19,0.01,6.07,0.56,16,0.56c0.79,0,1.61,0,2.45-0.01
				c0.97,3.27,2.17,6.83,3.66,10.64c1.58,4.04,3.55,8.56,6.02,13.47c-17.05,0.72-27.78-0.27-28.03-0.3l-0.1,1
				c0.19,0.02,6.07,0.56,16,0.56c3.68,0,7.92-0.08,12.63-0.28c3.47,6.79,7.88,14.31,13.47,22.36c-24.98,2.19-41.69,0.64-42,0.61
				l-0.1,1c0.19,0.02,6.07,0.56,16,0.56c7.07,0,16.19-0.28,26.76-1.22c4.93,7.02,10.75,14.44,17.64,22.13
				c-28.82,3.18-48.69,1.33-49.03,1.3l-0.1,1c0.19,0.02,6.07,0.56,16,0.56c8.63,0,20.31-0.41,33.95-1.95
				c5.79,6.41,12.33,13.02,19.69,19.73l0.68-0.74c-7.12-6.49-13.47-12.89-19.14-19.13c8.88-1.03,18.57-2.54,28.77-4.72
				c6.8,7.92,14.73,16.17,23.97,24.59l0.681-0.74c-9.021-8.22-16.811-16.29-23.541-24.09c8.71-1.9,17.77-4.28,27.02-7.27
				C403.18,212.38,413.09,223.2,425.17,234.21z"/>
			<path d="M458.45,1431.52c1.13,2.181,8.58,17.49-0.33,27.48c-11.58,12.17-24.54,18.45-38.55,18.71
				c-0.311,0.01-0.61,0.01-0.92,0.01c-23.78,0-42.09-17.1-43.621-18.569c-1.38-1.04-14.4-11.5-12.55-36.98l0.22,0.69l0.32,0.27
				c0.18,0.16,0.99,0.851,2.32,1.91c-0.36,11.36,2.53,19.16,5.13,23.81c3.04,5.46,6.37,7.91,6.41,7.931l0.17,0.149
				c0.18,0.181,18.54,17.79,41.63,17.79c0.28,0,0.57,0,0.86-0.01c13.17-0.25,25.41-6.22,36.37-17.74c6-6.72,2.899-16.96,0.95-21.689
				c1.08-1.54,1.489-2.62,1.55-2.78l0.109-0.3l-0.029-0.33C458.49,1431.85,458.48,1431.73,458.45,1431.52z"/>
			<path d="M458.49,1431.87l0.029,0.33l-0.109,0.3c-0.061,0.16-0.47,1.24-1.55,2.78c-0.641-1.561-1.16-2.521-1.181-2.561
				l2.641-1.439c0.02,0.04,0.06,0.12,0.13,0.239C458.48,1431.73,458.49,1431.85,458.49,1431.87z"/>
			<path d="M458.45,1431.52c-0.07-0.119-0.11-0.199-0.13-0.239l-2.641,1.439l-0.62-0.2c0.19-0.319,0.32-0.579,0.41-0.76
				c-0.43-3.729-4.54-34.71-26.529-56.7l-0.62-0.609l0.229-0.84c1.91-6.99-0.97-13.591-5.31-23.57c-1.971-4.5-4.181-9.58-6.33-15.59
				c0.64,0.03,1,0.05,1.02,0.05l0.051-1.01l1.819,0.09c2.09,5.85,4.26,10.84,6.19,15.26c4.279,9.83,7.41,17.03,5.67,24.7
				C453.94,1396.31,458.05,1427.88,458.45,1431.52z"/>
			<path d="M456.86,1435.28c1.949,4.729,5.05,14.97-0.95,21.689c-10.96,11.521-23.2,17.49-36.37,17.74
				c-0.29,0.01-0.58,0.01-0.86,0.01c-23.09,0-41.45-17.609-41.63-17.79l-0.17-0.149c-0.04-0.021-3.37-2.471-6.41-7.931
				c-2.6-4.649-5.49-12.449-5.13-23.81c7.48,5.94,31.65,23.49,56,23.49c0.57,0,1.141-0.011,1.71-0.03
				C445.04,1447.74,453.74,1439.66,456.86,1435.28z"/>
			<path d="M455.68,1432.72c0.021,0.04,0.54,1,1.181,2.561c-3.12,4.38-11.82,12.46-33.811,13.22c-0.569,0.02-1.14,0.03-1.71,0.03
				c-24.35,0-48.52-17.55-56-23.49c0.03-0.95,0.08-1.92,0.16-2.92l0.4-0.49c5.12,4.17,30.67,23.9,55.47,23.9
				c0.53,0,1.05-0.011,1.58-0.03c22.84-0.79,30.229-9.87,32.109-12.98L455.68,1432.72z"/>
			<path d="M425.85,233.47l-0.68,0.74c-12.08-11.01-21.99-21.83-30.12-32.1c0.33-0.1,0.67-0.21,1.01-0.33
				C404.17,211.99,413.98,222.65,425.85,233.47z"/>
			<path d="M418.07,1331.5l-0.09,1.99l-0.051,1.01c-0.02,0-0.38-0.02-1.02-0.05c-0.11-0.311-0.22-0.63-0.33-0.95l-0.4-1.16
				l1.051-0.63c0.119-0.07,0.239-0.15,0.359-0.24C417.88,1331.49,418.04,1331.5,418.07,1331.5z"/>
			<path d="M417.59,1331.47c-0.12,0.09-0.24,0.17-0.359,0.24l-1.051,0.63l0.4,1.16c0.11,0.32,0.22,0.64,0.33,0.95
				c-3.8-0.23-17.69-1.19-33.41-3.851c-22.64-3.819-39.04-9.319-48.83-16.39l-0.16-3.11c0.03-0.149,0.07-0.39,0.11-0.699
				C355.51,1327.52,411.78,1331.14,417.59,1331.47z"/>
			<path d="M414.78,3.07l-0.62,2.88c-3.311-0.75-7.4-0.71-11.97,1.39c-10.671,6.07-24.5,7.11-25.081,7.16l-1.46,0.1l-0.14-1.45
				c-0.01-0.03-0.16-1.15-1.2-1.94c-1.02-0.77-2.56-1.02-4.6-0.73c-20.29,3.99-35.7,13.3-44.48,26.94
				C318.59,47.73,318,56.99,318,57.08l-0.04,0.71l-0.57,0.42c-0.65,0.48-16.18,11.75-41.6,16.76L275.52,75
				c-29.29,0.48-39.27,11.85-39.37,11.97l-0.09,0.09c-0.04,0.05-1.51,1.73,0.04,5.26l6.86,2.63L249,232.43
				c0,0.31,0.13,6.13,6.09,8.69c1.09,0.54,1.73,1.38,1.9,2.4c0.37,2.27-1.81,4.85-2.68,5.78c0.07-0.2,0.1-0.3,0.11-0.32l-2.82-0.95
				l0.2-0.61c0.12-0.06,0.22-0.11,0.31-0.15c1.02-1.08,2.02-2.64,1.92-3.27c-0.01-0.04-0.08-0.1-0.2-0.16
				c-7.74-3.31-7.83-11.01-7.83-11.34l-5.96-135.45l-6.12-2.36l-0.26-0.52c-2.75-5.49-0.26-8.64,0.21-9.16
				c0.7-0.81,11.17-12.48,41.47-13.01c22.06-4.37,36.78-13.82,39.73-15.83c0.26-2.51,1.56-10.88,7.54-20.23
				c11.65-18.21,31.77-25.5,46.6-28.41c2.98-0.43,5.3,0.03,6.98,1.35c1.02,0.79,1.59,1.73,1.91,2.51c3.56-0.4,14.33-1.94,22.66-6.69
				l0.11-0.06C406.14,2.21,410.9,2.17,414.78,3.07z"/>
			<path d="M411.97,194.94l0.37,0.92c-5.46,2.2-10.899,4.16-16.28,5.92c-0.22-0.28-0.43-0.56-0.649-0.83
				C400.88,199.17,406.41,197.17,411.97,194.94z"/>
			<path d="M400.7,121.56l0.37,0.92c-13.75,5.53-27.36,9.61-40.25,12.61c-0.09-0.33-0.17-0.65-0.25-0.97
				C373.42,131.13,386.99,127.07,400.7,121.56z"/>
			<path d="M400.7,146.92l0.37,0.93c-10.79,4.33-21.49,7.78-31.83,10.5c-0.14-0.31-0.28-0.61-0.41-0.92
				C379.18,154.71,389.89,151.26,400.7,146.92z"/>
			<path d="M400.7,171.17l0.37,0.93c-6.95,2.8-13.86,5.22-20.67,7.32c-0.18-0.3-0.36-0.59-0.54-0.89
				C386.72,176.43,393.69,173.99,400.7,171.17z"/>
			<path d="M396.06,201.78c-0.34,0.12-0.68,0.23-1.01,0.33c-0.22-0.28-0.439-0.55-0.649-0.83c0.33-0.11,0.67-0.22,1.01-0.33
				C395.63,201.22,395.84,201.5,396.06,201.78z"/>
			<path d="M395.41,200.95c-0.34,0.11-0.68,0.22-1.01,0.33c-5.931-7.54-10.88-14.77-15.021-21.55c0.34-0.1,0.68-0.2,1.02-0.31
				C384.59,186.28,389.55,193.5,395.41,200.95z"/>
			<path d="M394.4,201.28c0.21,0.28,0.43,0.55,0.649,0.83c-9.25,2.99-18.31,5.37-27.02,7.27c-0.25-0.29-0.5-0.57-0.75-0.86
				C376.01,206.64,385.11,204.26,394.4,201.28z"/>
			<path d="M391.57,233.47l-0.681,0.74c-9.24-8.42-17.169-16.67-23.97-24.59c0.37-0.08,0.74-0.16,1.11-0.24
				C374.76,217.18,382.55,225.25,391.57,233.47z"/>
			<path fill="#D6D6D6" d="M379.38,179.73c4.14,6.78,9.09,14.01,15.021,21.55c-9.29,2.98-18.391,5.36-27.121,7.24
				c-6.42-7.51-11.85-14.77-16.46-21.68C359.95,185.05,369.55,182.73,379.38,179.73z"/>
			<path d="M380.4,179.42c-0.34,0.11-0.68,0.21-1.02,0.31c-0.19-0.3-0.37-0.59-0.54-0.88c0.34-0.11,0.68-0.21,1.02-0.32
				C380.04,178.83,380.22,179.12,380.4,179.42z"/>
			<path d="M379.86,178.53c-0.34,0.11-0.68,0.21-1.02,0.32c-4.45-7.35-7.94-14.15-10.68-20.22c0.36-0.08,0.72-0.18,1.08-0.28
				C372.05,164.6,375.54,171.37,379.86,178.53z"/>
			<path d="M378.84,178.85c0.17,0.29,0.35,0.58,0.54,0.88c-9.83,3-19.43,5.32-28.56,7.11c-0.2-0.3-0.4-0.6-0.6-0.9
				C359.37,184.15,368.98,181.84,378.84,178.85z"/>
			<path d="M368.83,157.43c0.13,0.31,0.27,0.61,0.41,0.92c-0.36,0.1-0.72,0.2-1.08,0.28c-0.14-0.31-0.28-0.62-0.41-0.92
				C368.11,157.62,368.47,157.53,368.83,157.43z"/>
			<path fill="#D6D6D6" d="M368.16,158.63c2.74,6.07,6.23,12.87,10.68,20.22c-9.86,2.99-19.47,5.3-28.62,7.09
				c-4.94-7.5-8.9-14.59-12.08-21.14C347.57,163.36,357.67,161.37,368.16,158.63z"/>
			<path d="M368.83,157.43c-0.36,0.1-0.72,0.19-1.08,0.28c-0.9-2.02-1.71-3.96-2.44-5.8c-2.47-6.19-4.25-11.77-5.53-16.59
				c0.34-0.08,0.69-0.16,1.04-0.23C362.51,141.33,365.03,148.89,368.83,157.43z"/>
			<path d="M368.03,209.38c-0.37,0.08-0.74,0.16-1.11,0.24c-0.25-0.29-0.5-0.58-0.75-0.87c0.37-0.07,0.74-0.15,1.11-0.23
				C367.53,208.81,367.78,209.09,368.03,209.38z"/>
			<path d="M367.75,157.71c0.13,0.3,0.27,0.61,0.41,0.92c-10.49,2.74-20.59,4.73-30.02,6.17c-0.15-0.32-0.3-0.63-0.45-0.94
				C347.12,162.43,357.24,160.44,367.75,157.71z"/>
			<path d="M367.28,208.52c-0.37,0.08-0.74,0.16-1.11,0.23c-6.45-7.57-11.88-14.85-16.43-21.7c0.36-0.07,0.72-0.14,1.08-0.21
				C355.43,193.75,360.86,201.01,367.28,208.52z"/>
			<path d="M366.17,208.75c0.25,0.29,0.5,0.58,0.75,0.87c-10.2,2.18-19.89,3.69-28.77,4.72c-0.28-0.3-0.56-0.61-0.83-0.91
				C346.21,212.42,355.93,210.92,366.17,208.75z"/>
			<path fill="#D6D6D6" d="M365.31,151.91c0.73,1.84,1.54,3.78,2.44,5.8c-10.51,2.73-20.63,4.72-30.06,6.15
				c-4.2-8.81-6.98-16.62-8.81-23.14c9.54-1.17,19.96-2.89,30.9-5.4C361.06,140.14,362.84,145.72,365.31,151.91z"/>
			<path d="M365.9,1421.63l-0.4,0.49l-3-0.24c-0.01,0.101-0.02,0.19-0.02,0.29l-6.52-20.49l1.27-0.199l-0.46-2.961l0.4-0.42
				c0.28,0.271,0.56,0.53,0.85,0.801l0.29,0.27l6.99,21.96C365.45,1421.26,365.65,1421.42,365.9,1421.63z"/>
			<path d="M362.5,1421.88l3,0.24c-0.08,1-0.13,1.97-0.16,2.92c-1.33-1.06-2.14-1.75-2.32-1.91l-0.32-0.27l-0.22-0.69
				C362.48,1422.07,362.49,1421.98,362.5,1421.88z"/>
			<path d="M360.82,135.09c-0.35,0.07-0.7,0.15-1.04,0.23c-0.09-0.32-0.17-0.65-0.25-0.96c0.34-0.08,0.69-0.16,1.04-0.24
				C360.65,134.44,360.73,134.76,360.82,135.09z"/>
			<path d="M360.57,134.12c-0.35,0.08-0.7,0.16-1.04,0.24c-2.95-11.38-3.08-18.22-3.08-18.32l1-0.02
				C357.46,116.21,357.63,122.92,360.57,134.12z"/>
			<path d="M359.53,134.36c0.08,0.31,0.16,0.64,0.25,0.96c-10.94,2.51-21.36,4.23-30.9,5.4c-0.1-0.33-0.19-0.65-0.27-0.97
				C338.15,138.58,348.57,136.86,359.53,134.36z"/>
			<path d="M357.29,233.47l-0.68,0.74c-7.36-6.71-13.9-13.32-19.69-19.73c0.41-0.04,0.82-0.09,1.23-0.14
				C343.82,220.58,350.17,226.98,357.29,233.47z"/>
			<path d="M356.77,1398.52l0.46,2.961l-1.27,0.199l-0.27-0.85c-0.66-0.62-1.3-1.23-1.93-1.85L356.77,1398.52z"/>
			<path d="M357.17,1398.1l-0.4,0.42l-3.01,0.461c-19.46-18.78-26.41-33.601-28.89-41.53c0.73-3.45,1.53-5.92,1.55-5.98l0.14-0.02
				C327.01,1354.71,330.6,1372.93,357.17,1398.1z"/>
			<path d="M355.69,1400.83l0.27,0.85l-12.59,1.94l-19.55-24.69c-6.36-8.029-1.16-25.5-0.33-28.1l0.01,0.25
				c0.01,0.27,0.16,2.5,1.37,6.37c-1.27,6.01-2.33,15.02,1.31,19.62l18.45,23.31l9.13-1.399
				C354.39,1399.6,355.03,1400.21,355.69,1400.83z"/>
			<path fill="#D6D6D6" d="M349.74,187.05c4.55,6.85,9.98,14.13,16.43,21.7c-10.24,2.17-19.96,3.67-28.85,4.68
				c-6.87-7.63-12.71-15.03-17.7-22.1C328.75,190.48,338.91,189.14,349.74,187.05z"/>
			<path d="M350.82,186.84c-0.36,0.07-0.72,0.14-1.08,0.21c-0.2-0.3-0.4-0.6-0.6-0.9c0.36-0.07,0.72-0.14,1.08-0.21
				C350.42,186.24,350.62,186.54,350.82,186.84z"/>
			<path d="M350.22,185.94c-0.36,0.07-0.72,0.14-1.08,0.21c-5.04-7.66-9-14.78-12.11-21.18c0.37-0.05,0.74-0.11,1.11-0.17
				C341.32,171.35,345.28,178.44,350.22,185.94z"/>
			<path d="M349.47,1042.71c0.37,1.85,8.94,45.81-4.61,74.92c-13.01,27.95-0.21,49.37-0.08,49.59l0.58,0.95l-0.75,0.83
				c-0.12,0.15-13.11,15.11-13.11,50v0.5l-0.3,0.4c-17.23,22.979-4.99,47.17-4.87,47.409l0.44,0.841l-0.57,0.75
				c-0.33,0.449-8.05,11.06-0.22,20.93c9.87,5.6,9.08,17.229,8.64,20.57c-0.22-0.17-0.43-0.351-0.64-0.53l-1.96,2.26l-0.47,0.021
				l-0.06-1.271l0.04-0.189c0.11-0.53,2.62-12.99-7.25-18.37l-0.26-0.141l-0.18-0.229c-8.28-10.12-2.42-21.12-0.56-24.08
				c-2.04-4.57-10.89-27.47,5.22-49.37c0.11-31.54,10.36-46.99,13.19-50.66c-2.46-4.6-11.83-25.1,0.45-51.47
				c12.66-27.2,5.08-69.4,4.43-72.851l-10.59-19.17l0.02-0.439c0.02-0.34,2.03-34.09,5.95-66.13c-0.42-0.83-0.81-1.63-1.19-2.41
				c-2.04-4.23-3.58-7.42-9.11-8.75l0.66-2.86c6.49,1.54,8.74,5.29,11.15,10.3c0.43,0.881,0.87,1.801,1.37,2.74l0.22,0.41
				l-0.06,0.47c-3.71,30.12-5.72,61.91-5.97,65.98l10.41,18.82L349.47,1042.71z"/>
			<path d="M349.14,186.15c0.2,0.3,0.4,0.6,0.6,0.9c-10.83,2.09-20.99,3.43-30.12,4.28c-0.22-0.32-0.44-0.63-0.66-0.94
				C328.08,189.56,338.27,188.23,349.14,186.15z"/>
			<path d="M338.14,164.8c-0.37,0.06-0.74,0.12-1.11,0.17c-0.15-0.32-0.3-0.63-0.45-0.94c0.37-0.06,0.74-0.11,1.11-0.17
				C337.84,164.17,337.99,164.48,338.14,164.8z"/>
			<path d="M337.32,213.43c0.27,0.3,0.55,0.61,0.83,0.91c-0.41,0.05-0.82,0.1-1.23,0.14c-0.28-0.3-0.55-0.61-0.82-0.91
				C336.5,213.52,336.91,213.48,337.32,213.43z"/>
			<path d="M337.69,163.86c-0.37,0.06-0.74,0.11-1.11,0.17c-1.77-3.72-3.25-7.18-4.49-10.35c-1.82-4.67-3.22-8.97-4.29-12.82
				c0.36-0.05,0.72-0.09,1.08-0.14C330.71,147.24,333.49,155.05,337.69,163.86z"/>
			<path fill="#D6D6D6" d="M337.03,164.97c3.11,6.4,7.07,13.52,12.11,21.18c-10.87,2.08-21.06,3.41-30.18,4.24
				c-5.49-7.9-9.91-15.39-13.46-22.32C314.54,167.65,325.24,166.74,337.03,164.97z"/>
			<path d="M337.32,213.43c-0.41,0.05-0.82,0.09-1.22,0.14c-6.89-7.69-12.71-15.11-17.64-22.13c0.39-0.04,0.77-0.07,1.16-0.11
				C324.61,198.4,330.45,205.8,337.32,213.43z"/>
			<path d="M336.58,164.03c0.15,0.31,0.3,0.62,0.45,0.94c-11.79,1.77-22.49,2.68-31.53,3.1c-0.16-0.33-0.33-0.65-0.49-0.97
				C314.04,166.68,324.76,165.79,336.58,164.03z"/>
			<path d="M336.1,213.57c0.27,0.3,0.54,0.61,0.82,0.91c-13.64,1.54-25.32,1.95-33.95,1.95c-9.93,0-15.81-0.54-16-0.56l0.1-1
				C287.41,214.9,307.28,216.75,336.1,213.57z"/>
			<path d="M334.67,1314.21l0.85,17.08l-8.99,19.96c0.01,0.06,0.02,0.12,0.03,0.2l-0.14,0.02l-2.84-0.939
				c-0.02,0.05-0.05,0.149-0.09,0.3l-0.01-0.12l9-20l-0.93-18.56l0.47-0.021C332.84,1312.84,333.72,1313.54,334.67,1314.21z"/>
			<path d="M334.51,1311.1l0.16,3.11c-0.95-0.67-1.83-1.37-2.65-2.08l1.96-2.26c0.21,0.18,0.42,0.36,0.64,0.53
				C334.58,1310.71,334.54,1310.95,334.51,1311.1z"/>
			<path fill="#D6D6D6" d="M332.09,153.68c1.24,3.17,2.72,6.63,4.49,10.35c-11.82,1.76-22.54,2.65-31.57,3.07
				c-4.58-9.09-7.66-17.22-9.74-24.08c8.66-0.1,19.79-0.64,32.53-2.16C328.87,144.71,330.27,149.01,332.09,153.68z"/>
			<path d="M332.31,943.76l-0.66,2.86c-3.27-0.79-7.95-0.93-14.95-0.24c-8.38,33.271-33.06,74.51-35.27,78.15
				c-0.52,3.17-5.44,29.489-25.82,53.89c5.49,28.811-0.29,83.33-1.05,90.13c2.61,3.32,16.44,21.66,13.46,33.58
				c-0.85,3.4-2.94,5.98-6.23,7.69c4,14.699,0.74,24.08-0.22,26.33c0.74,3.3,4.42,21.04,0,29.13c1.33,8.189-4.72,13.189-8.55,14.92
				l-4.16,6.66c0.1,0.13,0.22,0.279,0.33,0.439l-1.04,0.67l-2.3-1.939c-0.01,0.01-0.02,0.029-0.05,0.06l5.19-8.3l0.45-0.18
				c0.36-0.15,8.81-3.69,7.09-12.32l-0.12-0.58l0.32-0.5c3.82-6.13,1.16-22.19-0.19-27.86l-0.13-0.529l0.25-0.49
				c0.04-0.09,4.65-9.76-0.1-25.91l-0.38-1.28l1.24-0.52c3.11-1.311,4.97-3.351,5.69-6.21c2.86-11.42-13.11-31.271-13.27-31.46
				l-0.4-0.49l0.07-0.63c0.07-0.61,6.9-61.11,1.02-90.54l-0.14-0.71l0.46-0.55c21.45-25.34,25.63-52.971,25.67-53.24l0.04-0.31
				l0.16-0.261c0.27-0.439,26.98-44.21,35.32-78.569l0.25-1.03l1.05-0.11C323.11,942.68,328.46,942.83,332.31,943.76z"/>
			<path d="M328.88,140.72c-0.36,0.05-0.72,0.09-1.08,0.14c-0.09-0.33-0.18-0.66-0.27-0.99c0.36-0.03,0.72-0.08,1.08-0.12
				C328.69,140.07,328.78,140.39,328.88,140.72z"/>
			<path d="M327.53,139.87c0.09,0.33,0.18,0.66,0.27,0.99c-12.74,1.52-23.87,2.06-32.53,2.16c-0.1-0.33-0.2-0.66-0.29-0.99
				C303.62,141.93,314.76,141.4,327.53,139.87z"/>
			<path d="M328.61,139.75c-0.36,0.04-0.72,0.09-1.08,0.12c-3.39-12.61-3.24-20.2-3.24-20.3l1,0.03
				C325.29,119.79,325.2,127.27,328.61,139.75z"/>
			<path d="M323.58,1350.53l2.84,0.939c-0.02,0.061-0.82,2.53-1.55,5.98c-1.21-3.87-1.36-6.101-1.37-6.37l-0.01-0.25
				C323.53,1350.68,323.56,1350.58,323.58,1350.53z"/>
			<path d="M319.62,191.33c-0.39,0.04-0.77,0.07-1.16,0.11c-0.22-0.32-0.44-0.63-0.66-0.95c0.38-0.03,0.77-0.06,1.16-0.1
				C319.18,190.7,319.4,191.01,319.62,191.33z"/>
			<path d="M317.8,190.49c0.22,0.32,0.44,0.63,0.66,0.95c-10.57,0.94-19.69,1.22-26.76,1.22c-9.93,0-15.81-0.54-16-0.56l0.1-1
				C276.11,191.13,292.82,192.68,317.8,190.49z"/>
			<path d="M318.96,190.39c-0.39,0.04-0.78,0.07-1.16,0.1c-5.59-8.05-10-15.57-13.47-22.36c0.38-0.02,0.77-0.03,1.17-0.06
				C309.05,175,313.47,182.49,318.96,190.39z"/>
			<path d="M305.01,167.1c0.16,0.32,0.33,0.64,0.49,0.97c-0.4,0.03-0.79,0.04-1.17,0.06c-0.17-0.33-0.34-0.66-0.5-0.98
				C304.22,167.13,304.61,167.12,305.01,167.1z"/>
			<path d="M305.01,167.1c-0.4,0.02-0.79,0.03-1.18,0.05c-2.47-4.91-4.44-9.43-6.02-13.47c-1.49-3.81-2.69-7.37-3.66-10.64
				c0.37,0,0.74-0.01,1.12-0.02C297.35,149.88,300.43,158.01,305.01,167.1z"/>
			<path d="M303.83,167.15c0.16,0.32,0.33,0.65,0.5,0.98c-4.71,0.2-8.95,0.28-12.63,0.28c-9.93,0-15.81-0.54-16-0.56l0.1-1
				C276.05,166.88,286.78,167.87,303.83,167.15z"/>
			<path d="M294.98,142.03c0.09,0.33,0.19,0.66,0.29,0.99c-0.38,0.01-0.75,0.02-1.12,0.02c-0.1-0.34-0.2-0.67-0.29-1
				C294.23,142.04,294.6,142.04,294.98,142.03z"/>
			<path d="M293.86,142.04c0.09,0.33,0.19,0.66,0.29,1c-0.84,0.01-1.66,0.01-2.45,0.01c-9.93,0-15.81-0.55-16-0.56l0.1-1
				C276,141.51,282.69,142.13,293.86,142.04z"/>
			<path d="M294.98,142.03c-0.38,0.01-0.75,0.01-1.12,0.01c-4.02-13.9-3.85-22.37-3.85-22.47l1,0.03
				C291.01,119.81,290.91,128.18,294.98,142.03z"/>
			<path d="M251.6,248.03l2.82,0.95c-0.01,0.02-0.04,0.12-0.11,0.32c-0.1,0.11-0.19,0.2-0.25,0.26l-0.18,0.18l-0.22,0.11
				c-0.09,0.04-1.2,0.59-3.1,1.59c0.53-1.97,0.94-3.19,1.02-3.42L251.6,248.03z"/>
			<path d="M249.19,1287.3c2.23,3,6.72,10.97,4.28,23.98c-2.42,12.93-4.18,19.34-4.81,21.42c1.76,2.399,6.78,10.689-0.25,18.97
				c-2.62,15.24-8.02,23.021-9.77,25.21c0.78,3.28,3.36,16.23-0.15,31.311l0.01-0.101l-3-0.18l-0.21-0.17
				c0.11-0.13,0.22-0.271,0.32-0.4c3.75-16.3-0.02-30.3-0.06-30.439l-0.22-0.811l0.57-0.609c0.07-0.07,6.75-7.48,9.62-24.73
				l0.07-0.42l0.29-0.33c6.99-7.87,0.29-15.68,0-16.01l-0.57-0.641l0.27-0.819c0.02-0.061,2.01-6.141,4.95-21.811
				c2.19-11.7-1.68-18.779-3.6-21.45c0.78-0.789,1.19-1.26,1.22-1.3L249.19,1287.3z"/>
			<path d="M251.8,247.42l-0.2,0.61l-0.02-0.01c-0.08,0.23-0.49,1.45-1.02,3.42c-14.41,7.55-74.43,41.12-82.59,79.82l-0.05,0.16
				c-0.24,0.74-5.93,17.86-14.15,29.88c-0.7-0.49-1.14-0.79-1.26-0.87l-0.83-1.41c7.52-11.28,12.95-27.23,13.37-28.46
				C174.34,286.85,244.28,251.14,251.8,247.42z"/>
			<path fill="#4D4D4D" d="M246.93,1289.27c1.92,2.671,5.79,9.75,3.6,21.45c-2.94,15.67-4.93,21.75-4.95,21.811l-0.27,0.819
				l0.57,0.641c0.29,0.33,6.99,8.14,0,16.01l-0.29,0.33l-0.07,0.42c-2.87,17.25-9.55,24.66-9.62,24.73l-0.57,0.609l0.22,0.811
				c0.04,0.14,3.81,14.14,0.06,30.439c-0.1,0.13-0.21,0.271-0.32,0.4c-13.96,17.72-28.44,26.2-43.05,25.21
				c-23.03-1.561-39.63-26.391-42.51-30.98c-0.09-0.149-0.17-0.279-0.23-0.38c0.06-4,0.94-36.01,13.6-49.57l0.32-0.35l0.07-0.47
				c2.9-21.26,13.55-34.11,13.66-34.23l0.56-0.67l-3.31-9.08c7.6,1.971,14.67,2.79,21.19,2.79
				C224.31,1310.01,242.26,1294,246.93,1289.27z"/>
			<path d="M245.85,1286.03l2.3,1.939c-0.03,0.04-0.44,0.511-1.22,1.3c-0.54-0.739-0.92-1.14-0.99-1.21l-0.84-0.85l0.68-1.1
				c0.01-0.011,0.01-0.011,0.02-0.021C245.83,1286.06,245.84,1286.04,245.85,1286.03z"/>
			<path d="M245.94,1288.06c0.07,0.07,0.45,0.471,0.99,1.21c-4.67,4.73-22.62,20.74-51.34,20.74c-6.52,0-13.59-0.819-21.19-2.79
				l-0.99-2.729l-0.12-0.311l-0.23-0.239c-0.03-0.03-0.11-0.12-0.25-0.271c45.09,12.95,71.41-15.78,72.97-17.56l-0.68,1.1
				L245.94,1288.06z"/>
			<path d="M238.5,1408.09l-0.01,0.101c-0.01,0.05-0.02,0.1-0.03,0.149l-0.07,0.32l-0.21,0.26c-0.98,1.26-1.97,2.49-2.96,3.66
				l0.28-4.67L238.5,1408.09z"/>
			<path d="M238.46,1408.34c0.01-0.05,0.02-0.1,0.03-0.149l-2.01,33.26l-0.18,0.3c-0.52,0.9-12.97,21.86-35.94,24.85
				c-1.79,0.23-3.59,0.351-5.4,0.351c-15.36,0-31.48-8.351-48.02-24.891l-0.4-0.399l-0.04-0.57c-0.96-15.46-0.06-37.67,0-39.09v0.4
				l0.2,0.35c0.09,0.14,0.99,1.69,2.64,4.05c-0.23,7.44-0.54,22.21,0.12,33.54c17.64,17.5,34.63,25.34,50.49,23.29
				c20.09-2.6,32-20.57,33.58-23.09l1.69-27.96c0.99-1.17,1.98-2.4,2.96-3.66l0.21-0.26L238.46,1408.34z"/>
			<path d="M235.5,1407.91l-0.28,4.67c-13.89,16.52-28.39,24.38-43.19,23.36c-11.15-0.761-22.54-6.75-32.92-17.341
				c-4.36-4.449-7.67-8.79-9.77-11.8c0.08-2.88,0.16-4.67,0.16-4.729l0.23-0.101c2.88,4.59,19.48,29.42,42.51,30.98
				c14.61,0.99,29.09-7.49,43.05-25.21L235.5,1407.91z"/>
			<path d="M235.22,1412.58l-1.69,27.96c-1.58,2.52-13.49,20.49-33.58,23.09c-15.86,2.05-32.85-5.79-50.49-23.29
				c-0.66-11.33-0.35-26.1-0.12-33.54c2.1,3.01,5.41,7.351,9.77,11.8c10.38,10.591,21.77,16.58,32.92,17.341
				C206.83,1436.96,221.33,1429.1,235.22,1412.58z"/>
			<path d="M205.64,691.74l-0.35,0.29l-2.98-0.34l-0.07,0.609c-6.42-7.979-14.77-18.89-21.83-29.819l-0.12-0.19l-0.06-0.22
				c-2.74-9.801,2.48-26.83,4.91-33.83c1.2-0.13,2.39-0.66,3.37-1.32l-0.84-1.229h0.01l1.38,0.529c-0.09,0.24-8.99,23.431-6,34.83
				C190.43,672.43,199.19,683.77,205.64,691.74z"/>
			<path d="M205.29,692.03l-0.41,3.54c-0.83-1.021-1.71-2.12-2.64-3.271l0.07-0.609L205.29,692.03z"/>
			<path d="M204.88,695.57l-3.92,34.13l-0.11,0.24c-0.2,0.399-20.04,41.109-29.88,87.869c-9.85,46.771-7.99,87.71-7.97,88.12V906
				v0.07c-0.1,2.26-2.65,55.59-14.64,81.069c-11.64,24.74-11.37,36.681-11.36,36.801l0.01,0.22l-0.06,0.22
				c-0.17,0.67-17.3,67.76-6.46,154.43c3.74,26.841,15.75,53.301,15.87,53.57l0.21,0.45l-0.1,0.49c-0.29,1.3-6.6,32.069,20.63,46.35
				l0.94,0.5l-0.16,1.05c-2.03,13.59,3.64,20.971,4.93,22.45c-0.13-0.03-0.26-0.07-0.39-0.11l-0.84,2.881l-0.58,0.21l-0.31-0.851
				c-1.37-1.52-7.74-9.479-5.92-23.97c-26.28-14.53-22.08-44.4-21.33-48.65c-1.6-3.59-12.39-28.59-15.93-53.97
				c-10.61-84.9,5.44-151.19,6.49-155.38c-0.02-1.86,0.38-14.04,11.64-37.97C157.19,961.31,159.89,908.19,160,906
				c-0.09-2.02-1.69-42.62,8.03-88.81c9.53-45.28,28.36-84.921,30.01-88.341l4.2-36.55C203.17,693.45,204.05,694.55,204.88,695.57z"
				/>
			<path d="M194,414.58l-0.17,151.6l-1.5-0.96l0.17-149.14h-22.24c-0.03-0.12-0.05-0.24-0.08-0.36c-0.09-0.35-0.2-0.7-0.33-1.05
				c0.09-0.03,0.18-0.06,0.27-0.09H194z"/>
			<path d="M193.83,604.32v0.43l-0.22,0.36c-0.35,0.569-0.78,1.29-1.26,2.12l-0.02-2.9L193.83,604.32z"/>
			<polygon points="193.83,567 193.83,604.32 192.33,604.33 192.33,567 			"/>
			<polygon points="193.83,566.18 193.83,567 192.33,567 192.33,565.22 			"/>
			<path d="M192.5,416.08l-0.17,149.14l-1.5-0.97L191,417.58h-20.6c0-0.49-0.04-0.99-0.14-1.5H192.5z"/>
			<path d="M192.33,604.33l0.02,2.9c-0.45,0.789-0.96,1.67-1.48,2.609l-0.04-5.5L192.33,604.33z"/>
			<polygon points="192.33,565.22 192.33,567 190.83,567 190.83,564.25 			"/>
			<path d="M192.33,567v37.33l-1.5,0.01l-0.19-0.109c0.07-0.12,0.13-0.23,0.19-0.32v-36.09l-0.37-0.24l0.37-0.58H192.33z"/>
			<path fill="#FFFFFF" d="M191,417.58l-0.17,146.67l-7.29-4.68l-0.31-0.051c-0.47-0.069-47.51-7.5-102.5-27.729
				c-12.65-24.33-22.64-60.43-24.1-65.82c2.42-3.42,14.31-21.04,19.75-44.3c3.56-4.5,6.62-9.38,9.11-13.87
				c-2.41,14.56,0.93,22.06,1.46,23.12c0.44,1.23,4.26,10.84,16.86,15.49c4.44,1.63,9.82,2.17,15.02,2.17
				c9.65,0,18.65-1.86,19.74-2.1c2.66-0.3,7.25-2.3,7.31-7.79c3.23-1.42,5.42-4.6,6.47-6.41c0.15-0.26,0.27-0.5,0.37-0.69
				c3.34-0.98,17.63-5.65,17.68-14.01H191z"/>
			<path d="M190.83,604.34l0.04,5.5c-2.76,4.96-6.18,11.641-6.93,15.271c1,0.54,2.54-0.44,2.87-0.67l0.83,1.21l-1.04-1.03
				l-0.22,0.22l-0.12,0.3c-0.08,0.2-0.51,1.33-1.12,3.101c-0.19,0.029-0.39,0.04-0.59,0.04c-1.25,0-2.46-0.471-3.41-1.69
				l-0.37-0.479l0.07-0.61c0.63-5.58,7.95-18.16,9.8-21.27L190.83,604.34z"/>
			<path d="M190.83,564.25V567l-0.37,0.58l-8.01-5.15c-4.25-0.689-50.18-8.42-103.3-28.02l-0.54-0.2l-0.27-0.51
				c-13.92-26.52-24.68-67.24-24.79-67.65l-0.18-0.7l0.43-0.58c0.14-0.18,13.88-18.74,19.74-44.11l0.08-0.33l0.21-0.27
				c9.02-11.27,14.72-25.15,16.1-28.66c-2.29,6.23-3.67,11.68-4.44,16.4c-2.49,4.49-5.55,9.37-9.11,13.87
				c-5.44,23.26-17.33,40.88-19.75,44.3c1.46,5.39,11.45,41.49,24.1,65.82c54.99,20.229,102.03,27.66,102.5,27.729l0.31,0.051
				L190.83,564.25z"/>
			<path d="M187.67,625.69l0.84,1.229c-0.98,0.66-2.17,1.19-3.37,1.32c0.61-1.771,1.04-2.9,1.12-3.101l0.12-0.3l0.22-0.22l1.04,1.03
				L187.67,625.69z"/>
			<polygon points="185.32,395 186.01,396.5 183.67,396.5 183.67,395 			"/>
			<path d="M185.03,394.37l0.29,0.63h-1.65v-1.5h0.95C184.76,393.79,184.9,394.08,185.03,394.37z"/>
			<path d="M184.62,393.5h-0.95v1.5c0,0,0,0-7.71,0c-0.15-0.36-0.25-0.58-0.27-0.63l-1.36,0.63l-1.36,0.63
				c0.01,0.01,0.15,0.33,0.35,0.87h-0.18l-0.27-1.16c-2.47-10.49-16.73-26.61-21.05-31.31l1.07-1.48c0.29-0.41,0.59-0.82,0.88-1.25
				C158.81,364.84,177.22,378.45,184.62,393.5z M175.48,393.5h5.76c-4.35-8.05-12.01-15.73-18.55-21.39
				C167.88,378.67,173.51,386.83,175.48,393.5z"/>
			<path d="M183.67,395v1.5h-7.16c-0.21-0.62-0.41-1.14-0.55-1.5C183.67,395,183.67,395,183.67,395z"/>
			<path fill="#FFFFFF" d="M181.24,393.5h-5.76c-1.97-6.67-7.6-14.83-12.79-21.39C169.23,377.77,176.89,385.45,181.24,393.5z"/>
			<path d="M174.4,1307.22l3.31,9.08l-0.56,0.67c-0.11,0.12-10.76,12.971-13.66,34.23l-0.07,0.47l-0.32,0.35
				c-12.66,13.561-13.54,45.57-13.6,49.57c0.06,0.101,0.14,0.23,0.23,0.38l-0.23,0.101l-3-0.141c0.01-2.27,0.33-36.35,14.08-51.6
				c2.75-19.33,11.42-31.63,13.72-34.61l-3.3-9.069l0.58-0.21C172.53,1306.72,173.47,1306.97,174.4,1307.22z"/>
			<path d="M176.51,396.5c0.98,2.99,2.24,8.53-0.03,12.93c-1.26,2.45-3.4,4.17-6.36,5.15h-1.4v1.5c-0.19-0.78-0.53-1.59-1.05-2.42
				c11.37-2.16,8.66-13.12,7.25-17.16H176.51z"/>
			<path d="M176.51,396.5h-1.59c-0.33-0.94-0.59-1.5-0.59-1.5c0.58,0,1.12,0,1.63,0C176.1,395.36,176.3,395.88,176.51,396.5z"/>
			<path d="M175.96,395c-0.51,0-1.05,0-1.63,0l1.36-0.63C175.71,394.42,175.81,394.64,175.96,395z"/>
			<path d="M174.92,396.5c1.41,4.04,4.12,15-7.25,17.16l0.57-1.38l-0.43-0.18c2.92-0.64,4.94-2,6-4.05
				c2.02-3.92,0.31-9.44-0.49-11.55H174.92z"/>
			<path d="M174.92,396.5h-1.6c-0.2-0.54-0.34-0.86-0.35-0.87l1.36-0.63C174.33,395,174.59,395.56,174.92,396.5z"/>
			<path d="M173.41,1304.49l0.99,2.729c-0.93-0.25-1.87-0.5-2.82-0.779l0.84-2.881c0.13,0.04,0.26,0.08,0.39,0.11
				c0.14,0.15,0.22,0.24,0.25,0.271l0.23,0.239L173.41,1304.49z"/>
			<path fill="#FFFFFF" d="M92.48,389.8c-0.13-0.28-1.12-3.33,6.52-18.11c9.02-17.44,26.75-21.45,28.74-21.85
				c1.81,0.2,16.21,2.09,22.65,12.61l1.18,1.93l0.25-0.35c4.32,4.7,18.58,20.82,21.05,31.31l0.27,1.16h0.18
				c0.8,2.11,2.51,7.63,0.49,11.55c-1.06,2.05-3.08,3.41-6,4.05l-15.49-6.46c-21.33-11.65-31.95-27.95-32.06-28.12l-2.52,1.62
				c0.44,0.69,11.12,17.13,33.21,29.17l15.68,6.55c0.29,0.53,0.5,1.05,0.63,1.57c1.5,6.21-10.56,10.95-15.69,12.37
				c-2.23-0.32-17.85-2.92-31.61-14.29c-14.26-11.78-14.13-18.34-14.13-18.37l-2.99-0.28c-0.08,0.79-0.29,8.16,15.2,20.96
				c12.49,10.31,26.1,13.69,31.29,14.66c-1.13,1.77-3.04,4.04-5.37,4.73c-0.01,0-0.03,0.01-0.04,0.01l-0.05,0.01
				c-0.96,0.2-9.98,1.86-23.5-4.22c-6.81-3.07-10.45-5.85-12.38-7.86c-1.93-2.01-2.17-3.26-2.17-3.26l-2.99,0.22
				c0.05,0.67,0.93,6.72,16.3,13.63c8.9,4.01,15.95,4.87,20.38,4.87c1.35,0,2.46-0.08,3.3-0.18c-0.53,3.51-4.18,4.02-4.63,4.08
				l-0.17,0.02c-0.21,0.05-21.05,4.52-33.16,0.06c-11.78-4.34-15.07-13.65-15.1-13.74l-0.1-0.23c-0.06-0.11-6.18-12.1,3.24-37.58
				c0.01-0.05,0.02-0.09,0.04-0.13l0.01-0.02l0.01-0.02l0.05-0.14c0.01-0.06,0.04-0.12,0.06-0.17L91.67,391l0.25-1.48
				C92.29,389.58,92.44,389.75,92.48,389.8z"/>
			<path d="M170.26,416.08c0.1,0.51,0.14,1.01,0.14,1.5h-1.68v-1.5H170.26z"/>
			<path d="M168.72,417.58h1.68c-0.05,8.36-14.34,13.03-17.68,14.01c-0.1,0.19-0.22,0.43-0.37,0.69l-0.86-0.46l0.35-2.98
				c-0.01,0-0.1-0.01-0.27-0.04c5.13-1.42,17.19-6.16,15.69-12.37c-0.13-0.52-0.34-1.04-0.63-1.57l0.46,0.19l0.58-1.39
				c0.52,0.83,0.86,1.64,1.05,2.42V417.58z"/>
			<path d="M170.18,415.72c0.03,0.12,0.05,0.24,0.08,0.36h-1.54v-1.5h1.4c-0.09,0.03-0.18,0.06-0.27,0.09
				C169.98,415.02,170.09,415.37,170.18,415.72z"/>
			<path d="M168.24,412.28l-0.57,1.38l-0.58,1.39l-0.46-0.19c-0.07-0.13-0.15-0.27-0.23-0.4l-1.17-1.86l2.16-0.41
				c0.14-0.03,0.28-0.06,0.42-0.09L168.24,412.28z"/>
			<path d="M167.81,412.1c-0.14,0.03-0.28,0.06-0.42,0.09l-2.16,0.41l1.17,1.86c0.08,0.13,0.16,0.27,0.23,0.4l-15.68-6.55
				c-22.09-12.04-32.77-28.48-33.21-29.17l2.52-1.62c0.11,0.17,10.73,16.47,32.06,28.12L167.81,412.1z"/>
			<path d="M153.77,361.3c-0.29,0.43-0.59,0.84-0.88,1.25l-1.07,1.48c-0.68-0.74-1.11-1.2-1.22-1.31l1.14-1.13l0.77-1.16
				C152.63,360.51,153.07,360.81,153.77,361.3z"/>
			<path d="M151.68,359.02l0.83,1.41l-0.77,1.16l-1.14,1.13c0.11,0.11,0.54,0.57,1.22,1.31l-0.25,0.35l-1.18-1.93
				c-6.44-10.52-20.84-12.41-22.65-12.61c-1.99,0.4-19.72,4.41-28.74,21.85c-7.64,14.78-6.65,17.83-6.52,18.11
				c-0.04-0.05-0.19-0.22-0.56-0.28L91.67,391l-1.39-0.56c-0.04,0.1-0.07,0.18-0.1,0.27c-0.01,0.02-0.02,0.05-0.03,0.07
				c-0.04,0.1-0.07,0.19-0.1,0.27c-0.04,0.11-0.08,0.22-0.12,0.33c-0.05-0.07-0.09-0.14-0.13-0.22c-1.4-2.81,0.73-9.63,6.54-20.85
				c10.22-19.77,30.24-23.32,31.08-23.46l0.19-0.03l0.18,0.01C128.46,346.89,143.59,348.23,151.68,359.02z"/>
			<path d="M151.49,431.82l0.86,0.46c-1.05,1.81-3.24,4.99-6.47,6.41c-0.06,5.49-4.65,7.49-7.31,7.79
				c-1.09,0.24-10.09,2.1-19.74,2.1c-5.2,0-10.58-0.54-15.02-2.17c-12.6-4.65-16.42-14.26-16.86-15.49
				c-0.53-1.06-3.87-8.56-1.46-23.12c4.14-7.49,6.69-13.91,7.36-15.67l0.04-0.09c-9.42,25.48-3.3,37.47-3.24,37.58l0.1,0.23
				c0.03,0.09,3.32,9.4,15.1,13.74c12.11,4.46,32.95-0.01,33.16-0.06l0.17-0.02c0.45-0.06,4.1-0.57,4.63-4.08
				c1.15-0.13,1.8-0.29,1.9-0.31l-0.75-2.91c2.33-0.69,4.24-2.96,5.37-4.73C150.59,431.71,151.35,431.8,151.49,431.82z"/>
			<path d="M151.84,428.84l-0.35,2.98c-0.14-0.02-0.9-0.11-2.16-0.34c0.45-0.71,0.78-1.34,0.97-1.76l0.29-0.66l0.7-0.18
				c0.09-0.02,0.18-0.05,0.28-0.08C151.74,428.83,151.83,428.84,151.84,428.84z"/>
			<path d="M151.57,428.8c-0.1,0.03-0.19,0.06-0.28,0.08l-0.7,0.18l-0.29,0.66c-0.19,0.42-0.52,1.05-0.97,1.76
				c-5.19-0.97-18.8-4.35-31.29-14.66c-15.49-12.8-15.28-20.17-15.2-20.96l2.99,0.28c0,0.03-0.13,6.59,14.13,18.37
				C133.72,425.88,149.34,428.48,151.57,428.8z"/>
			<path d="M146.5,1401.93l3,0.141c0,0.06-0.08,1.85-0.16,4.729c-1.65-2.359-2.55-3.91-2.64-4.05l-0.2-0.35v-0.4
				C146.5,1401.96,146.5,1401.94,146.5,1401.93z"/>
			<path d="M143.96,436.21l0.75,2.91c-0.1,0.02-0.75,0.18-1.9,0.31c0.08-0.48,0.09-1.02,0.03-1.62l-0.13-1.25l1.16-0.33l0.05-0.01
				C143.93,436.22,143.95,436.21,143.96,436.21z"/>
			<path d="M143.87,436.23l-1.16,0.33l0.13,1.25c0.06,0.6,0.05,1.14-0.03,1.62c-0.84,0.1-1.95,0.18-3.3,0.18
				c-4.43,0-11.48-0.86-20.38-4.87c-15.37-6.91-16.25-12.96-16.3-13.63l2.99-0.22c0,0,0.24,1.25,2.17,3.26
				c1.93,2.01,5.57,4.79,12.38,7.86C133.89,438.09,142.91,436.43,143.87,436.23z"/>
			<path d="M91.67,391l1.39,0.56c-0.02,0.05-0.05,0.11-0.06,0.17l-0.05,0.14l-1.33-0.55L91.67,391z"/>
			<polygon points="92.95,391.87 92.94,391.89 91.62,391.32 			"/>
			<path d="M92.94,391.89l-0.01,0.02c-0.02,0.04-0.03,0.08-0.04,0.13l-0.04,0.09c-0.67,1.76-3.22,8.18-7.36,15.67
				c0.77-4.72,2.15-10.17,4.44-16.4c0,0-0.01,0,0-0.01c0.53,0.86,1.27,1.05,1.49,1.09l0.2-1.16L92.94,391.89z"/>
			<path d="M91.67,391l-0.05,0.32l-1.44-0.61c0.03-0.09,0.06-0.17,0.1-0.27L91.67,391z"/>
			<path d="M91.62,391.32l-0.2,1.16c-0.22-0.04-0.96-0.23-1.49-1.09c0,0,0,0,0-0.01c0.04-0.11,0.08-0.22,0.12-0.33
				c0.03-0.08,0.06-0.17,0.1-0.27c0.01-0.02,0.02-0.05,0.03-0.07L91.62,391.32z"/>
		</g>
		<g>
		</g>
	</g>
</g>
</svg>
